%TF.GenerationSoftware,KiCad,Pcbnew,7.0.7*%
%TF.CreationDate,2024-07-17T16:02:38+10:00*%
%TF.ProjectId,MIDIAutomationSequencerIO,4d494449-4175-4746-9f6d-6174696f6e53,rev?*%
%TF.SameCoordinates,Original*%
%TF.FileFunction,Legend,Bot*%
%TF.FilePolarity,Positive*%
%FSLAX46Y46*%
G04 Gerber Fmt 4.6, Leading zero omitted, Abs format (unit mm)*
G04 Created by KiCad (PCBNEW 7.0.7) date 2024-07-17 16:02:38*
%MOMM*%
%LPD*%
G01*
G04 APERTURE LIST*
%ADD10C,0.150000*%
%ADD11C,0.120000*%
G04 APERTURE END LIST*
D10*
X87169523Y-154350819D02*
X87169523Y-155065104D01*
X87169523Y-155065104D02*
X87217142Y-155207961D01*
X87217142Y-155207961D02*
X87312380Y-155303200D01*
X87312380Y-155303200D02*
X87455237Y-155350819D01*
X87455237Y-155350819D02*
X87550475Y-155350819D01*
X86169523Y-155350819D02*
X86740951Y-155350819D01*
X86455237Y-155350819D02*
X86455237Y-154350819D01*
X86455237Y-154350819D02*
X86550475Y-154493676D01*
X86550475Y-154493676D02*
X86645713Y-154588914D01*
X86645713Y-154588914D02*
X86740951Y-154636533D01*
X85598094Y-154779390D02*
X85693332Y-154731771D01*
X85693332Y-154731771D02*
X85740951Y-154684152D01*
X85740951Y-154684152D02*
X85788570Y-154588914D01*
X85788570Y-154588914D02*
X85788570Y-154541295D01*
X85788570Y-154541295D02*
X85740951Y-154446057D01*
X85740951Y-154446057D02*
X85693332Y-154398438D01*
X85693332Y-154398438D02*
X85598094Y-154350819D01*
X85598094Y-154350819D02*
X85407618Y-154350819D01*
X85407618Y-154350819D02*
X85312380Y-154398438D01*
X85312380Y-154398438D02*
X85264761Y-154446057D01*
X85264761Y-154446057D02*
X85217142Y-154541295D01*
X85217142Y-154541295D02*
X85217142Y-154588914D01*
X85217142Y-154588914D02*
X85264761Y-154684152D01*
X85264761Y-154684152D02*
X85312380Y-154731771D01*
X85312380Y-154731771D02*
X85407618Y-154779390D01*
X85407618Y-154779390D02*
X85598094Y-154779390D01*
X85598094Y-154779390D02*
X85693332Y-154827009D01*
X85693332Y-154827009D02*
X85740951Y-154874628D01*
X85740951Y-154874628D02*
X85788570Y-154969866D01*
X85788570Y-154969866D02*
X85788570Y-155160342D01*
X85788570Y-155160342D02*
X85740951Y-155255580D01*
X85740951Y-155255580D02*
X85693332Y-155303200D01*
X85693332Y-155303200D02*
X85598094Y-155350819D01*
X85598094Y-155350819D02*
X85407618Y-155350819D01*
X85407618Y-155350819D02*
X85312380Y-155303200D01*
X85312380Y-155303200D02*
X85264761Y-155255580D01*
X85264761Y-155255580D02*
X85217142Y-155160342D01*
X85217142Y-155160342D02*
X85217142Y-154969866D01*
X85217142Y-154969866D02*
X85264761Y-154874628D01*
X85264761Y-154874628D02*
X85312380Y-154827009D01*
X85312380Y-154827009D02*
X85407618Y-154779390D01*
X267001523Y-154350819D02*
X267001523Y-155065104D01*
X267001523Y-155065104D02*
X267049142Y-155207961D01*
X267049142Y-155207961D02*
X267144380Y-155303200D01*
X267144380Y-155303200D02*
X267287237Y-155350819D01*
X267287237Y-155350819D02*
X267382475Y-155350819D01*
X266572951Y-154446057D02*
X266525332Y-154398438D01*
X266525332Y-154398438D02*
X266430094Y-154350819D01*
X266430094Y-154350819D02*
X266191999Y-154350819D01*
X266191999Y-154350819D02*
X266096761Y-154398438D01*
X266096761Y-154398438D02*
X266049142Y-154446057D01*
X266049142Y-154446057D02*
X266001523Y-154541295D01*
X266001523Y-154541295D02*
X266001523Y-154636533D01*
X266001523Y-154636533D02*
X266049142Y-154779390D01*
X266049142Y-154779390D02*
X266620570Y-155350819D01*
X266620570Y-155350819D02*
X266001523Y-155350819D01*
X265049142Y-155350819D02*
X265620570Y-155350819D01*
X265334856Y-155350819D02*
X265334856Y-154350819D01*
X265334856Y-154350819D02*
X265430094Y-154493676D01*
X265430094Y-154493676D02*
X265525332Y-154588914D01*
X265525332Y-154588914D02*
X265620570Y-154636533D01*
X194570819Y-110696476D02*
X195285104Y-110696476D01*
X195285104Y-110696476D02*
X195427961Y-110648857D01*
X195427961Y-110648857D02*
X195523200Y-110553619D01*
X195523200Y-110553619D02*
X195570819Y-110410762D01*
X195570819Y-110410762D02*
X195570819Y-110315524D01*
X195570819Y-111696476D02*
X195570819Y-111125048D01*
X195570819Y-111410762D02*
X194570819Y-111410762D01*
X194570819Y-111410762D02*
X194713676Y-111315524D01*
X194713676Y-111315524D02*
X194808914Y-111220286D01*
X194808914Y-111220286D02*
X194856533Y-111125048D01*
X194570819Y-112315524D02*
X194570819Y-112410762D01*
X194570819Y-112410762D02*
X194618438Y-112506000D01*
X194618438Y-112506000D02*
X194666057Y-112553619D01*
X194666057Y-112553619D02*
X194761295Y-112601238D01*
X194761295Y-112601238D02*
X194951771Y-112648857D01*
X194951771Y-112648857D02*
X195189866Y-112648857D01*
X195189866Y-112648857D02*
X195380342Y-112601238D01*
X195380342Y-112601238D02*
X195475580Y-112553619D01*
X195475580Y-112553619D02*
X195523200Y-112506000D01*
X195523200Y-112506000D02*
X195570819Y-112410762D01*
X195570819Y-112410762D02*
X195570819Y-112315524D01*
X195570819Y-112315524D02*
X195523200Y-112220286D01*
X195523200Y-112220286D02*
X195475580Y-112172667D01*
X195475580Y-112172667D02*
X195380342Y-112125048D01*
X195380342Y-112125048D02*
X195189866Y-112077429D01*
X195189866Y-112077429D02*
X194951771Y-112077429D01*
X194951771Y-112077429D02*
X194761295Y-112125048D01*
X194761295Y-112125048D02*
X194666057Y-112172667D01*
X194666057Y-112172667D02*
X194618438Y-112220286D01*
X194618438Y-112220286D02*
X194570819Y-112315524D01*
X156890819Y-235410476D02*
X157605104Y-235410476D01*
X157605104Y-235410476D02*
X157747961Y-235362857D01*
X157747961Y-235362857D02*
X157843200Y-235267619D01*
X157843200Y-235267619D02*
X157890819Y-235124762D01*
X157890819Y-235124762D02*
X157890819Y-235029524D01*
X156890819Y-235791429D02*
X156890819Y-236410476D01*
X156890819Y-236410476D02*
X157271771Y-236077143D01*
X157271771Y-236077143D02*
X157271771Y-236220000D01*
X157271771Y-236220000D02*
X157319390Y-236315238D01*
X157319390Y-236315238D02*
X157367009Y-236362857D01*
X157367009Y-236362857D02*
X157462247Y-236410476D01*
X157462247Y-236410476D02*
X157700342Y-236410476D01*
X157700342Y-236410476D02*
X157795580Y-236362857D01*
X157795580Y-236362857D02*
X157843200Y-236315238D01*
X157843200Y-236315238D02*
X157890819Y-236220000D01*
X157890819Y-236220000D02*
X157890819Y-235934286D01*
X157890819Y-235934286D02*
X157843200Y-235839048D01*
X157843200Y-235839048D02*
X157795580Y-235791429D01*
X156986057Y-236791429D02*
X156938438Y-236839048D01*
X156938438Y-236839048D02*
X156890819Y-236934286D01*
X156890819Y-236934286D02*
X156890819Y-237172381D01*
X156890819Y-237172381D02*
X156938438Y-237267619D01*
X156938438Y-237267619D02*
X156986057Y-237315238D01*
X156986057Y-237315238D02*
X157081295Y-237362857D01*
X157081295Y-237362857D02*
X157176533Y-237362857D01*
X157176533Y-237362857D02*
X157319390Y-237315238D01*
X157319390Y-237315238D02*
X157890819Y-236743810D01*
X157890819Y-236743810D02*
X157890819Y-237362857D01*
X219120819Y-110696476D02*
X219835104Y-110696476D01*
X219835104Y-110696476D02*
X219977961Y-110648857D01*
X219977961Y-110648857D02*
X220073200Y-110553619D01*
X220073200Y-110553619D02*
X220120819Y-110410762D01*
X220120819Y-110410762D02*
X220120819Y-110315524D01*
X219216057Y-111125048D02*
X219168438Y-111172667D01*
X219168438Y-111172667D02*
X219120819Y-111267905D01*
X219120819Y-111267905D02*
X219120819Y-111506000D01*
X219120819Y-111506000D02*
X219168438Y-111601238D01*
X219168438Y-111601238D02*
X219216057Y-111648857D01*
X219216057Y-111648857D02*
X219311295Y-111696476D01*
X219311295Y-111696476D02*
X219406533Y-111696476D01*
X219406533Y-111696476D02*
X219549390Y-111648857D01*
X219549390Y-111648857D02*
X220120819Y-111077429D01*
X220120819Y-111077429D02*
X220120819Y-111696476D01*
X219216057Y-112077429D02*
X219168438Y-112125048D01*
X219168438Y-112125048D02*
X219120819Y-112220286D01*
X219120819Y-112220286D02*
X219120819Y-112458381D01*
X219120819Y-112458381D02*
X219168438Y-112553619D01*
X219168438Y-112553619D02*
X219216057Y-112601238D01*
X219216057Y-112601238D02*
X219311295Y-112648857D01*
X219311295Y-112648857D02*
X219406533Y-112648857D01*
X219406533Y-112648857D02*
X219549390Y-112601238D01*
X219549390Y-112601238D02*
X220120819Y-112029810D01*
X220120819Y-112029810D02*
X220120819Y-112648857D01*
D11*
%TO.C,J18*%
X87690000Y-191576000D02*
X85030000Y-191576000D01*
X87690000Y-158496000D02*
X87690000Y-191576000D01*
X87690000Y-158496000D02*
X85030000Y-158496000D01*
X87690000Y-157226000D02*
X87690000Y-155896000D01*
X87690000Y-155896000D02*
X86360000Y-155896000D01*
X85030000Y-158496000D02*
X85030000Y-191576000D01*
%TO.C,J21*%
X267522000Y-191576000D02*
X264862000Y-191576000D01*
X267522000Y-158496000D02*
X267522000Y-191576000D01*
X267522000Y-158496000D02*
X264862000Y-158496000D01*
X267522000Y-157226000D02*
X267522000Y-155896000D01*
X267522000Y-155896000D02*
X266192000Y-155896000D01*
X264862000Y-158496000D02*
X264862000Y-191576000D01*
%TO.C,J10*%
X155896000Y-112836000D02*
X155896000Y-110176000D01*
X191516000Y-112836000D02*
X155896000Y-112836000D01*
X191516000Y-112836000D02*
X191516000Y-110176000D01*
X192786000Y-112836000D02*
X194116000Y-112836000D01*
X194116000Y-112836000D02*
X194116000Y-111506000D01*
X191516000Y-110176000D02*
X155896000Y-110176000D01*
%TO.C,J32*%
X194116000Y-234890000D02*
X194116000Y-237550000D01*
X161036000Y-234890000D02*
X194116000Y-234890000D01*
X161036000Y-234890000D02*
X161036000Y-237550000D01*
X159766000Y-234890000D02*
X158436000Y-234890000D01*
X158436000Y-234890000D02*
X158436000Y-236220000D01*
X161036000Y-237550000D02*
X194116000Y-237550000D01*
%TO.C,J22*%
X241106000Y-110176000D02*
X241106000Y-112836000D01*
X223266000Y-110176000D02*
X241106000Y-110176000D01*
X223266000Y-110176000D02*
X223266000Y-112836000D01*
X221996000Y-110176000D02*
X220666000Y-110176000D01*
X220666000Y-110176000D02*
X220666000Y-111506000D01*
X223266000Y-112836000D02*
X241106000Y-112836000D01*
%TD*%
M02*
