%TF.GenerationSoftware,KiCad,Pcbnew,7.0.7*%
%TF.CreationDate,2024-07-17T16:02:38+10:00*%
%TF.ProjectId,MIDIAutomationSequencerIO,4d494449-4175-4746-9f6d-6174696f6e53,rev?*%
%TF.SameCoordinates,Original*%
%TF.FileFunction,Soldermask,Top*%
%TF.FilePolarity,Negative*%
%FSLAX46Y46*%
G04 Gerber Fmt 4.6, Leading zero omitted, Abs format (unit mm)*
G04 Created by KiCad (PCBNEW 7.0.7) date 2024-07-17 16:02:38*
%MOMM*%
%LPD*%
G01*
G04 APERTURE LIST*
G04 Aperture macros list*
%AMRoundRect*
0 Rectangle with rounded corners*
0 $1 Rounding radius*
0 $2 $3 $4 $5 $6 $7 $8 $9 X,Y pos of 4 corners*
0 Add a 4 corners polygon primitive as box body*
4,1,4,$2,$3,$4,$5,$6,$7,$8,$9,$2,$3,0*
0 Add four circle primitives for the rounded corners*
1,1,$1+$1,$2,$3*
1,1,$1+$1,$4,$5*
1,1,$1+$1,$6,$7*
1,1,$1+$1,$8,$9*
0 Add four rect primitives between the rounded corners*
20,1,$1+$1,$2,$3,$4,$5,0*
20,1,$1+$1,$4,$5,$6,$7,0*
20,1,$1+$1,$6,$7,$8,$9,0*
20,1,$1+$1,$8,$9,$2,$3,0*%
G04 Aperture macros list end*
%ADD10C,3.429000*%
%ADD11C,1.600000*%
%ADD12O,1.600000X1.600000*%
%ADD13RoundRect,0.150000X-1.087500X-0.150000X1.087500X-0.150000X1.087500X0.150000X-1.087500X0.150000X0*%
%ADD14C,6.350000*%
%ADD15C,3.175000*%
%ADD16R,1.800000X1.800000*%
%ADD17C,1.800000*%
%ADD18R,1.700000X1.700000*%
%ADD19O,1.700000X1.700000*%
%ADD20R,2.000000X2.000000*%
%ADD21C,2.000000*%
%ADD22R,2.000000X3.200000*%
%ADD23RoundRect,0.150000X0.150000X-1.087500X0.150000X1.087500X-0.150000X1.087500X-0.150000X-1.087500X0*%
G04 APERTURE END LIST*
D10*
%TO.C,J13*%
X144208500Y-173736000D02*
G75*
G03*
X144208500Y-173736000I-1714500J0D01*
G01*
%TO.C,J6*%
X210502500Y-136398000D02*
G75*
G03*
X210502500Y-136398000I-1714500J0D01*
G01*
%TO.C,J17*%
X100012500Y-211074000D02*
G75*
G03*
X100012500Y-211074000I-1714500J0D01*
G01*
%TO.C,J27*%
X188404500Y-173736000D02*
G75*
G03*
X188404500Y-173736000I-1714500J0D01*
G01*
%TO.C,J19*%
X122110500Y-211074000D02*
G75*
G03*
X122110500Y-211074000I-1714500J0D01*
G01*
%TO.C,J20*%
X144208500Y-236220000D02*
G75*
G03*
X144208500Y-236220000I-1714500J0D01*
G01*
%TO.C,J14*%
X100012500Y-173736000D02*
G75*
G03*
X100012500Y-173736000I-1714500J0D01*
G01*
%TO.C,J15*%
X166306500Y-211074000D02*
G75*
G03*
X166306500Y-211074000I-1714500J0D01*
G01*
%TO.C,J9*%
X254698500Y-136398000D02*
G75*
G03*
X254698500Y-136398000I-1714500J0D01*
G01*
%TO.C,J24*%
X254698500Y-173736000D02*
G75*
G03*
X254698500Y-173736000I-1714500J0D01*
G01*
%TO.C,J2*%
X166306500Y-136398000D02*
G75*
G03*
X166306500Y-136398000I-1714500J0D01*
G01*
%TO.C,J30*%
X188404500Y-211074000D02*
G75*
G03*
X188404500Y-211074000I-1714500J0D01*
G01*
%TO.C,J16*%
X144208500Y-211074000D02*
G75*
G03*
X144208500Y-211074000I-1714500J0D01*
G01*
%TO.C,J26*%
X232600500Y-173736000D02*
G75*
G03*
X232600500Y-173736000I-1714500J0D01*
G01*
%TO.C,J25*%
X210502500Y-173736000D02*
G75*
G03*
X210502500Y-173736000I-1714500J0D01*
G01*
%TO.C,J11*%
X166306500Y-173736000D02*
G75*
G03*
X166306500Y-173736000I-1714500J0D01*
G01*
%TO.C,J31*%
X210502500Y-211074000D02*
G75*
G03*
X210502500Y-211074000I-1714500J0D01*
G01*
%TO.C,J28*%
X254698500Y-211074000D02*
G75*
G03*
X254698500Y-211074000I-1714500J0D01*
G01*
%TO.C,J12*%
X122110500Y-173736000D02*
G75*
G03*
X122110500Y-173736000I-1714500J0D01*
G01*
%TO.C,J3*%
X144208500Y-136398000D02*
G75*
G03*
X144208500Y-136398000I-1714500J0D01*
G01*
%TO.C,J29*%
X232600500Y-211074000D02*
G75*
G03*
X232600500Y-211074000I-1714500J0D01*
G01*
%TO.C,J7*%
X232600500Y-136398000D02*
G75*
G03*
X232600500Y-136398000I-1714500J0D01*
G01*
%TO.C,J4*%
X122110500Y-136398000D02*
G75*
G03*
X122110500Y-136398000I-1714500J0D01*
G01*
%TO.C,J8*%
X188404500Y-136398000D02*
G75*
G03*
X188404500Y-136398000I-1714500J0D01*
G01*
%TO.C,J5*%
X100012500Y-136398000D02*
G75*
G03*
X100012500Y-136398000I-1714500J0D01*
G01*
%TD*%
D11*
%TO.C,R16*%
X187960000Y-153924000D03*
D12*
X187960000Y-156464000D03*
%TD*%
D11*
%TO.C,R29*%
X105439000Y-226568000D03*
D12*
X102899000Y-226568000D03*
%TD*%
D11*
%TO.C,R8*%
X99568000Y-153924000D03*
D12*
X99568000Y-156464000D03*
%TD*%
D13*
%TO.C,Q8*%
X102586500Y-191902000D03*
X102586500Y-193802000D03*
X105536500Y-192852000D03*
%TD*%
D11*
%TO.C,R33*%
X121666000Y-228600000D03*
D12*
X121666000Y-231140000D03*
%TD*%
D13*
%TO.C,Q15*%
X124430500Y-229240000D03*
X124430500Y-231140000D03*
X127380500Y-230190000D03*
%TD*%
D14*
%TO.C,J13*%
X142494000Y-173736000D03*
D15*
X147162520Y-178404520D03*
X136144000Y-174294800D03*
X140055600Y-180086000D03*
%TD*%
D13*
%TO.C,Q12*%
X190978500Y-191902000D03*
X190978500Y-193802000D03*
X193928500Y-192852000D03*
%TD*%
%TO.C,Q1*%
X124430500Y-154818000D03*
X124430500Y-156718000D03*
X127380500Y-155768000D03*
%TD*%
D16*
%TO.C,D3*%
X119126000Y-148844000D03*
D17*
X121666000Y-148844000D03*
%TD*%
D13*
%TO.C,Q17*%
X168597500Y-229240000D03*
X168597500Y-231140000D03*
X171547500Y-230190000D03*
%TD*%
D14*
%TO.C,J6*%
X208788000Y-136398000D03*
D15*
X213456520Y-141066520D03*
X202438000Y-136956800D03*
X206349600Y-142748000D03*
%TD*%
D13*
%TO.C,Q24*%
X257018500Y-191902000D03*
X257018500Y-193802000D03*
X259968500Y-192852000D03*
%TD*%
D16*
%TO.C,D7*%
X207518000Y-148844000D03*
D17*
X210058000Y-148844000D03*
%TD*%
D11*
%TO.C,R44*%
X260096000Y-189230000D03*
D12*
X257556000Y-189230000D03*
%TD*%
D13*
%TO.C,Q21*%
X257018500Y-229240000D03*
X257018500Y-231140000D03*
X259968500Y-230190000D03*
%TD*%
D11*
%TO.C,R2*%
X171704000Y-152146000D03*
D12*
X169164000Y-152146000D03*
%TD*%
D13*
%TO.C,Q3*%
X168626500Y-154686000D03*
X168626500Y-156586000D03*
X171576500Y-155636000D03*
%TD*%
D14*
%TO.C,J17*%
X98298000Y-211074000D03*
D15*
X102966520Y-215742520D03*
X91948000Y-211632800D03*
X95859600Y-217424000D03*
%TD*%
D14*
%TO.C,J27*%
X186690000Y-173736000D03*
D15*
X191358520Y-178404520D03*
X180340000Y-174294800D03*
X184251600Y-180086000D03*
%TD*%
D11*
%TO.C,R48*%
X254254000Y-191262000D03*
D12*
X254254000Y-193802000D03*
%TD*%
D14*
%TO.C,J19*%
X120396000Y-211074000D03*
D15*
X125064520Y-215742520D03*
X114046000Y-211632800D03*
X117957600Y-217424000D03*
%TD*%
D16*
%TO.C,D22*%
X229616000Y-186182000D03*
D17*
X232156000Y-186182000D03*
%TD*%
D14*
%TO.C,J20*%
X142494000Y-236220000D03*
D15*
X147162520Y-240888520D03*
X136144000Y-236778800D03*
X140055600Y-242570000D03*
%TD*%
D11*
%TO.C,R47*%
X232156000Y-191233000D03*
D12*
X232156000Y-193773000D03*
%TD*%
D11*
%TO.C,R49*%
X210058000Y-191262000D03*
D12*
X210058000Y-193802000D03*
%TD*%
D16*
%TO.C,D16*%
X119121000Y-223520000D03*
D17*
X121661000Y-223520000D03*
%TD*%
D11*
%TO.C,R40*%
X254000000Y-228600000D03*
D12*
X254000000Y-231140000D03*
%TD*%
D13*
%TO.C,Q6*%
X234920500Y-154564000D03*
X234920500Y-156464000D03*
X237870500Y-155514000D03*
%TD*%
D16*
%TO.C,D19*%
X251460000Y-223520000D03*
D17*
X254000000Y-223520000D03*
%TD*%
D11*
%TO.C,R36*%
X260096000Y-226568000D03*
D12*
X257556000Y-226568000D03*
%TD*%
D11*
%TO.C,R5*%
X143764000Y-154178000D03*
D12*
X143764000Y-156718000D03*
%TD*%
D11*
%TO.C,R4*%
X105410000Y-151892000D03*
D12*
X102870000Y-151892000D03*
%TD*%
D11*
%TO.C,R18*%
X171958000Y-189230000D03*
D12*
X169418000Y-189230000D03*
%TD*%
D14*
%TO.C,J14*%
X98298000Y-173736000D03*
D15*
X102966520Y-178404520D03*
X91948000Y-174294800D03*
X95859600Y-180086000D03*
%TD*%
D11*
%TO.C,R20*%
X105693000Y-188976000D03*
D12*
X103153000Y-188976000D03*
%TD*%
D18*
%TO.C,J23*%
X171196000Y-243332000D03*
D19*
X173736000Y-243332000D03*
X176276000Y-243332000D03*
X178816000Y-243332000D03*
X181356000Y-243332000D03*
%TD*%
D16*
%TO.C,D4*%
X97028000Y-148844000D03*
D17*
X99568000Y-148844000D03*
%TD*%
D20*
%TO.C,SW1*%
X139994000Y-119010000D03*
D21*
X144994000Y-119010000D03*
X142494000Y-119010000D03*
D22*
X136894000Y-111510000D03*
X148094000Y-111510000D03*
D21*
X144994000Y-104510000D03*
X139994000Y-104510000D03*
%TD*%
D14*
%TO.C,J15*%
X164592000Y-211074000D03*
D15*
X169260520Y-215742520D03*
X158242000Y-211632800D03*
X162153600Y-217424000D03*
%TD*%
D14*
%TO.C,J9*%
X252984000Y-136398000D03*
D15*
X257652520Y-141066520D03*
X246634000Y-136956800D03*
X250545600Y-142748000D03*
%TD*%
D11*
%TO.C,C1*%
X133858000Y-119126000D03*
X131358000Y-119126000D03*
%TD*%
%TO.C,R26*%
X154715000Y-218948000D03*
D12*
X152175000Y-218948000D03*
%TD*%
D11*
%TO.C,R14*%
X254254000Y-153924000D03*
D12*
X254254000Y-156464000D03*
%TD*%
D11*
%TO.C,R28*%
X127508000Y-226568000D03*
D12*
X124968000Y-226568000D03*
%TD*%
D13*
%TO.C,Q16*%
X151862500Y-221620000D03*
X151862500Y-223520000D03*
X154812500Y-222570000D03*
%TD*%
D11*
%TO.C,R30*%
X119126000Y-241300000D03*
D12*
X116586000Y-241300000D03*
%TD*%
D11*
%TO.C,R25*%
X112522000Y-246126000D03*
D12*
X112522000Y-243586000D03*
%TD*%
D16*
%TO.C,D13*%
X121666000Y-236220000D03*
D17*
X119126000Y-236220000D03*
%TD*%
D13*
%TO.C,Q11*%
X168880500Y-191902000D03*
X168880500Y-193802000D03*
X171830500Y-192852000D03*
%TD*%
%TO.C,Q9*%
X124684500Y-191902000D03*
X124684500Y-193802000D03*
X127634500Y-192852000D03*
%TD*%
D14*
%TO.C,J24*%
X252984000Y-173736000D03*
D15*
X257652520Y-178404520D03*
X246634000Y-174294800D03*
X250545600Y-180086000D03*
%TD*%
D11*
%TO.C,R41*%
X210058000Y-228600000D03*
D12*
X210058000Y-231140000D03*
%TD*%
D16*
%TO.C,D8*%
X185420000Y-148844000D03*
D17*
X187960000Y-148844000D03*
%TD*%
D11*
%TO.C,R24*%
X99568000Y-191262000D03*
D12*
X99568000Y-193802000D03*
%TD*%
D13*
%TO.C,Q22*%
X213330500Y-191902000D03*
X213330500Y-193802000D03*
X216280500Y-192852000D03*
%TD*%
D14*
%TO.C,J2*%
X164592000Y-136398000D03*
D15*
X169260520Y-141066520D03*
X158242000Y-136956800D03*
X162153600Y-142748000D03*
%TD*%
D16*
%TO.C,D1*%
X141219000Y-148844000D03*
D17*
X143759000Y-148844000D03*
%TD*%
D16*
%TO.C,D15*%
X163317000Y-223520000D03*
D17*
X165857000Y-223520000D03*
%TD*%
D16*
%TO.C,D24*%
X207518000Y-186182000D03*
D17*
X210058000Y-186182000D03*
%TD*%
D16*
%TO.C,D5*%
X229616000Y-148844000D03*
D17*
X232156000Y-148844000D03*
%TD*%
D16*
%TO.C,D21*%
X185420000Y-223520000D03*
D17*
X187960000Y-223520000D03*
%TD*%
D13*
%TO.C,Q26*%
X102332500Y-154564000D03*
X102332500Y-156464000D03*
X105282500Y-155514000D03*
%TD*%
D11*
%TO.C,R17*%
X149635000Y-189230000D03*
D12*
X147095000Y-189230000D03*
%TD*%
D11*
%TO.C,R10*%
X260096000Y-151892000D03*
D12*
X257556000Y-151892000D03*
%TD*%
D16*
%TO.C,D12*%
X97023000Y-186182000D03*
D17*
X99563000Y-186182000D03*
%TD*%
D14*
%TO.C,J30*%
X186690000Y-211074000D03*
D15*
X191358520Y-215742520D03*
X180340000Y-211632800D03*
X184251600Y-217424000D03*
%TD*%
D11*
%TO.C,C2*%
X151130000Y-119126000D03*
X153630000Y-119126000D03*
%TD*%
%TO.C,R15*%
X210058000Y-153895000D03*
D12*
X210058000Y-156435000D03*
%TD*%
D14*
%TO.C,J16*%
X142494000Y-211074000D03*
D15*
X147162520Y-215742520D03*
X136144000Y-211632800D03*
X140055600Y-217424000D03*
%TD*%
D13*
%TO.C,Q5*%
X212822500Y-154564000D03*
X212822500Y-156464000D03*
X215772500Y-155514000D03*
%TD*%
D16*
%TO.C,D2*%
X163322000Y-148844000D03*
D17*
X165862000Y-148844000D03*
%TD*%
D11*
%TO.C,R19*%
X127762000Y-189230000D03*
D12*
X125222000Y-189230000D03*
%TD*%
D11*
%TO.C,R35*%
X237998000Y-226568000D03*
D12*
X235458000Y-226568000D03*
%TD*%
D11*
%TO.C,R12*%
X194056000Y-151892000D03*
D12*
X191516000Y-151892000D03*
%TD*%
D13*
%TO.C,Q23*%
X235174500Y-191902000D03*
X235174500Y-193802000D03*
X238124500Y-192852000D03*
%TD*%
D14*
%TO.C,J26*%
X230886000Y-173736000D03*
D15*
X235554520Y-178404520D03*
X224536000Y-174294800D03*
X228447600Y-180086000D03*
%TD*%
D11*
%TO.C,R46*%
X194056000Y-189230000D03*
D12*
X191516000Y-189230000D03*
%TD*%
D11*
%TO.C,R7*%
X121666000Y-154178000D03*
D12*
X121666000Y-156718000D03*
%TD*%
D13*
%TO.C,Q20*%
X234920500Y-229240000D03*
X234920500Y-231140000D03*
X237870500Y-230190000D03*
%TD*%
D11*
%TO.C,R1*%
X149635000Y-152146000D03*
D12*
X147095000Y-152146000D03*
%TD*%
D11*
%TO.C,R42*%
X187960000Y-228600000D03*
D12*
X187960000Y-231140000D03*
%TD*%
D11*
%TO.C,R11*%
X215900000Y-151892000D03*
D12*
X213360000Y-151892000D03*
%TD*%
D14*
%TO.C,J25*%
X208788000Y-173736000D03*
D15*
X213456520Y-178404520D03*
X202438000Y-174294800D03*
X206349600Y-180086000D03*
%TD*%
D13*
%TO.C,Q2*%
X146528500Y-154818000D03*
X146528500Y-156718000D03*
X149478500Y-155768000D03*
%TD*%
%TO.C,Q7*%
X257018500Y-154564000D03*
X257018500Y-156464000D03*
X259968500Y-155514000D03*
%TD*%
D11*
%TO.C,R6*%
X165862000Y-153924000D03*
D12*
X165862000Y-156464000D03*
%TD*%
D14*
%TO.C,J11*%
X164592000Y-173736000D03*
D15*
X169260520Y-178404520D03*
X158242000Y-174294800D03*
X162153600Y-180086000D03*
%TD*%
D13*
%TO.C,Q18*%
X190978500Y-229240000D03*
X190978500Y-231140000D03*
X193928500Y-230190000D03*
%TD*%
D11*
%TO.C,R23*%
X121666000Y-191233000D03*
D12*
X121666000Y-193773000D03*
%TD*%
D14*
%TO.C,J31*%
X208788000Y-211074000D03*
D15*
X213456520Y-215742520D03*
X202438000Y-211632800D03*
X206349600Y-217424000D03*
%TD*%
D14*
%TO.C,J28*%
X252984000Y-211074000D03*
D15*
X257652520Y-215742520D03*
X246634000Y-211632800D03*
X250545600Y-217424000D03*
%TD*%
D14*
%TO.C,J12*%
X120396000Y-173736000D03*
D15*
X125064520Y-178404520D03*
X114046000Y-174294800D03*
X117957600Y-180086000D03*
%TD*%
D13*
%TO.C,Q14*%
X102332500Y-229240000D03*
X102332500Y-231140000D03*
X105282500Y-230190000D03*
%TD*%
D16*
%TO.C,D17*%
X97023000Y-223520000D03*
D17*
X99563000Y-223520000D03*
%TD*%
D16*
%TO.C,D25*%
X185415000Y-186182000D03*
D17*
X187955000Y-186182000D03*
%TD*%
D14*
%TO.C,J3*%
X142494000Y-136398000D03*
D15*
X147162520Y-141066520D03*
X136144000Y-136956800D03*
X140055600Y-142748000D03*
%TD*%
D16*
%TO.C,D6*%
X251714000Y-148844000D03*
D17*
X254254000Y-148844000D03*
%TD*%
D16*
%TO.C,D18*%
X229616000Y-223520000D03*
D17*
X232156000Y-223520000D03*
%TD*%
D11*
%TO.C,R31*%
X147574000Y-223520000D03*
D12*
X150114000Y-223520000D03*
%TD*%
D13*
%TO.C,Q10*%
X146528500Y-191902000D03*
X146528500Y-193802000D03*
X149478500Y-192852000D03*
%TD*%
D16*
%TO.C,D14*%
X141219000Y-223520000D03*
D17*
X143759000Y-223520000D03*
%TD*%
D14*
%TO.C,J29*%
X230886000Y-211074000D03*
D15*
X235554520Y-215742520D03*
X224536000Y-211632800D03*
X228447600Y-217424000D03*
%TD*%
D11*
%TO.C,R38*%
X194056000Y-226568000D03*
D12*
X191516000Y-226568000D03*
%TD*%
D14*
%TO.C,J7*%
X230886000Y-136398000D03*
D15*
X235554520Y-141066520D03*
X224536000Y-136956800D03*
X228447600Y-142748000D03*
%TD*%
D14*
%TO.C,J4*%
X120396000Y-136398000D03*
D15*
X125064520Y-141066520D03*
X114046000Y-136956800D03*
X117957600Y-142748000D03*
%TD*%
D11*
%TO.C,R3*%
X127508000Y-152146000D03*
D12*
X124968000Y-152146000D03*
%TD*%
D16*
%TO.C,D10*%
X163322000Y-186182000D03*
D17*
X165862000Y-186182000D03*
%TD*%
D13*
%TO.C,Q4*%
X190978500Y-154564000D03*
X190978500Y-156464000D03*
X193928500Y-155514000D03*
%TD*%
D14*
%TO.C,J8*%
X186690000Y-136398000D03*
D15*
X191358520Y-141066520D03*
X180340000Y-136956800D03*
X184251600Y-142748000D03*
%TD*%
D16*
%TO.C,D20*%
X207518000Y-223520000D03*
D17*
X210058000Y-223520000D03*
%TD*%
D11*
%TO.C,R45*%
X216437000Y-189230000D03*
D12*
X213897000Y-189230000D03*
%TD*%
D11*
%TO.C,R9*%
X237998000Y-151892000D03*
D12*
X235458000Y-151892000D03*
%TD*%
D11*
%TO.C,R27*%
X171704000Y-226568000D03*
D12*
X169164000Y-226568000D03*
%TD*%
D11*
%TO.C,R32*%
X165862000Y-228600000D03*
D12*
X165862000Y-231140000D03*
%TD*%
D11*
%TO.C,R13*%
X232156000Y-153895000D03*
D12*
X232156000Y-156435000D03*
%TD*%
D11*
%TO.C,R50*%
X187960000Y-191262000D03*
D12*
X187960000Y-193802000D03*
%TD*%
D11*
%TO.C,R34*%
X99568000Y-228600000D03*
D12*
X99568000Y-231140000D03*
%TD*%
D11*
%TO.C,R37*%
X215900000Y-226568000D03*
D12*
X213360000Y-226568000D03*
%TD*%
D14*
%TO.C,J5*%
X98298000Y-136398000D03*
D15*
X102966520Y-141066520D03*
X91948000Y-136956800D03*
X95859600Y-142748000D03*
%TD*%
D11*
%TO.C,R43*%
X238252000Y-189230000D03*
D12*
X235712000Y-189230000D03*
%TD*%
D11*
%TO.C,R22*%
X165862000Y-191262000D03*
D12*
X165862000Y-193802000D03*
%TD*%
D23*
%TO.C,Q13*%
X112400000Y-241837500D03*
X114300000Y-241837500D03*
X113350000Y-238887500D03*
%TD*%
D16*
%TO.C,D11*%
X119126000Y-186182000D03*
D17*
X121666000Y-186182000D03*
%TD*%
D13*
%TO.C,Q19*%
X212822500Y-229240000D03*
X212822500Y-231140000D03*
X215772500Y-230190000D03*
%TD*%
D16*
%TO.C,D9*%
X141224000Y-186182000D03*
D17*
X143764000Y-186182000D03*
%TD*%
D11*
%TO.C,R39*%
X232156000Y-228600000D03*
D12*
X232156000Y-231140000D03*
%TD*%
D11*
%TO.C,R21*%
X143764000Y-191233000D03*
D12*
X143764000Y-193773000D03*
%TD*%
D16*
%TO.C,D23*%
X251714000Y-186182000D03*
D17*
X254254000Y-186182000D03*
%TD*%
D18*
%TO.C,J18*%
X86360000Y-157226000D03*
D19*
X86360000Y-159766000D03*
X86360000Y-162306000D03*
X86360000Y-164846000D03*
X86360000Y-167386000D03*
X86360000Y-169926000D03*
X86360000Y-172466000D03*
X86360000Y-175006000D03*
X86360000Y-177546000D03*
X86360000Y-180086000D03*
X86360000Y-182626000D03*
X86360000Y-185166000D03*
X86360000Y-187706000D03*
X86360000Y-190246000D03*
%TD*%
D18*
%TO.C,J21*%
X266192000Y-157226000D03*
D19*
X266192000Y-159766000D03*
X266192000Y-162306000D03*
X266192000Y-164846000D03*
X266192000Y-167386000D03*
X266192000Y-169926000D03*
X266192000Y-172466000D03*
X266192000Y-175006000D03*
X266192000Y-177546000D03*
X266192000Y-180086000D03*
X266192000Y-182626000D03*
X266192000Y-185166000D03*
X266192000Y-187706000D03*
X266192000Y-190246000D03*
%TD*%
D18*
%TO.C,J10*%
X192786000Y-111506000D03*
D19*
X190246000Y-111506000D03*
X187706000Y-111506000D03*
X185166000Y-111506000D03*
X182626000Y-111506000D03*
X180086000Y-111506000D03*
X177546000Y-111506000D03*
X175006000Y-111506000D03*
X172466000Y-111506000D03*
X169926000Y-111506000D03*
X167386000Y-111506000D03*
X164846000Y-111506000D03*
X162306000Y-111506000D03*
X159766000Y-111506000D03*
X157226000Y-111506000D03*
%TD*%
D18*
%TO.C,J32*%
X159766000Y-236220000D03*
D19*
X162306000Y-236220000D03*
X164846000Y-236220000D03*
X167386000Y-236220000D03*
X169926000Y-236220000D03*
X172466000Y-236220000D03*
X175006000Y-236220000D03*
X177546000Y-236220000D03*
X180086000Y-236220000D03*
X182626000Y-236220000D03*
X185166000Y-236220000D03*
X187706000Y-236220000D03*
X190246000Y-236220000D03*
X192786000Y-236220000D03*
%TD*%
D18*
%TO.C,J22*%
X221996000Y-111506000D03*
D19*
X224536000Y-111506000D03*
X227076000Y-111506000D03*
X229616000Y-111506000D03*
X232156000Y-111506000D03*
X234696000Y-111506000D03*
X237236000Y-111506000D03*
X239776000Y-111506000D03*
%TD*%
M02*
