M48
; DRILL file {KiCad 7.0.7} date Wed Jul 17 16:02:35 2024
; FORMAT={-:-/ absolute / metric / decimal}
; #@! TF.CreationDate,2024-07-17T16:02:35+10:00
; #@! TF.GenerationSoftware,Kicad,Pcbnew,7.0.7
; #@! TF.FileFunction,MixedPlating,1,2
FMAT,2
METRIC
; #@! TA.AperFunction,Plated,PTH,ComponentDrill
T1C0.800
; #@! TA.AperFunction,Plated,PTH,ComponentDrill
T2C0.900
; #@! TA.AperFunction,Plated,PTH,ComponentDrill
T3C1.000
; #@! TA.AperFunction,Plated,PTH,ComponentDrill
T4C1.500
; #@! TA.AperFunction,Plated,PTH,ComponentDrill
T5C2.159
; #@! TA.AperFunction,NonPlated,NPTH,ComponentDrill
T6C6.350
%
G90
G05
T1
X99.568Y-153.924
X99.568Y-156.464
X99.568Y-191.262
X99.568Y-193.802
X99.568Y-228.6
X99.568Y-231.14
X102.87Y-151.892
X102.899Y-226.568
X103.153Y-188.976
X105.41Y-151.892
X105.439Y-226.568
X105.693Y-188.976
X112.522Y-243.586
X112.522Y-246.126
X116.586Y-241.3
X119.126Y-241.3
X121.666Y-154.178
X121.666Y-156.718
X121.666Y-191.233
X121.666Y-193.773
X121.666Y-228.6
X121.666Y-231.14
X124.968Y-152.146
X124.968Y-226.568
X125.222Y-189.23
X127.508Y-152.146
X127.508Y-226.568
X127.762Y-189.23
X131.358Y-119.126
X133.858Y-119.126
X143.764Y-154.178
X143.764Y-156.718
X143.764Y-191.233
X143.764Y-193.773
X147.095Y-152.146
X147.095Y-189.23
X147.574Y-223.52
X149.635Y-152.146
X149.635Y-189.23
X150.114Y-223.52
X151.13Y-119.126
X152.175Y-218.948
X153.63Y-119.126
X154.715Y-218.948
X165.862Y-153.924
X165.862Y-156.464
X165.862Y-191.262
X165.862Y-193.802
X165.862Y-228.6
X165.862Y-231.14
X169.164Y-152.146
X169.164Y-226.568
X169.418Y-189.23
X171.704Y-152.146
X171.704Y-226.568
X171.958Y-189.23
X187.96Y-153.924
X187.96Y-156.464
X187.96Y-191.262
X187.96Y-193.802
X187.96Y-228.6
X187.96Y-231.14
X191.516Y-151.892
X191.516Y-189.23
X191.516Y-226.568
X194.056Y-151.892
X194.056Y-189.23
X194.056Y-226.568
X210.058Y-153.895
X210.058Y-156.435
X210.058Y-191.262
X210.058Y-193.802
X210.058Y-228.6
X210.058Y-231.14
X213.36Y-151.892
X213.36Y-226.568
X213.897Y-189.23
X215.9Y-151.892
X215.9Y-226.568
X216.437Y-189.23
X232.156Y-153.895
X232.156Y-156.435
X232.156Y-191.233
X232.156Y-193.773
X232.156Y-228.6
X232.156Y-231.14
X235.458Y-151.892
X235.458Y-226.568
X235.712Y-189.23
X237.998Y-151.892
X237.998Y-226.568
X238.252Y-189.23
X254.0Y-228.6
X254.0Y-231.14
X254.254Y-153.924
X254.254Y-156.464
X254.254Y-191.262
X254.254Y-193.802
X257.556Y-151.892
X257.556Y-189.23
X257.556Y-226.568
X260.096Y-151.892
X260.096Y-189.23
X260.096Y-226.568
T2
X97.023Y-186.182
X97.023Y-223.52
X97.028Y-148.844
X99.563Y-186.182
X99.563Y-223.52
X99.568Y-148.844
X119.121Y-223.52
X119.126Y-148.844
X119.126Y-186.182
X119.126Y-236.22
X121.661Y-223.52
X121.666Y-148.844
X121.666Y-186.182
X121.666Y-236.22
X141.219Y-148.844
X141.219Y-223.52
X141.224Y-186.182
X143.759Y-148.844
X143.759Y-223.52
X143.764Y-186.182
X163.317Y-223.52
X163.322Y-148.844
X163.322Y-186.182
X165.857Y-223.52
X165.862Y-148.844
X165.862Y-186.182
X185.415Y-186.182
X185.42Y-148.844
X185.42Y-223.52
X187.955Y-186.182
X187.96Y-148.844
X187.96Y-223.52
X207.518Y-148.844
X207.518Y-186.182
X207.518Y-223.52
X210.058Y-148.844
X210.058Y-186.182
X210.058Y-223.52
X229.616Y-148.844
X229.616Y-186.182
X229.616Y-223.52
X232.156Y-148.844
X232.156Y-186.182
X232.156Y-223.52
X251.46Y-223.52
X251.714Y-148.844
X251.714Y-186.182
X254.0Y-223.52
X254.254Y-148.844
X254.254Y-186.182
T3
X86.36Y-157.226
X86.36Y-159.766
X86.36Y-162.306
X86.36Y-164.846
X86.36Y-167.386
X86.36Y-169.926
X86.36Y-172.466
X86.36Y-175.006
X86.36Y-177.546
X86.36Y-180.086
X86.36Y-182.626
X86.36Y-185.166
X86.36Y-187.706
X86.36Y-190.246
X139.994Y-104.51
X139.994Y-119.01
X142.494Y-119.01
X144.994Y-104.51
X144.994Y-119.01
X157.226Y-111.506
X159.766Y-111.506
X159.766Y-236.22
X162.306Y-111.506
X162.306Y-236.22
X164.846Y-111.506
X164.846Y-236.22
X167.386Y-111.506
X167.386Y-236.22
X169.926Y-111.506
X169.926Y-236.22
X171.196Y-243.332
X172.466Y-111.506
X172.466Y-236.22
X173.736Y-243.332
X175.006Y-111.506
X175.006Y-236.22
X176.276Y-243.332
X177.546Y-111.506
X177.546Y-236.22
X178.816Y-243.332
X180.086Y-111.506
X180.086Y-236.22
X181.356Y-243.332
X182.626Y-111.506
X182.626Y-236.22
X185.166Y-111.506
X185.166Y-236.22
X187.706Y-111.506
X187.706Y-236.22
X190.246Y-111.506
X190.246Y-236.22
X192.786Y-111.506
X192.786Y-236.22
X221.996Y-111.506
X224.536Y-111.506
X227.076Y-111.506
X229.616Y-111.506
X232.156Y-111.506
X234.696Y-111.506
X237.236Y-111.506
X239.776Y-111.506
X266.192Y-157.226
X266.192Y-159.766
X266.192Y-162.306
X266.192Y-164.846
X266.192Y-167.386
X266.192Y-169.926
X266.192Y-172.466
X266.192Y-175.006
X266.192Y-177.546
X266.192Y-180.086
X266.192Y-182.626
X266.192Y-185.166
X266.192Y-187.706
X266.192Y-190.246
T5
X91.948Y-136.957
X91.948Y-174.295
X91.948Y-211.633
X95.86Y-142.748
X95.86Y-180.086
X95.86Y-217.424
X102.967Y-141.067
X102.967Y-178.405
X102.967Y-215.743
X114.046Y-136.957
X114.046Y-174.295
X114.046Y-211.633
X117.958Y-142.748
X117.958Y-180.086
X117.958Y-217.424
X125.065Y-141.067
X125.065Y-178.405
X125.065Y-215.743
X136.144Y-136.957
X136.144Y-174.295
X136.144Y-211.633
X136.144Y-236.779
X140.056Y-142.748
X140.056Y-180.086
X140.056Y-217.424
X140.056Y-242.57
X147.163Y-141.067
X147.163Y-178.405
X147.163Y-215.743
X147.163Y-240.889
X158.242Y-136.957
X158.242Y-174.295
X158.242Y-211.633
X162.154Y-142.748
X162.154Y-180.086
X162.154Y-217.424
X169.261Y-141.067
X169.261Y-178.405
X169.261Y-215.743
X180.34Y-136.957
X180.34Y-174.295
X180.34Y-211.633
X184.252Y-142.748
X184.252Y-180.086
X184.252Y-217.424
X191.359Y-141.067
X191.359Y-178.405
X191.359Y-215.743
X202.438Y-136.957
X202.438Y-174.295
X202.438Y-211.633
X206.35Y-142.748
X206.35Y-180.086
X206.35Y-217.424
X213.457Y-141.067
X213.457Y-178.405
X213.457Y-215.743
X224.536Y-136.957
X224.536Y-174.295
X224.536Y-211.633
X228.448Y-142.748
X228.448Y-180.086
X228.448Y-217.424
X235.555Y-141.067
X235.555Y-178.405
X235.555Y-215.743
X246.634Y-136.957
X246.634Y-174.295
X246.634Y-211.633
X250.546Y-142.748
X250.546Y-180.086
X250.546Y-217.424
X257.653Y-141.067
X257.653Y-178.405
X257.653Y-215.743
T6
X98.298Y-136.398
X98.298Y-173.736
X98.298Y-211.074
X120.396Y-136.398
X120.396Y-173.736
X120.396Y-211.074
X142.494Y-136.398
X142.494Y-173.736
X142.494Y-211.074
X142.494Y-236.22
X164.592Y-136.398
X164.592Y-173.736
X164.592Y-211.074
X186.69Y-136.398
X186.69Y-173.736
X186.69Y-211.074
X208.788Y-136.398
X208.788Y-173.736
X208.788Y-211.074
X230.886Y-136.398
X230.886Y-173.736
X230.886Y-211.074
X252.984Y-136.398
X252.984Y-173.736
X252.984Y-211.074
T4
G00X136.894Y-112.16
M15
G01X136.894Y-110.86
M16
G05
G00X148.094Y-112.16
M15
G01X148.094Y-110.86
M16
G05
T0
M30
