%TF.GenerationSoftware,KiCad,Pcbnew,7.0.7*%
%TF.CreationDate,2024-07-17T17:03:53+10:00*%
%TF.ProjectId,MIDIAutomationSequencerFP,4d494449-4175-4746-9f6d-6174696f6e53,rev?*%
%TF.SameCoordinates,Original*%
%TF.FileFunction,Legend,Top*%
%TF.FilePolarity,Positive*%
%FSLAX46Y46*%
G04 Gerber Fmt 4.6, Leading zero omitted, Abs format (unit mm)*
G04 Created by KiCad (PCBNEW 7.0.7) date 2024-07-17 17:03:53*
%MOMM*%
%LPD*%
G01*
G04 APERTURE LIST*
%ADD10C,0.250000*%
%ADD11C,0.800000*%
%ADD12C,1.000000*%
G04 APERTURE END LIST*
D10*
X182816761Y-177605761D02*
X182721523Y-177701000D01*
X182721523Y-177701000D02*
X182435809Y-177796238D01*
X182435809Y-177796238D02*
X182245333Y-177796238D01*
X182245333Y-177796238D02*
X181959618Y-177701000D01*
X181959618Y-177701000D02*
X181769142Y-177510523D01*
X181769142Y-177510523D02*
X181673904Y-177320047D01*
X181673904Y-177320047D02*
X181578666Y-176939095D01*
X181578666Y-176939095D02*
X181578666Y-176653380D01*
X181578666Y-176653380D02*
X181673904Y-176272428D01*
X181673904Y-176272428D02*
X181769142Y-176081952D01*
X181769142Y-176081952D02*
X181959618Y-175891476D01*
X181959618Y-175891476D02*
X182245333Y-175796238D01*
X182245333Y-175796238D02*
X182435809Y-175796238D01*
X182435809Y-175796238D02*
X182721523Y-175891476D01*
X182721523Y-175891476D02*
X182816761Y-175986714D01*
X184816761Y-177605761D02*
X184721523Y-177701000D01*
X184721523Y-177701000D02*
X184435809Y-177796238D01*
X184435809Y-177796238D02*
X184245333Y-177796238D01*
X184245333Y-177796238D02*
X183959618Y-177701000D01*
X183959618Y-177701000D02*
X183769142Y-177510523D01*
X183769142Y-177510523D02*
X183673904Y-177320047D01*
X183673904Y-177320047D02*
X183578666Y-176939095D01*
X183578666Y-176939095D02*
X183578666Y-176653380D01*
X183578666Y-176653380D02*
X183673904Y-176272428D01*
X183673904Y-176272428D02*
X183769142Y-176081952D01*
X183769142Y-176081952D02*
X183959618Y-175891476D01*
X183959618Y-175891476D02*
X184245333Y-175796238D01*
X184245333Y-175796238D02*
X184435809Y-175796238D01*
X184435809Y-175796238D02*
X184721523Y-175891476D01*
X184721523Y-175891476D02*
X184816761Y-175986714D01*
X188054857Y-176462904D02*
X188054857Y-177796238D01*
X187578666Y-175701000D02*
X187102476Y-177129571D01*
X187102476Y-177129571D02*
X188340571Y-177129571D01*
X244682189Y-131600238D02*
X245063142Y-131600238D01*
X245063142Y-131600238D02*
X245253618Y-131695476D01*
X245253618Y-131695476D02*
X245444094Y-131885952D01*
X245444094Y-131885952D02*
X245539332Y-132266904D01*
X245539332Y-132266904D02*
X245539332Y-132933571D01*
X245539332Y-132933571D02*
X245444094Y-133314523D01*
X245444094Y-133314523D02*
X245253618Y-133505000D01*
X245253618Y-133505000D02*
X245063142Y-133600238D01*
X245063142Y-133600238D02*
X244682189Y-133600238D01*
X244682189Y-133600238D02*
X244491713Y-133505000D01*
X244491713Y-133505000D02*
X244301237Y-133314523D01*
X244301237Y-133314523D02*
X244205999Y-132933571D01*
X244205999Y-132933571D02*
X244205999Y-132266904D01*
X244205999Y-132266904D02*
X244301237Y-131885952D01*
X244301237Y-131885952D02*
X244491713Y-131695476D01*
X244491713Y-131695476D02*
X244682189Y-131600238D01*
X246396475Y-131600238D02*
X246396475Y-133219285D01*
X246396475Y-133219285D02*
X246491713Y-133409761D01*
X246491713Y-133409761D02*
X246586951Y-133505000D01*
X246586951Y-133505000D02*
X246777427Y-133600238D01*
X246777427Y-133600238D02*
X247158380Y-133600238D01*
X247158380Y-133600238D02*
X247348856Y-133505000D01*
X247348856Y-133505000D02*
X247444094Y-133409761D01*
X247444094Y-133409761D02*
X247539332Y-133219285D01*
X247539332Y-133219285D02*
X247539332Y-131600238D01*
X248205999Y-131600238D02*
X249348856Y-131600238D01*
X248777427Y-133600238D02*
X248777427Y-131600238D01*
X250015523Y-133600238D02*
X250015523Y-131600238D01*
X250015523Y-131600238D02*
X250777428Y-131600238D01*
X250777428Y-131600238D02*
X250967904Y-131695476D01*
X250967904Y-131695476D02*
X251063142Y-131790714D01*
X251063142Y-131790714D02*
X251158380Y-131981190D01*
X251158380Y-131981190D02*
X251158380Y-132266904D01*
X251158380Y-132266904D02*
X251063142Y-132457380D01*
X251063142Y-132457380D02*
X250967904Y-132552619D01*
X250967904Y-132552619D02*
X250777428Y-132647857D01*
X250777428Y-132647857D02*
X250015523Y-132647857D01*
X252015523Y-131600238D02*
X252015523Y-133219285D01*
X252015523Y-133219285D02*
X252110761Y-133409761D01*
X252110761Y-133409761D02*
X252205999Y-133505000D01*
X252205999Y-133505000D02*
X252396475Y-133600238D01*
X252396475Y-133600238D02*
X252777428Y-133600238D01*
X252777428Y-133600238D02*
X252967904Y-133505000D01*
X252967904Y-133505000D02*
X253063142Y-133409761D01*
X253063142Y-133409761D02*
X253158380Y-133219285D01*
X253158380Y-133219285D02*
X253158380Y-131600238D01*
X253825047Y-131600238D02*
X254967904Y-131600238D01*
X254396475Y-133600238D02*
X254396475Y-131600238D01*
X256967905Y-131600238D02*
X258301238Y-131600238D01*
X258301238Y-131600238D02*
X257444095Y-133600238D01*
X138620761Y-177605761D02*
X138525523Y-177701000D01*
X138525523Y-177701000D02*
X138239809Y-177796238D01*
X138239809Y-177796238D02*
X138049333Y-177796238D01*
X138049333Y-177796238D02*
X137763618Y-177701000D01*
X137763618Y-177701000D02*
X137573142Y-177510523D01*
X137573142Y-177510523D02*
X137477904Y-177320047D01*
X137477904Y-177320047D02*
X137382666Y-176939095D01*
X137382666Y-176939095D02*
X137382666Y-176653380D01*
X137382666Y-176653380D02*
X137477904Y-176272428D01*
X137477904Y-176272428D02*
X137573142Y-176081952D01*
X137573142Y-176081952D02*
X137763618Y-175891476D01*
X137763618Y-175891476D02*
X138049333Y-175796238D01*
X138049333Y-175796238D02*
X138239809Y-175796238D01*
X138239809Y-175796238D02*
X138525523Y-175891476D01*
X138525523Y-175891476D02*
X138620761Y-175986714D01*
X140620761Y-177605761D02*
X140525523Y-177701000D01*
X140525523Y-177701000D02*
X140239809Y-177796238D01*
X140239809Y-177796238D02*
X140049333Y-177796238D01*
X140049333Y-177796238D02*
X139763618Y-177701000D01*
X139763618Y-177701000D02*
X139573142Y-177510523D01*
X139573142Y-177510523D02*
X139477904Y-177320047D01*
X139477904Y-177320047D02*
X139382666Y-176939095D01*
X139382666Y-176939095D02*
X139382666Y-176653380D01*
X139382666Y-176653380D02*
X139477904Y-176272428D01*
X139477904Y-176272428D02*
X139573142Y-176081952D01*
X139573142Y-176081952D02*
X139763618Y-175891476D01*
X139763618Y-175891476D02*
X140049333Y-175796238D01*
X140049333Y-175796238D02*
X140239809Y-175796238D01*
X140239809Y-175796238D02*
X140525523Y-175891476D01*
X140525523Y-175891476D02*
X140620761Y-175986714D01*
X142906476Y-175986714D02*
X143001714Y-175891476D01*
X143001714Y-175891476D02*
X143192190Y-175796238D01*
X143192190Y-175796238D02*
X143668381Y-175796238D01*
X143668381Y-175796238D02*
X143858857Y-175891476D01*
X143858857Y-175891476D02*
X143954095Y-175986714D01*
X143954095Y-175986714D02*
X144049333Y-176177190D01*
X144049333Y-176177190D02*
X144049333Y-176367666D01*
X144049333Y-176367666D02*
X143954095Y-176653380D01*
X143954095Y-176653380D02*
X142811238Y-177796238D01*
X142811238Y-177796238D02*
X144049333Y-177796238D01*
X159575904Y-225103761D02*
X159480666Y-225199000D01*
X159480666Y-225199000D02*
X159194952Y-225294238D01*
X159194952Y-225294238D02*
X159004476Y-225294238D01*
X159004476Y-225294238D02*
X158718761Y-225199000D01*
X158718761Y-225199000D02*
X158528285Y-225008523D01*
X158528285Y-225008523D02*
X158433047Y-224818047D01*
X158433047Y-224818047D02*
X158337809Y-224437095D01*
X158337809Y-224437095D02*
X158337809Y-224151380D01*
X158337809Y-224151380D02*
X158433047Y-223770428D01*
X158433047Y-223770428D02*
X158528285Y-223579952D01*
X158528285Y-223579952D02*
X158718761Y-223389476D01*
X158718761Y-223389476D02*
X159004476Y-223294238D01*
X159004476Y-223294238D02*
X159194952Y-223294238D01*
X159194952Y-223294238D02*
X159480666Y-223389476D01*
X159480666Y-223389476D02*
X159575904Y-223484714D01*
X161385428Y-225294238D02*
X160433047Y-225294238D01*
X160433047Y-225294238D02*
X160433047Y-223294238D01*
X162433047Y-223294238D02*
X162814000Y-223294238D01*
X162814000Y-223294238D02*
X163004476Y-223389476D01*
X163004476Y-223389476D02*
X163194952Y-223579952D01*
X163194952Y-223579952D02*
X163290190Y-223960904D01*
X163290190Y-223960904D02*
X163290190Y-224627571D01*
X163290190Y-224627571D02*
X163194952Y-225008523D01*
X163194952Y-225008523D02*
X163004476Y-225199000D01*
X163004476Y-225199000D02*
X162814000Y-225294238D01*
X162814000Y-225294238D02*
X162433047Y-225294238D01*
X162433047Y-225294238D02*
X162242571Y-225199000D01*
X162242571Y-225199000D02*
X162052095Y-225008523D01*
X162052095Y-225008523D02*
X161956857Y-224627571D01*
X161956857Y-224627571D02*
X161956857Y-223960904D01*
X161956857Y-223960904D02*
X162052095Y-223579952D01*
X162052095Y-223579952D02*
X162242571Y-223389476D01*
X162242571Y-223389476D02*
X162433047Y-223294238D01*
X165290190Y-225103761D02*
X165194952Y-225199000D01*
X165194952Y-225199000D02*
X164909238Y-225294238D01*
X164909238Y-225294238D02*
X164718762Y-225294238D01*
X164718762Y-225294238D02*
X164433047Y-225199000D01*
X164433047Y-225199000D02*
X164242571Y-225008523D01*
X164242571Y-225008523D02*
X164147333Y-224818047D01*
X164147333Y-224818047D02*
X164052095Y-224437095D01*
X164052095Y-224437095D02*
X164052095Y-224151380D01*
X164052095Y-224151380D02*
X164147333Y-223770428D01*
X164147333Y-223770428D02*
X164242571Y-223579952D01*
X164242571Y-223579952D02*
X164433047Y-223389476D01*
X164433047Y-223389476D02*
X164718762Y-223294238D01*
X164718762Y-223294238D02*
X164909238Y-223294238D01*
X164909238Y-223294238D02*
X165194952Y-223389476D01*
X165194952Y-223389476D02*
X165290190Y-223484714D01*
X166147333Y-225294238D02*
X166147333Y-223294238D01*
X167290190Y-225294238D02*
X166433047Y-224151380D01*
X167290190Y-223294238D02*
X166147333Y-224437095D01*
X266780189Y-131600238D02*
X267161142Y-131600238D01*
X267161142Y-131600238D02*
X267351618Y-131695476D01*
X267351618Y-131695476D02*
X267542094Y-131885952D01*
X267542094Y-131885952D02*
X267637332Y-132266904D01*
X267637332Y-132266904D02*
X267637332Y-132933571D01*
X267637332Y-132933571D02*
X267542094Y-133314523D01*
X267542094Y-133314523D02*
X267351618Y-133505000D01*
X267351618Y-133505000D02*
X267161142Y-133600238D01*
X267161142Y-133600238D02*
X266780189Y-133600238D01*
X266780189Y-133600238D02*
X266589713Y-133505000D01*
X266589713Y-133505000D02*
X266399237Y-133314523D01*
X266399237Y-133314523D02*
X266303999Y-132933571D01*
X266303999Y-132933571D02*
X266303999Y-132266904D01*
X266303999Y-132266904D02*
X266399237Y-131885952D01*
X266399237Y-131885952D02*
X266589713Y-131695476D01*
X266589713Y-131695476D02*
X266780189Y-131600238D01*
X268494475Y-131600238D02*
X268494475Y-133219285D01*
X268494475Y-133219285D02*
X268589713Y-133409761D01*
X268589713Y-133409761D02*
X268684951Y-133505000D01*
X268684951Y-133505000D02*
X268875427Y-133600238D01*
X268875427Y-133600238D02*
X269256380Y-133600238D01*
X269256380Y-133600238D02*
X269446856Y-133505000D01*
X269446856Y-133505000D02*
X269542094Y-133409761D01*
X269542094Y-133409761D02*
X269637332Y-133219285D01*
X269637332Y-133219285D02*
X269637332Y-131600238D01*
X270303999Y-131600238D02*
X271446856Y-131600238D01*
X270875427Y-133600238D02*
X270875427Y-131600238D01*
X272113523Y-133600238D02*
X272113523Y-131600238D01*
X272113523Y-131600238D02*
X272875428Y-131600238D01*
X272875428Y-131600238D02*
X273065904Y-131695476D01*
X273065904Y-131695476D02*
X273161142Y-131790714D01*
X273161142Y-131790714D02*
X273256380Y-131981190D01*
X273256380Y-131981190D02*
X273256380Y-132266904D01*
X273256380Y-132266904D02*
X273161142Y-132457380D01*
X273161142Y-132457380D02*
X273065904Y-132552619D01*
X273065904Y-132552619D02*
X272875428Y-132647857D01*
X272875428Y-132647857D02*
X272113523Y-132647857D01*
X274113523Y-131600238D02*
X274113523Y-133219285D01*
X274113523Y-133219285D02*
X274208761Y-133409761D01*
X274208761Y-133409761D02*
X274303999Y-133505000D01*
X274303999Y-133505000D02*
X274494475Y-133600238D01*
X274494475Y-133600238D02*
X274875428Y-133600238D01*
X274875428Y-133600238D02*
X275065904Y-133505000D01*
X275065904Y-133505000D02*
X275161142Y-133409761D01*
X275161142Y-133409761D02*
X275256380Y-133219285D01*
X275256380Y-133219285D02*
X275256380Y-131600238D01*
X275923047Y-131600238D02*
X277065904Y-131600238D01*
X276494475Y-133600238D02*
X276494475Y-131600238D01*
X279542095Y-132457380D02*
X279351619Y-132362142D01*
X279351619Y-132362142D02*
X279256381Y-132266904D01*
X279256381Y-132266904D02*
X279161143Y-132076428D01*
X279161143Y-132076428D02*
X279161143Y-131981190D01*
X279161143Y-131981190D02*
X279256381Y-131790714D01*
X279256381Y-131790714D02*
X279351619Y-131695476D01*
X279351619Y-131695476D02*
X279542095Y-131600238D01*
X279542095Y-131600238D02*
X279923048Y-131600238D01*
X279923048Y-131600238D02*
X280113524Y-131695476D01*
X280113524Y-131695476D02*
X280208762Y-131790714D01*
X280208762Y-131790714D02*
X280304000Y-131981190D01*
X280304000Y-131981190D02*
X280304000Y-132076428D01*
X280304000Y-132076428D02*
X280208762Y-132266904D01*
X280208762Y-132266904D02*
X280113524Y-132362142D01*
X280113524Y-132362142D02*
X279923048Y-132457380D01*
X279923048Y-132457380D02*
X279542095Y-132457380D01*
X279542095Y-132457380D02*
X279351619Y-132552619D01*
X279351619Y-132552619D02*
X279256381Y-132647857D01*
X279256381Y-132647857D02*
X279161143Y-132838333D01*
X279161143Y-132838333D02*
X279161143Y-133219285D01*
X279161143Y-133219285D02*
X279256381Y-133409761D01*
X279256381Y-133409761D02*
X279351619Y-133505000D01*
X279351619Y-133505000D02*
X279542095Y-133600238D01*
X279542095Y-133600238D02*
X279923048Y-133600238D01*
X279923048Y-133600238D02*
X280113524Y-133505000D01*
X280113524Y-133505000D02*
X280208762Y-133409761D01*
X280208762Y-133409761D02*
X280304000Y-133219285D01*
X280304000Y-133219285D02*
X280304000Y-132838333D01*
X280304000Y-132838333D02*
X280208762Y-132647857D01*
X280208762Y-132647857D02*
X280113524Y-132552619D01*
X280113524Y-132552619D02*
X279923048Y-132457380D01*
X199533808Y-169192238D02*
X199914761Y-169192238D01*
X199914761Y-169192238D02*
X200105237Y-169287476D01*
X200105237Y-169287476D02*
X200295713Y-169477952D01*
X200295713Y-169477952D02*
X200390951Y-169858904D01*
X200390951Y-169858904D02*
X200390951Y-170525571D01*
X200390951Y-170525571D02*
X200295713Y-170906523D01*
X200295713Y-170906523D02*
X200105237Y-171097000D01*
X200105237Y-171097000D02*
X199914761Y-171192238D01*
X199914761Y-171192238D02*
X199533808Y-171192238D01*
X199533808Y-171192238D02*
X199343332Y-171097000D01*
X199343332Y-171097000D02*
X199152856Y-170906523D01*
X199152856Y-170906523D02*
X199057618Y-170525571D01*
X199057618Y-170525571D02*
X199057618Y-169858904D01*
X199057618Y-169858904D02*
X199152856Y-169477952D01*
X199152856Y-169477952D02*
X199343332Y-169287476D01*
X199343332Y-169287476D02*
X199533808Y-169192238D01*
X201248094Y-169192238D02*
X201248094Y-170811285D01*
X201248094Y-170811285D02*
X201343332Y-171001761D01*
X201343332Y-171001761D02*
X201438570Y-171097000D01*
X201438570Y-171097000D02*
X201629046Y-171192238D01*
X201629046Y-171192238D02*
X202009999Y-171192238D01*
X202009999Y-171192238D02*
X202200475Y-171097000D01*
X202200475Y-171097000D02*
X202295713Y-171001761D01*
X202295713Y-171001761D02*
X202390951Y-170811285D01*
X202390951Y-170811285D02*
X202390951Y-169192238D01*
X203057618Y-169192238D02*
X204200475Y-169192238D01*
X203629046Y-171192238D02*
X203629046Y-169192238D01*
X204867142Y-171192238D02*
X204867142Y-169192238D01*
X204867142Y-169192238D02*
X205629047Y-169192238D01*
X205629047Y-169192238D02*
X205819523Y-169287476D01*
X205819523Y-169287476D02*
X205914761Y-169382714D01*
X205914761Y-169382714D02*
X206009999Y-169573190D01*
X206009999Y-169573190D02*
X206009999Y-169858904D01*
X206009999Y-169858904D02*
X205914761Y-170049380D01*
X205914761Y-170049380D02*
X205819523Y-170144619D01*
X205819523Y-170144619D02*
X205629047Y-170239857D01*
X205629047Y-170239857D02*
X204867142Y-170239857D01*
X206867142Y-169192238D02*
X206867142Y-170811285D01*
X206867142Y-170811285D02*
X206962380Y-171001761D01*
X206962380Y-171001761D02*
X207057618Y-171097000D01*
X207057618Y-171097000D02*
X207248094Y-171192238D01*
X207248094Y-171192238D02*
X207629047Y-171192238D01*
X207629047Y-171192238D02*
X207819523Y-171097000D01*
X207819523Y-171097000D02*
X207914761Y-171001761D01*
X207914761Y-171001761D02*
X208009999Y-170811285D01*
X208009999Y-170811285D02*
X208009999Y-169192238D01*
X208676666Y-169192238D02*
X209819523Y-169192238D01*
X209248094Y-171192238D02*
X209248094Y-169192238D01*
X213057619Y-171192238D02*
X211914762Y-171192238D01*
X212486190Y-171192238D02*
X212486190Y-169192238D01*
X212486190Y-169192238D02*
X212295714Y-169477952D01*
X212295714Y-169477952D02*
X212105238Y-169668428D01*
X212105238Y-169668428D02*
X211914762Y-169763666D01*
X213724286Y-169192238D02*
X214962381Y-169192238D01*
X214962381Y-169192238D02*
X214295714Y-169954142D01*
X214295714Y-169954142D02*
X214581429Y-169954142D01*
X214581429Y-169954142D02*
X214771905Y-170049380D01*
X214771905Y-170049380D02*
X214867143Y-170144619D01*
X214867143Y-170144619D02*
X214962381Y-170335095D01*
X214962381Y-170335095D02*
X214962381Y-170811285D01*
X214962381Y-170811285D02*
X214867143Y-171001761D01*
X214867143Y-171001761D02*
X214771905Y-171097000D01*
X214771905Y-171097000D02*
X214581429Y-171192238D01*
X214581429Y-171192238D02*
X214010000Y-171192238D01*
X214010000Y-171192238D02*
X213819524Y-171097000D01*
X213819524Y-171097000D02*
X213724286Y-171001761D01*
X271208761Y-177605761D02*
X271113523Y-177701000D01*
X271113523Y-177701000D02*
X270827809Y-177796238D01*
X270827809Y-177796238D02*
X270637333Y-177796238D01*
X270637333Y-177796238D02*
X270351618Y-177701000D01*
X270351618Y-177701000D02*
X270161142Y-177510523D01*
X270161142Y-177510523D02*
X270065904Y-177320047D01*
X270065904Y-177320047D02*
X269970666Y-176939095D01*
X269970666Y-176939095D02*
X269970666Y-176653380D01*
X269970666Y-176653380D02*
X270065904Y-176272428D01*
X270065904Y-176272428D02*
X270161142Y-176081952D01*
X270161142Y-176081952D02*
X270351618Y-175891476D01*
X270351618Y-175891476D02*
X270637333Y-175796238D01*
X270637333Y-175796238D02*
X270827809Y-175796238D01*
X270827809Y-175796238D02*
X271113523Y-175891476D01*
X271113523Y-175891476D02*
X271208761Y-175986714D01*
X273208761Y-177605761D02*
X273113523Y-177701000D01*
X273113523Y-177701000D02*
X272827809Y-177796238D01*
X272827809Y-177796238D02*
X272637333Y-177796238D01*
X272637333Y-177796238D02*
X272351618Y-177701000D01*
X272351618Y-177701000D02*
X272161142Y-177510523D01*
X272161142Y-177510523D02*
X272065904Y-177320047D01*
X272065904Y-177320047D02*
X271970666Y-176939095D01*
X271970666Y-176939095D02*
X271970666Y-176653380D01*
X271970666Y-176653380D02*
X272065904Y-176272428D01*
X272065904Y-176272428D02*
X272161142Y-176081952D01*
X272161142Y-176081952D02*
X272351618Y-175891476D01*
X272351618Y-175891476D02*
X272637333Y-175796238D01*
X272637333Y-175796238D02*
X272827809Y-175796238D01*
X272827809Y-175796238D02*
X273113523Y-175891476D01*
X273113523Y-175891476D02*
X273208761Y-175986714D01*
X275875428Y-176653380D02*
X275684952Y-176558142D01*
X275684952Y-176558142D02*
X275589714Y-176462904D01*
X275589714Y-176462904D02*
X275494476Y-176272428D01*
X275494476Y-176272428D02*
X275494476Y-176177190D01*
X275494476Y-176177190D02*
X275589714Y-175986714D01*
X275589714Y-175986714D02*
X275684952Y-175891476D01*
X275684952Y-175891476D02*
X275875428Y-175796238D01*
X275875428Y-175796238D02*
X276256381Y-175796238D01*
X276256381Y-175796238D02*
X276446857Y-175891476D01*
X276446857Y-175891476D02*
X276542095Y-175986714D01*
X276542095Y-175986714D02*
X276637333Y-176177190D01*
X276637333Y-176177190D02*
X276637333Y-176272428D01*
X276637333Y-176272428D02*
X276542095Y-176462904D01*
X276542095Y-176462904D02*
X276446857Y-176558142D01*
X276446857Y-176558142D02*
X276256381Y-176653380D01*
X276256381Y-176653380D02*
X275875428Y-176653380D01*
X275875428Y-176653380D02*
X275684952Y-176748619D01*
X275684952Y-176748619D02*
X275589714Y-176843857D01*
X275589714Y-176843857D02*
X275494476Y-177034333D01*
X275494476Y-177034333D02*
X275494476Y-177415285D01*
X275494476Y-177415285D02*
X275589714Y-177605761D01*
X275589714Y-177605761D02*
X275684952Y-177701000D01*
X275684952Y-177701000D02*
X275875428Y-177796238D01*
X275875428Y-177796238D02*
X276256381Y-177796238D01*
X276256381Y-177796238D02*
X276446857Y-177701000D01*
X276446857Y-177701000D02*
X276542095Y-177605761D01*
X276542095Y-177605761D02*
X276637333Y-177415285D01*
X276637333Y-177415285D02*
X276637333Y-177034333D01*
X276637333Y-177034333D02*
X276542095Y-176843857D01*
X276542095Y-176843857D02*
X276446857Y-176748619D01*
X276446857Y-176748619D02*
X276256381Y-176653380D01*
X112094189Y-169192238D02*
X112475142Y-169192238D01*
X112475142Y-169192238D02*
X112665618Y-169287476D01*
X112665618Y-169287476D02*
X112856094Y-169477952D01*
X112856094Y-169477952D02*
X112951332Y-169858904D01*
X112951332Y-169858904D02*
X112951332Y-170525571D01*
X112951332Y-170525571D02*
X112856094Y-170906523D01*
X112856094Y-170906523D02*
X112665618Y-171097000D01*
X112665618Y-171097000D02*
X112475142Y-171192238D01*
X112475142Y-171192238D02*
X112094189Y-171192238D01*
X112094189Y-171192238D02*
X111903713Y-171097000D01*
X111903713Y-171097000D02*
X111713237Y-170906523D01*
X111713237Y-170906523D02*
X111617999Y-170525571D01*
X111617999Y-170525571D02*
X111617999Y-169858904D01*
X111617999Y-169858904D02*
X111713237Y-169477952D01*
X111713237Y-169477952D02*
X111903713Y-169287476D01*
X111903713Y-169287476D02*
X112094189Y-169192238D01*
X113808475Y-169192238D02*
X113808475Y-170811285D01*
X113808475Y-170811285D02*
X113903713Y-171001761D01*
X113903713Y-171001761D02*
X113998951Y-171097000D01*
X113998951Y-171097000D02*
X114189427Y-171192238D01*
X114189427Y-171192238D02*
X114570380Y-171192238D01*
X114570380Y-171192238D02*
X114760856Y-171097000D01*
X114760856Y-171097000D02*
X114856094Y-171001761D01*
X114856094Y-171001761D02*
X114951332Y-170811285D01*
X114951332Y-170811285D02*
X114951332Y-169192238D01*
X115617999Y-169192238D02*
X116760856Y-169192238D01*
X116189427Y-171192238D02*
X116189427Y-169192238D01*
X117427523Y-171192238D02*
X117427523Y-169192238D01*
X117427523Y-169192238D02*
X118189428Y-169192238D01*
X118189428Y-169192238D02*
X118379904Y-169287476D01*
X118379904Y-169287476D02*
X118475142Y-169382714D01*
X118475142Y-169382714D02*
X118570380Y-169573190D01*
X118570380Y-169573190D02*
X118570380Y-169858904D01*
X118570380Y-169858904D02*
X118475142Y-170049380D01*
X118475142Y-170049380D02*
X118379904Y-170144619D01*
X118379904Y-170144619D02*
X118189428Y-170239857D01*
X118189428Y-170239857D02*
X117427523Y-170239857D01*
X119427523Y-169192238D02*
X119427523Y-170811285D01*
X119427523Y-170811285D02*
X119522761Y-171001761D01*
X119522761Y-171001761D02*
X119617999Y-171097000D01*
X119617999Y-171097000D02*
X119808475Y-171192238D01*
X119808475Y-171192238D02*
X120189428Y-171192238D01*
X120189428Y-171192238D02*
X120379904Y-171097000D01*
X120379904Y-171097000D02*
X120475142Y-171001761D01*
X120475142Y-171001761D02*
X120570380Y-170811285D01*
X120570380Y-170811285D02*
X120570380Y-169192238D01*
X121237047Y-169192238D02*
X122379904Y-169192238D01*
X121808475Y-171192238D02*
X121808475Y-169192238D01*
X124665619Y-171192238D02*
X125046571Y-171192238D01*
X125046571Y-171192238D02*
X125237048Y-171097000D01*
X125237048Y-171097000D02*
X125332286Y-171001761D01*
X125332286Y-171001761D02*
X125522762Y-170716047D01*
X125522762Y-170716047D02*
X125618000Y-170335095D01*
X125618000Y-170335095D02*
X125618000Y-169573190D01*
X125618000Y-169573190D02*
X125522762Y-169382714D01*
X125522762Y-169382714D02*
X125427524Y-169287476D01*
X125427524Y-169287476D02*
X125237048Y-169192238D01*
X125237048Y-169192238D02*
X124856095Y-169192238D01*
X124856095Y-169192238D02*
X124665619Y-169287476D01*
X124665619Y-169287476D02*
X124570381Y-169382714D01*
X124570381Y-169382714D02*
X124475143Y-169573190D01*
X124475143Y-169573190D02*
X124475143Y-170049380D01*
X124475143Y-170049380D02*
X124570381Y-170239857D01*
X124570381Y-170239857D02*
X124665619Y-170335095D01*
X124665619Y-170335095D02*
X124856095Y-170430333D01*
X124856095Y-170430333D02*
X125237048Y-170430333D01*
X125237048Y-170430333D02*
X125427524Y-170335095D01*
X125427524Y-170335095D02*
X125522762Y-170239857D01*
X125522762Y-170239857D02*
X125618000Y-170049380D01*
X177435808Y-169192238D02*
X177816761Y-169192238D01*
X177816761Y-169192238D02*
X178007237Y-169287476D01*
X178007237Y-169287476D02*
X178197713Y-169477952D01*
X178197713Y-169477952D02*
X178292951Y-169858904D01*
X178292951Y-169858904D02*
X178292951Y-170525571D01*
X178292951Y-170525571D02*
X178197713Y-170906523D01*
X178197713Y-170906523D02*
X178007237Y-171097000D01*
X178007237Y-171097000D02*
X177816761Y-171192238D01*
X177816761Y-171192238D02*
X177435808Y-171192238D01*
X177435808Y-171192238D02*
X177245332Y-171097000D01*
X177245332Y-171097000D02*
X177054856Y-170906523D01*
X177054856Y-170906523D02*
X176959618Y-170525571D01*
X176959618Y-170525571D02*
X176959618Y-169858904D01*
X176959618Y-169858904D02*
X177054856Y-169477952D01*
X177054856Y-169477952D02*
X177245332Y-169287476D01*
X177245332Y-169287476D02*
X177435808Y-169192238D01*
X179150094Y-169192238D02*
X179150094Y-170811285D01*
X179150094Y-170811285D02*
X179245332Y-171001761D01*
X179245332Y-171001761D02*
X179340570Y-171097000D01*
X179340570Y-171097000D02*
X179531046Y-171192238D01*
X179531046Y-171192238D02*
X179911999Y-171192238D01*
X179911999Y-171192238D02*
X180102475Y-171097000D01*
X180102475Y-171097000D02*
X180197713Y-171001761D01*
X180197713Y-171001761D02*
X180292951Y-170811285D01*
X180292951Y-170811285D02*
X180292951Y-169192238D01*
X180959618Y-169192238D02*
X182102475Y-169192238D01*
X181531046Y-171192238D02*
X181531046Y-169192238D01*
X182769142Y-171192238D02*
X182769142Y-169192238D01*
X182769142Y-169192238D02*
X183531047Y-169192238D01*
X183531047Y-169192238D02*
X183721523Y-169287476D01*
X183721523Y-169287476D02*
X183816761Y-169382714D01*
X183816761Y-169382714D02*
X183911999Y-169573190D01*
X183911999Y-169573190D02*
X183911999Y-169858904D01*
X183911999Y-169858904D02*
X183816761Y-170049380D01*
X183816761Y-170049380D02*
X183721523Y-170144619D01*
X183721523Y-170144619D02*
X183531047Y-170239857D01*
X183531047Y-170239857D02*
X182769142Y-170239857D01*
X184769142Y-169192238D02*
X184769142Y-170811285D01*
X184769142Y-170811285D02*
X184864380Y-171001761D01*
X184864380Y-171001761D02*
X184959618Y-171097000D01*
X184959618Y-171097000D02*
X185150094Y-171192238D01*
X185150094Y-171192238D02*
X185531047Y-171192238D01*
X185531047Y-171192238D02*
X185721523Y-171097000D01*
X185721523Y-171097000D02*
X185816761Y-171001761D01*
X185816761Y-171001761D02*
X185911999Y-170811285D01*
X185911999Y-170811285D02*
X185911999Y-169192238D01*
X186578666Y-169192238D02*
X187721523Y-169192238D01*
X187150094Y-171192238D02*
X187150094Y-169192238D01*
X190959619Y-171192238D02*
X189816762Y-171192238D01*
X190388190Y-171192238D02*
X190388190Y-169192238D01*
X190388190Y-169192238D02*
X190197714Y-169477952D01*
X190197714Y-169477952D02*
X190007238Y-169668428D01*
X190007238Y-169668428D02*
X189816762Y-169763666D01*
X191721524Y-169382714D02*
X191816762Y-169287476D01*
X191816762Y-169287476D02*
X192007238Y-169192238D01*
X192007238Y-169192238D02*
X192483429Y-169192238D01*
X192483429Y-169192238D02*
X192673905Y-169287476D01*
X192673905Y-169287476D02*
X192769143Y-169382714D01*
X192769143Y-169382714D02*
X192864381Y-169573190D01*
X192864381Y-169573190D02*
X192864381Y-169763666D01*
X192864381Y-169763666D02*
X192769143Y-170049380D01*
X192769143Y-170049380D02*
X191626286Y-171192238D01*
X191626286Y-171192238D02*
X192864381Y-171192238D01*
X155337808Y-169192238D02*
X155718761Y-169192238D01*
X155718761Y-169192238D02*
X155909237Y-169287476D01*
X155909237Y-169287476D02*
X156099713Y-169477952D01*
X156099713Y-169477952D02*
X156194951Y-169858904D01*
X156194951Y-169858904D02*
X156194951Y-170525571D01*
X156194951Y-170525571D02*
X156099713Y-170906523D01*
X156099713Y-170906523D02*
X155909237Y-171097000D01*
X155909237Y-171097000D02*
X155718761Y-171192238D01*
X155718761Y-171192238D02*
X155337808Y-171192238D01*
X155337808Y-171192238D02*
X155147332Y-171097000D01*
X155147332Y-171097000D02*
X154956856Y-170906523D01*
X154956856Y-170906523D02*
X154861618Y-170525571D01*
X154861618Y-170525571D02*
X154861618Y-169858904D01*
X154861618Y-169858904D02*
X154956856Y-169477952D01*
X154956856Y-169477952D02*
X155147332Y-169287476D01*
X155147332Y-169287476D02*
X155337808Y-169192238D01*
X157052094Y-169192238D02*
X157052094Y-170811285D01*
X157052094Y-170811285D02*
X157147332Y-171001761D01*
X157147332Y-171001761D02*
X157242570Y-171097000D01*
X157242570Y-171097000D02*
X157433046Y-171192238D01*
X157433046Y-171192238D02*
X157813999Y-171192238D01*
X157813999Y-171192238D02*
X158004475Y-171097000D01*
X158004475Y-171097000D02*
X158099713Y-171001761D01*
X158099713Y-171001761D02*
X158194951Y-170811285D01*
X158194951Y-170811285D02*
X158194951Y-169192238D01*
X158861618Y-169192238D02*
X160004475Y-169192238D01*
X159433046Y-171192238D02*
X159433046Y-169192238D01*
X160671142Y-171192238D02*
X160671142Y-169192238D01*
X160671142Y-169192238D02*
X161433047Y-169192238D01*
X161433047Y-169192238D02*
X161623523Y-169287476D01*
X161623523Y-169287476D02*
X161718761Y-169382714D01*
X161718761Y-169382714D02*
X161813999Y-169573190D01*
X161813999Y-169573190D02*
X161813999Y-169858904D01*
X161813999Y-169858904D02*
X161718761Y-170049380D01*
X161718761Y-170049380D02*
X161623523Y-170144619D01*
X161623523Y-170144619D02*
X161433047Y-170239857D01*
X161433047Y-170239857D02*
X160671142Y-170239857D01*
X162671142Y-169192238D02*
X162671142Y-170811285D01*
X162671142Y-170811285D02*
X162766380Y-171001761D01*
X162766380Y-171001761D02*
X162861618Y-171097000D01*
X162861618Y-171097000D02*
X163052094Y-171192238D01*
X163052094Y-171192238D02*
X163433047Y-171192238D01*
X163433047Y-171192238D02*
X163623523Y-171097000D01*
X163623523Y-171097000D02*
X163718761Y-171001761D01*
X163718761Y-171001761D02*
X163813999Y-170811285D01*
X163813999Y-170811285D02*
X163813999Y-169192238D01*
X164480666Y-169192238D02*
X165623523Y-169192238D01*
X165052094Y-171192238D02*
X165052094Y-169192238D01*
X168861619Y-171192238D02*
X167718762Y-171192238D01*
X168290190Y-171192238D02*
X168290190Y-169192238D01*
X168290190Y-169192238D02*
X168099714Y-169477952D01*
X168099714Y-169477952D02*
X167909238Y-169668428D01*
X167909238Y-169668428D02*
X167718762Y-169763666D01*
X170766381Y-171192238D02*
X169623524Y-171192238D01*
X170194952Y-171192238D02*
X170194952Y-169192238D01*
X170194952Y-169192238D02*
X170004476Y-169477952D01*
X170004476Y-169477952D02*
X169814000Y-169668428D01*
X169814000Y-169668428D02*
X169623524Y-169763666D01*
X157861618Y-99723000D02*
X158147332Y-99818238D01*
X158147332Y-99818238D02*
X158623523Y-99818238D01*
X158623523Y-99818238D02*
X158813999Y-99723000D01*
X158813999Y-99723000D02*
X158909237Y-99627761D01*
X158909237Y-99627761D02*
X159004475Y-99437285D01*
X159004475Y-99437285D02*
X159004475Y-99246809D01*
X159004475Y-99246809D02*
X158909237Y-99056333D01*
X158909237Y-99056333D02*
X158813999Y-98961095D01*
X158813999Y-98961095D02*
X158623523Y-98865857D01*
X158623523Y-98865857D02*
X158242570Y-98770619D01*
X158242570Y-98770619D02*
X158052094Y-98675380D01*
X158052094Y-98675380D02*
X157956856Y-98580142D01*
X157956856Y-98580142D02*
X157861618Y-98389666D01*
X157861618Y-98389666D02*
X157861618Y-98199190D01*
X157861618Y-98199190D02*
X157956856Y-98008714D01*
X157956856Y-98008714D02*
X158052094Y-97913476D01*
X158052094Y-97913476D02*
X158242570Y-97818238D01*
X158242570Y-97818238D02*
X158718761Y-97818238D01*
X158718761Y-97818238D02*
X159004475Y-97913476D01*
X159861618Y-98770619D02*
X160528285Y-98770619D01*
X160813999Y-99818238D02*
X159861618Y-99818238D01*
X159861618Y-99818238D02*
X159861618Y-97818238D01*
X159861618Y-97818238D02*
X160813999Y-97818238D01*
X162623523Y-99818238D02*
X161671142Y-99818238D01*
X161671142Y-99818238D02*
X161671142Y-97818238D01*
X163290190Y-98770619D02*
X163956857Y-98770619D01*
X164242571Y-99818238D02*
X163290190Y-99818238D01*
X163290190Y-99818238D02*
X163290190Y-97818238D01*
X163290190Y-97818238D02*
X164242571Y-97818238D01*
X166242571Y-99627761D02*
X166147333Y-99723000D01*
X166147333Y-99723000D02*
X165861619Y-99818238D01*
X165861619Y-99818238D02*
X165671143Y-99818238D01*
X165671143Y-99818238D02*
X165385428Y-99723000D01*
X165385428Y-99723000D02*
X165194952Y-99532523D01*
X165194952Y-99532523D02*
X165099714Y-99342047D01*
X165099714Y-99342047D02*
X165004476Y-98961095D01*
X165004476Y-98961095D02*
X165004476Y-98675380D01*
X165004476Y-98675380D02*
X165099714Y-98294428D01*
X165099714Y-98294428D02*
X165194952Y-98103952D01*
X165194952Y-98103952D02*
X165385428Y-97913476D01*
X165385428Y-97913476D02*
X165671143Y-97818238D01*
X165671143Y-97818238D02*
X165861619Y-97818238D01*
X165861619Y-97818238D02*
X166147333Y-97913476D01*
X166147333Y-97913476D02*
X166242571Y-98008714D01*
X166814000Y-97818238D02*
X167956857Y-97818238D01*
X167385428Y-99818238D02*
X167385428Y-97818238D01*
X221631808Y-169192238D02*
X222012761Y-169192238D01*
X222012761Y-169192238D02*
X222203237Y-169287476D01*
X222203237Y-169287476D02*
X222393713Y-169477952D01*
X222393713Y-169477952D02*
X222488951Y-169858904D01*
X222488951Y-169858904D02*
X222488951Y-170525571D01*
X222488951Y-170525571D02*
X222393713Y-170906523D01*
X222393713Y-170906523D02*
X222203237Y-171097000D01*
X222203237Y-171097000D02*
X222012761Y-171192238D01*
X222012761Y-171192238D02*
X221631808Y-171192238D01*
X221631808Y-171192238D02*
X221441332Y-171097000D01*
X221441332Y-171097000D02*
X221250856Y-170906523D01*
X221250856Y-170906523D02*
X221155618Y-170525571D01*
X221155618Y-170525571D02*
X221155618Y-169858904D01*
X221155618Y-169858904D02*
X221250856Y-169477952D01*
X221250856Y-169477952D02*
X221441332Y-169287476D01*
X221441332Y-169287476D02*
X221631808Y-169192238D01*
X223346094Y-169192238D02*
X223346094Y-170811285D01*
X223346094Y-170811285D02*
X223441332Y-171001761D01*
X223441332Y-171001761D02*
X223536570Y-171097000D01*
X223536570Y-171097000D02*
X223727046Y-171192238D01*
X223727046Y-171192238D02*
X224107999Y-171192238D01*
X224107999Y-171192238D02*
X224298475Y-171097000D01*
X224298475Y-171097000D02*
X224393713Y-171001761D01*
X224393713Y-171001761D02*
X224488951Y-170811285D01*
X224488951Y-170811285D02*
X224488951Y-169192238D01*
X225155618Y-169192238D02*
X226298475Y-169192238D01*
X225727046Y-171192238D02*
X225727046Y-169192238D01*
X226965142Y-171192238D02*
X226965142Y-169192238D01*
X226965142Y-169192238D02*
X227727047Y-169192238D01*
X227727047Y-169192238D02*
X227917523Y-169287476D01*
X227917523Y-169287476D02*
X228012761Y-169382714D01*
X228012761Y-169382714D02*
X228107999Y-169573190D01*
X228107999Y-169573190D02*
X228107999Y-169858904D01*
X228107999Y-169858904D02*
X228012761Y-170049380D01*
X228012761Y-170049380D02*
X227917523Y-170144619D01*
X227917523Y-170144619D02*
X227727047Y-170239857D01*
X227727047Y-170239857D02*
X226965142Y-170239857D01*
X228965142Y-169192238D02*
X228965142Y-170811285D01*
X228965142Y-170811285D02*
X229060380Y-171001761D01*
X229060380Y-171001761D02*
X229155618Y-171097000D01*
X229155618Y-171097000D02*
X229346094Y-171192238D01*
X229346094Y-171192238D02*
X229727047Y-171192238D01*
X229727047Y-171192238D02*
X229917523Y-171097000D01*
X229917523Y-171097000D02*
X230012761Y-171001761D01*
X230012761Y-171001761D02*
X230107999Y-170811285D01*
X230107999Y-170811285D02*
X230107999Y-169192238D01*
X230774666Y-169192238D02*
X231917523Y-169192238D01*
X231346094Y-171192238D02*
X231346094Y-169192238D01*
X235155619Y-171192238D02*
X234012762Y-171192238D01*
X234584190Y-171192238D02*
X234584190Y-169192238D01*
X234584190Y-169192238D02*
X234393714Y-169477952D01*
X234393714Y-169477952D02*
X234203238Y-169668428D01*
X234203238Y-169668428D02*
X234012762Y-169763666D01*
X236869905Y-169858904D02*
X236869905Y-171192238D01*
X236393714Y-169097000D02*
X235917524Y-170525571D01*
X235917524Y-170525571D02*
X237155619Y-170525571D01*
X112094189Y-131600238D02*
X112475142Y-131600238D01*
X112475142Y-131600238D02*
X112665618Y-131695476D01*
X112665618Y-131695476D02*
X112856094Y-131885952D01*
X112856094Y-131885952D02*
X112951332Y-132266904D01*
X112951332Y-132266904D02*
X112951332Y-132933571D01*
X112951332Y-132933571D02*
X112856094Y-133314523D01*
X112856094Y-133314523D02*
X112665618Y-133505000D01*
X112665618Y-133505000D02*
X112475142Y-133600238D01*
X112475142Y-133600238D02*
X112094189Y-133600238D01*
X112094189Y-133600238D02*
X111903713Y-133505000D01*
X111903713Y-133505000D02*
X111713237Y-133314523D01*
X111713237Y-133314523D02*
X111617999Y-132933571D01*
X111617999Y-132933571D02*
X111617999Y-132266904D01*
X111617999Y-132266904D02*
X111713237Y-131885952D01*
X111713237Y-131885952D02*
X111903713Y-131695476D01*
X111903713Y-131695476D02*
X112094189Y-131600238D01*
X113808475Y-131600238D02*
X113808475Y-133219285D01*
X113808475Y-133219285D02*
X113903713Y-133409761D01*
X113903713Y-133409761D02*
X113998951Y-133505000D01*
X113998951Y-133505000D02*
X114189427Y-133600238D01*
X114189427Y-133600238D02*
X114570380Y-133600238D01*
X114570380Y-133600238D02*
X114760856Y-133505000D01*
X114760856Y-133505000D02*
X114856094Y-133409761D01*
X114856094Y-133409761D02*
X114951332Y-133219285D01*
X114951332Y-133219285D02*
X114951332Y-131600238D01*
X115617999Y-131600238D02*
X116760856Y-131600238D01*
X116189427Y-133600238D02*
X116189427Y-131600238D01*
X117427523Y-133600238D02*
X117427523Y-131600238D01*
X117427523Y-131600238D02*
X118189428Y-131600238D01*
X118189428Y-131600238D02*
X118379904Y-131695476D01*
X118379904Y-131695476D02*
X118475142Y-131790714D01*
X118475142Y-131790714D02*
X118570380Y-131981190D01*
X118570380Y-131981190D02*
X118570380Y-132266904D01*
X118570380Y-132266904D02*
X118475142Y-132457380D01*
X118475142Y-132457380D02*
X118379904Y-132552619D01*
X118379904Y-132552619D02*
X118189428Y-132647857D01*
X118189428Y-132647857D02*
X117427523Y-132647857D01*
X119427523Y-131600238D02*
X119427523Y-133219285D01*
X119427523Y-133219285D02*
X119522761Y-133409761D01*
X119522761Y-133409761D02*
X119617999Y-133505000D01*
X119617999Y-133505000D02*
X119808475Y-133600238D01*
X119808475Y-133600238D02*
X120189428Y-133600238D01*
X120189428Y-133600238D02*
X120379904Y-133505000D01*
X120379904Y-133505000D02*
X120475142Y-133409761D01*
X120475142Y-133409761D02*
X120570380Y-133219285D01*
X120570380Y-133219285D02*
X120570380Y-131600238D01*
X121237047Y-131600238D02*
X122379904Y-131600238D01*
X121808475Y-133600238D02*
X121808475Y-131600238D01*
X125618000Y-133600238D02*
X124475143Y-133600238D01*
X125046571Y-133600238D02*
X125046571Y-131600238D01*
X125046571Y-131600238D02*
X124856095Y-131885952D01*
X124856095Y-131885952D02*
X124665619Y-132076428D01*
X124665619Y-132076428D02*
X124475143Y-132171666D01*
X133239808Y-169192238D02*
X133620761Y-169192238D01*
X133620761Y-169192238D02*
X133811237Y-169287476D01*
X133811237Y-169287476D02*
X134001713Y-169477952D01*
X134001713Y-169477952D02*
X134096951Y-169858904D01*
X134096951Y-169858904D02*
X134096951Y-170525571D01*
X134096951Y-170525571D02*
X134001713Y-170906523D01*
X134001713Y-170906523D02*
X133811237Y-171097000D01*
X133811237Y-171097000D02*
X133620761Y-171192238D01*
X133620761Y-171192238D02*
X133239808Y-171192238D01*
X133239808Y-171192238D02*
X133049332Y-171097000D01*
X133049332Y-171097000D02*
X132858856Y-170906523D01*
X132858856Y-170906523D02*
X132763618Y-170525571D01*
X132763618Y-170525571D02*
X132763618Y-169858904D01*
X132763618Y-169858904D02*
X132858856Y-169477952D01*
X132858856Y-169477952D02*
X133049332Y-169287476D01*
X133049332Y-169287476D02*
X133239808Y-169192238D01*
X134954094Y-169192238D02*
X134954094Y-170811285D01*
X134954094Y-170811285D02*
X135049332Y-171001761D01*
X135049332Y-171001761D02*
X135144570Y-171097000D01*
X135144570Y-171097000D02*
X135335046Y-171192238D01*
X135335046Y-171192238D02*
X135715999Y-171192238D01*
X135715999Y-171192238D02*
X135906475Y-171097000D01*
X135906475Y-171097000D02*
X136001713Y-171001761D01*
X136001713Y-171001761D02*
X136096951Y-170811285D01*
X136096951Y-170811285D02*
X136096951Y-169192238D01*
X136763618Y-169192238D02*
X137906475Y-169192238D01*
X137335046Y-171192238D02*
X137335046Y-169192238D01*
X138573142Y-171192238D02*
X138573142Y-169192238D01*
X138573142Y-169192238D02*
X139335047Y-169192238D01*
X139335047Y-169192238D02*
X139525523Y-169287476D01*
X139525523Y-169287476D02*
X139620761Y-169382714D01*
X139620761Y-169382714D02*
X139715999Y-169573190D01*
X139715999Y-169573190D02*
X139715999Y-169858904D01*
X139715999Y-169858904D02*
X139620761Y-170049380D01*
X139620761Y-170049380D02*
X139525523Y-170144619D01*
X139525523Y-170144619D02*
X139335047Y-170239857D01*
X139335047Y-170239857D02*
X138573142Y-170239857D01*
X140573142Y-169192238D02*
X140573142Y-170811285D01*
X140573142Y-170811285D02*
X140668380Y-171001761D01*
X140668380Y-171001761D02*
X140763618Y-171097000D01*
X140763618Y-171097000D02*
X140954094Y-171192238D01*
X140954094Y-171192238D02*
X141335047Y-171192238D01*
X141335047Y-171192238D02*
X141525523Y-171097000D01*
X141525523Y-171097000D02*
X141620761Y-171001761D01*
X141620761Y-171001761D02*
X141715999Y-170811285D01*
X141715999Y-170811285D02*
X141715999Y-169192238D01*
X142382666Y-169192238D02*
X143525523Y-169192238D01*
X142954094Y-171192238D02*
X142954094Y-169192238D01*
X146763619Y-171192238D02*
X145620762Y-171192238D01*
X146192190Y-171192238D02*
X146192190Y-169192238D01*
X146192190Y-169192238D02*
X146001714Y-169477952D01*
X146001714Y-169477952D02*
X145811238Y-169668428D01*
X145811238Y-169668428D02*
X145620762Y-169763666D01*
X148001714Y-169192238D02*
X148192191Y-169192238D01*
X148192191Y-169192238D02*
X148382667Y-169287476D01*
X148382667Y-169287476D02*
X148477905Y-169382714D01*
X148477905Y-169382714D02*
X148573143Y-169573190D01*
X148573143Y-169573190D02*
X148668381Y-169954142D01*
X148668381Y-169954142D02*
X148668381Y-170430333D01*
X148668381Y-170430333D02*
X148573143Y-170811285D01*
X148573143Y-170811285D02*
X148477905Y-171001761D01*
X148477905Y-171001761D02*
X148382667Y-171097000D01*
X148382667Y-171097000D02*
X148192191Y-171192238D01*
X148192191Y-171192238D02*
X148001714Y-171192238D01*
X148001714Y-171192238D02*
X147811238Y-171097000D01*
X147811238Y-171097000D02*
X147716000Y-171001761D01*
X147716000Y-171001761D02*
X147620762Y-170811285D01*
X147620762Y-170811285D02*
X147525524Y-170430333D01*
X147525524Y-170430333D02*
X147525524Y-169954142D01*
X147525524Y-169954142D02*
X147620762Y-169573190D01*
X147620762Y-169573190D02*
X147716000Y-169382714D01*
X147716000Y-169382714D02*
X147811238Y-169287476D01*
X147811238Y-169287476D02*
X148001714Y-169192238D01*
X156290189Y-131600238D02*
X156671142Y-131600238D01*
X156671142Y-131600238D02*
X156861618Y-131695476D01*
X156861618Y-131695476D02*
X157052094Y-131885952D01*
X157052094Y-131885952D02*
X157147332Y-132266904D01*
X157147332Y-132266904D02*
X157147332Y-132933571D01*
X157147332Y-132933571D02*
X157052094Y-133314523D01*
X157052094Y-133314523D02*
X156861618Y-133505000D01*
X156861618Y-133505000D02*
X156671142Y-133600238D01*
X156671142Y-133600238D02*
X156290189Y-133600238D01*
X156290189Y-133600238D02*
X156099713Y-133505000D01*
X156099713Y-133505000D02*
X155909237Y-133314523D01*
X155909237Y-133314523D02*
X155813999Y-132933571D01*
X155813999Y-132933571D02*
X155813999Y-132266904D01*
X155813999Y-132266904D02*
X155909237Y-131885952D01*
X155909237Y-131885952D02*
X156099713Y-131695476D01*
X156099713Y-131695476D02*
X156290189Y-131600238D01*
X158004475Y-131600238D02*
X158004475Y-133219285D01*
X158004475Y-133219285D02*
X158099713Y-133409761D01*
X158099713Y-133409761D02*
X158194951Y-133505000D01*
X158194951Y-133505000D02*
X158385427Y-133600238D01*
X158385427Y-133600238D02*
X158766380Y-133600238D01*
X158766380Y-133600238D02*
X158956856Y-133505000D01*
X158956856Y-133505000D02*
X159052094Y-133409761D01*
X159052094Y-133409761D02*
X159147332Y-133219285D01*
X159147332Y-133219285D02*
X159147332Y-131600238D01*
X159813999Y-131600238D02*
X160956856Y-131600238D01*
X160385427Y-133600238D02*
X160385427Y-131600238D01*
X161623523Y-133600238D02*
X161623523Y-131600238D01*
X161623523Y-131600238D02*
X162385428Y-131600238D01*
X162385428Y-131600238D02*
X162575904Y-131695476D01*
X162575904Y-131695476D02*
X162671142Y-131790714D01*
X162671142Y-131790714D02*
X162766380Y-131981190D01*
X162766380Y-131981190D02*
X162766380Y-132266904D01*
X162766380Y-132266904D02*
X162671142Y-132457380D01*
X162671142Y-132457380D02*
X162575904Y-132552619D01*
X162575904Y-132552619D02*
X162385428Y-132647857D01*
X162385428Y-132647857D02*
X161623523Y-132647857D01*
X163623523Y-131600238D02*
X163623523Y-133219285D01*
X163623523Y-133219285D02*
X163718761Y-133409761D01*
X163718761Y-133409761D02*
X163813999Y-133505000D01*
X163813999Y-133505000D02*
X164004475Y-133600238D01*
X164004475Y-133600238D02*
X164385428Y-133600238D01*
X164385428Y-133600238D02*
X164575904Y-133505000D01*
X164575904Y-133505000D02*
X164671142Y-133409761D01*
X164671142Y-133409761D02*
X164766380Y-133219285D01*
X164766380Y-133219285D02*
X164766380Y-131600238D01*
X165433047Y-131600238D02*
X166575904Y-131600238D01*
X166004475Y-133600238D02*
X166004475Y-131600238D01*
X168575905Y-131600238D02*
X169814000Y-131600238D01*
X169814000Y-131600238D02*
X169147333Y-132362142D01*
X169147333Y-132362142D02*
X169433048Y-132362142D01*
X169433048Y-132362142D02*
X169623524Y-132457380D01*
X169623524Y-132457380D02*
X169718762Y-132552619D01*
X169718762Y-132552619D02*
X169814000Y-132743095D01*
X169814000Y-132743095D02*
X169814000Y-133219285D01*
X169814000Y-133219285D02*
X169718762Y-133409761D01*
X169718762Y-133409761D02*
X169623524Y-133505000D01*
X169623524Y-133505000D02*
X169433048Y-133600238D01*
X169433048Y-133600238D02*
X168861619Y-133600238D01*
X168861619Y-133600238D02*
X168671143Y-133505000D01*
X168671143Y-133505000D02*
X168575905Y-133409761D01*
D11*
X127072190Y-242638209D02*
X126595999Y-243114400D01*
X126595999Y-243114400D02*
X125167428Y-243590590D01*
X125167428Y-243590590D02*
X124215047Y-243590590D01*
X124215047Y-243590590D02*
X122786475Y-243114400D01*
X122786475Y-243114400D02*
X121834094Y-242162019D01*
X121834094Y-242162019D02*
X121357904Y-241209638D01*
X121357904Y-241209638D02*
X120881713Y-239304876D01*
X120881713Y-239304876D02*
X120881713Y-237876304D01*
X120881713Y-237876304D02*
X121357904Y-235971542D01*
X121357904Y-235971542D02*
X121834094Y-235019161D01*
X121834094Y-235019161D02*
X122786475Y-234066780D01*
X122786475Y-234066780D02*
X124215047Y-233590590D01*
X124215047Y-233590590D02*
X125167428Y-233590590D01*
X125167428Y-233590590D02*
X126595999Y-234066780D01*
X126595999Y-234066780D02*
X127072190Y-234542971D01*
X131357904Y-243590590D02*
X131357904Y-233590590D01*
X141834095Y-243590590D02*
X138500761Y-238828685D01*
X136119809Y-243590590D02*
X136119809Y-233590590D01*
X136119809Y-233590590D02*
X139929333Y-233590590D01*
X139929333Y-233590590D02*
X140881714Y-234066780D01*
X140881714Y-234066780D02*
X141357904Y-234542971D01*
X141357904Y-234542971D02*
X141834095Y-235495352D01*
X141834095Y-235495352D02*
X141834095Y-236923923D01*
X141834095Y-236923923D02*
X141357904Y-237876304D01*
X141357904Y-237876304D02*
X140881714Y-238352495D01*
X140881714Y-238352495D02*
X139929333Y-238828685D01*
X139929333Y-238828685D02*
X136119809Y-238828685D01*
X151834095Y-242638209D02*
X151357904Y-243114400D01*
X151357904Y-243114400D02*
X149929333Y-243590590D01*
X149929333Y-243590590D02*
X148976952Y-243590590D01*
X148976952Y-243590590D02*
X147548380Y-243114400D01*
X147548380Y-243114400D02*
X146595999Y-242162019D01*
X146595999Y-242162019D02*
X146119809Y-241209638D01*
X146119809Y-241209638D02*
X145643618Y-239304876D01*
X145643618Y-239304876D02*
X145643618Y-237876304D01*
X145643618Y-237876304D02*
X146119809Y-235971542D01*
X146119809Y-235971542D02*
X146595999Y-235019161D01*
X146595999Y-235019161D02*
X147548380Y-234066780D01*
X147548380Y-234066780D02*
X148976952Y-233590590D01*
X148976952Y-233590590D02*
X149929333Y-233590590D01*
X149929333Y-233590590D02*
X151357904Y-234066780D01*
X151357904Y-234066780D02*
X151834095Y-234542971D01*
X156119809Y-233590590D02*
X156119809Y-241685828D01*
X156119809Y-241685828D02*
X156595999Y-242638209D01*
X156595999Y-242638209D02*
X157072190Y-243114400D01*
X157072190Y-243114400D02*
X158024571Y-243590590D01*
X158024571Y-243590590D02*
X159929333Y-243590590D01*
X159929333Y-243590590D02*
X160881714Y-243114400D01*
X160881714Y-243114400D02*
X161357904Y-242638209D01*
X161357904Y-242638209D02*
X161834095Y-241685828D01*
X161834095Y-241685828D02*
X161834095Y-233590590D01*
X166595999Y-243590590D02*
X166595999Y-233590590D01*
X169929332Y-233590590D02*
X175643618Y-233590590D01*
X172786475Y-243590590D02*
X172786475Y-233590590D01*
X178500761Y-243114400D02*
X179929333Y-243590590D01*
X179929333Y-243590590D02*
X182310285Y-243590590D01*
X182310285Y-243590590D02*
X183262666Y-243114400D01*
X183262666Y-243114400D02*
X183738857Y-242638209D01*
X183738857Y-242638209D02*
X184215047Y-241685828D01*
X184215047Y-241685828D02*
X184215047Y-240733447D01*
X184215047Y-240733447D02*
X183738857Y-239781066D01*
X183738857Y-239781066D02*
X183262666Y-239304876D01*
X183262666Y-239304876D02*
X182310285Y-238828685D01*
X182310285Y-238828685D02*
X180405523Y-238352495D01*
X180405523Y-238352495D02*
X179453142Y-237876304D01*
X179453142Y-237876304D02*
X178976952Y-237400114D01*
X178976952Y-237400114D02*
X178500761Y-236447733D01*
X178500761Y-236447733D02*
X178500761Y-235495352D01*
X178500761Y-235495352D02*
X178976952Y-234542971D01*
X178976952Y-234542971D02*
X179453142Y-234066780D01*
X179453142Y-234066780D02*
X180405523Y-233590590D01*
X180405523Y-233590590D02*
X182786476Y-233590590D01*
X182786476Y-233590590D02*
X184215047Y-234066780D01*
X204215048Y-243590590D02*
X203738858Y-243590590D01*
X203738858Y-243590590D02*
X202786477Y-243114400D01*
X202786477Y-243114400D02*
X201357905Y-241685828D01*
X201357905Y-241685828D02*
X198976953Y-238828685D01*
X198976953Y-238828685D02*
X198024572Y-237400114D01*
X198024572Y-237400114D02*
X197548381Y-235971542D01*
X197548381Y-235971542D02*
X197548381Y-235019161D01*
X197548381Y-235019161D02*
X198024572Y-234066780D01*
X198024572Y-234066780D02*
X198976953Y-233590590D01*
X198976953Y-233590590D02*
X199453143Y-233590590D01*
X199453143Y-233590590D02*
X200405524Y-234066780D01*
X200405524Y-234066780D02*
X200881715Y-235019161D01*
X200881715Y-235019161D02*
X200881715Y-235495352D01*
X200881715Y-235495352D02*
X200405524Y-236447733D01*
X200405524Y-236447733D02*
X199929334Y-236923923D01*
X199929334Y-236923923D02*
X197072191Y-238828685D01*
X197072191Y-238828685D02*
X196596000Y-239304876D01*
X196596000Y-239304876D02*
X196119810Y-240257257D01*
X196119810Y-240257257D02*
X196119810Y-241685828D01*
X196119810Y-241685828D02*
X196596000Y-242638209D01*
X196596000Y-242638209D02*
X197072191Y-243114400D01*
X197072191Y-243114400D02*
X198024572Y-243590590D01*
X198024572Y-243590590D02*
X199453143Y-243590590D01*
X199453143Y-243590590D02*
X200405524Y-243114400D01*
X200405524Y-243114400D02*
X200881715Y-242638209D01*
X200881715Y-242638209D02*
X202310286Y-240733447D01*
X202310286Y-240733447D02*
X202786477Y-239304876D01*
X202786477Y-239304876D02*
X202786477Y-238352495D01*
X215643619Y-243114400D02*
X217072191Y-243590590D01*
X217072191Y-243590590D02*
X219453143Y-243590590D01*
X219453143Y-243590590D02*
X220405524Y-243114400D01*
X220405524Y-243114400D02*
X220881715Y-242638209D01*
X220881715Y-242638209D02*
X221357905Y-241685828D01*
X221357905Y-241685828D02*
X221357905Y-240733447D01*
X221357905Y-240733447D02*
X220881715Y-239781066D01*
X220881715Y-239781066D02*
X220405524Y-239304876D01*
X220405524Y-239304876D02*
X219453143Y-238828685D01*
X219453143Y-238828685D02*
X217548381Y-238352495D01*
X217548381Y-238352495D02*
X216596000Y-237876304D01*
X216596000Y-237876304D02*
X216119810Y-237400114D01*
X216119810Y-237400114D02*
X215643619Y-236447733D01*
X215643619Y-236447733D02*
X215643619Y-235495352D01*
X215643619Y-235495352D02*
X216119810Y-234542971D01*
X216119810Y-234542971D02*
X216596000Y-234066780D01*
X216596000Y-234066780D02*
X217548381Y-233590590D01*
X217548381Y-233590590D02*
X219929334Y-233590590D01*
X219929334Y-233590590D02*
X221357905Y-234066780D01*
X227548382Y-233590590D02*
X229453144Y-233590590D01*
X229453144Y-233590590D02*
X230405525Y-234066780D01*
X230405525Y-234066780D02*
X231357906Y-235019161D01*
X231357906Y-235019161D02*
X231834096Y-236923923D01*
X231834096Y-236923923D02*
X231834096Y-240257257D01*
X231834096Y-240257257D02*
X231357906Y-242162019D01*
X231357906Y-242162019D02*
X230405525Y-243114400D01*
X230405525Y-243114400D02*
X229453144Y-243590590D01*
X229453144Y-243590590D02*
X227548382Y-243590590D01*
X227548382Y-243590590D02*
X226596001Y-243114400D01*
X226596001Y-243114400D02*
X225643620Y-242162019D01*
X225643620Y-242162019D02*
X225167429Y-240257257D01*
X225167429Y-240257257D02*
X225167429Y-236923923D01*
X225167429Y-236923923D02*
X225643620Y-235019161D01*
X225643620Y-235019161D02*
X226596001Y-234066780D01*
X226596001Y-234066780D02*
X227548382Y-233590590D01*
X236119810Y-233590590D02*
X236119810Y-241685828D01*
X236119810Y-241685828D02*
X236596000Y-242638209D01*
X236596000Y-242638209D02*
X237072191Y-243114400D01*
X237072191Y-243114400D02*
X238024572Y-243590590D01*
X238024572Y-243590590D02*
X239929334Y-243590590D01*
X239929334Y-243590590D02*
X240881715Y-243114400D01*
X240881715Y-243114400D02*
X241357905Y-242638209D01*
X241357905Y-242638209D02*
X241834096Y-241685828D01*
X241834096Y-241685828D02*
X241834096Y-233590590D01*
X246596000Y-243590590D02*
X246596000Y-233590590D01*
X246596000Y-233590590D02*
X252310286Y-243590590D01*
X252310286Y-243590590D02*
X252310286Y-233590590D01*
X257072190Y-243590590D02*
X257072190Y-233590590D01*
X257072190Y-233590590D02*
X259453142Y-233590590D01*
X259453142Y-233590590D02*
X260881714Y-234066780D01*
X260881714Y-234066780D02*
X261834095Y-235019161D01*
X261834095Y-235019161D02*
X262310285Y-235971542D01*
X262310285Y-235971542D02*
X262786476Y-237876304D01*
X262786476Y-237876304D02*
X262786476Y-239304876D01*
X262786476Y-239304876D02*
X262310285Y-241209638D01*
X262310285Y-241209638D02*
X261834095Y-242162019D01*
X261834095Y-242162019D02*
X260881714Y-243114400D01*
X260881714Y-243114400D02*
X259453142Y-243590590D01*
X259453142Y-243590590D02*
X257072190Y-243590590D01*
X266595999Y-243114400D02*
X268024571Y-243590590D01*
X268024571Y-243590590D02*
X270405523Y-243590590D01*
X270405523Y-243590590D02*
X271357904Y-243114400D01*
X271357904Y-243114400D02*
X271834095Y-242638209D01*
X271834095Y-242638209D02*
X272310285Y-241685828D01*
X272310285Y-241685828D02*
X272310285Y-240733447D01*
X272310285Y-240733447D02*
X271834095Y-239781066D01*
X271834095Y-239781066D02*
X271357904Y-239304876D01*
X271357904Y-239304876D02*
X270405523Y-238828685D01*
X270405523Y-238828685D02*
X268500761Y-238352495D01*
X268500761Y-238352495D02*
X267548380Y-237876304D01*
X267548380Y-237876304D02*
X267072190Y-237400114D01*
X267072190Y-237400114D02*
X266595999Y-236447733D01*
X266595999Y-236447733D02*
X266595999Y-235495352D01*
X266595999Y-235495352D02*
X267072190Y-234542971D01*
X267072190Y-234542971D02*
X267548380Y-234066780D01*
X267548380Y-234066780D02*
X268500761Y-233590590D01*
X268500761Y-233590590D02*
X270881714Y-233590590D01*
X270881714Y-233590590D02*
X272310285Y-234066780D01*
D10*
X243729808Y-169192238D02*
X244110761Y-169192238D01*
X244110761Y-169192238D02*
X244301237Y-169287476D01*
X244301237Y-169287476D02*
X244491713Y-169477952D01*
X244491713Y-169477952D02*
X244586951Y-169858904D01*
X244586951Y-169858904D02*
X244586951Y-170525571D01*
X244586951Y-170525571D02*
X244491713Y-170906523D01*
X244491713Y-170906523D02*
X244301237Y-171097000D01*
X244301237Y-171097000D02*
X244110761Y-171192238D01*
X244110761Y-171192238D02*
X243729808Y-171192238D01*
X243729808Y-171192238D02*
X243539332Y-171097000D01*
X243539332Y-171097000D02*
X243348856Y-170906523D01*
X243348856Y-170906523D02*
X243253618Y-170525571D01*
X243253618Y-170525571D02*
X243253618Y-169858904D01*
X243253618Y-169858904D02*
X243348856Y-169477952D01*
X243348856Y-169477952D02*
X243539332Y-169287476D01*
X243539332Y-169287476D02*
X243729808Y-169192238D01*
X245444094Y-169192238D02*
X245444094Y-170811285D01*
X245444094Y-170811285D02*
X245539332Y-171001761D01*
X245539332Y-171001761D02*
X245634570Y-171097000D01*
X245634570Y-171097000D02*
X245825046Y-171192238D01*
X245825046Y-171192238D02*
X246205999Y-171192238D01*
X246205999Y-171192238D02*
X246396475Y-171097000D01*
X246396475Y-171097000D02*
X246491713Y-171001761D01*
X246491713Y-171001761D02*
X246586951Y-170811285D01*
X246586951Y-170811285D02*
X246586951Y-169192238D01*
X247253618Y-169192238D02*
X248396475Y-169192238D01*
X247825046Y-171192238D02*
X247825046Y-169192238D01*
X249063142Y-171192238D02*
X249063142Y-169192238D01*
X249063142Y-169192238D02*
X249825047Y-169192238D01*
X249825047Y-169192238D02*
X250015523Y-169287476D01*
X250015523Y-169287476D02*
X250110761Y-169382714D01*
X250110761Y-169382714D02*
X250205999Y-169573190D01*
X250205999Y-169573190D02*
X250205999Y-169858904D01*
X250205999Y-169858904D02*
X250110761Y-170049380D01*
X250110761Y-170049380D02*
X250015523Y-170144619D01*
X250015523Y-170144619D02*
X249825047Y-170239857D01*
X249825047Y-170239857D02*
X249063142Y-170239857D01*
X251063142Y-169192238D02*
X251063142Y-170811285D01*
X251063142Y-170811285D02*
X251158380Y-171001761D01*
X251158380Y-171001761D02*
X251253618Y-171097000D01*
X251253618Y-171097000D02*
X251444094Y-171192238D01*
X251444094Y-171192238D02*
X251825047Y-171192238D01*
X251825047Y-171192238D02*
X252015523Y-171097000D01*
X252015523Y-171097000D02*
X252110761Y-171001761D01*
X252110761Y-171001761D02*
X252205999Y-170811285D01*
X252205999Y-170811285D02*
X252205999Y-169192238D01*
X252872666Y-169192238D02*
X254015523Y-169192238D01*
X253444094Y-171192238D02*
X253444094Y-169192238D01*
X257253619Y-171192238D02*
X256110762Y-171192238D01*
X256682190Y-171192238D02*
X256682190Y-169192238D01*
X256682190Y-169192238D02*
X256491714Y-169477952D01*
X256491714Y-169477952D02*
X256301238Y-169668428D01*
X256301238Y-169668428D02*
X256110762Y-169763666D01*
X259063143Y-169192238D02*
X258110762Y-169192238D01*
X258110762Y-169192238D02*
X258015524Y-170144619D01*
X258015524Y-170144619D02*
X258110762Y-170049380D01*
X258110762Y-170049380D02*
X258301238Y-169954142D01*
X258301238Y-169954142D02*
X258777429Y-169954142D01*
X258777429Y-169954142D02*
X258967905Y-170049380D01*
X258967905Y-170049380D02*
X259063143Y-170144619D01*
X259063143Y-170144619D02*
X259158381Y-170335095D01*
X259158381Y-170335095D02*
X259158381Y-170811285D01*
X259158381Y-170811285D02*
X259063143Y-171001761D01*
X259063143Y-171001761D02*
X258967905Y-171097000D01*
X258967905Y-171097000D02*
X258777429Y-171192238D01*
X258777429Y-171192238D02*
X258301238Y-171192238D01*
X258301238Y-171192238D02*
X258110762Y-171097000D01*
X258110762Y-171097000D02*
X258015524Y-171001761D01*
D12*
X105405524Y-65463047D02*
X110167429Y-65463047D01*
X104453143Y-68320190D02*
X107786477Y-58320190D01*
X107786477Y-58320190D02*
X111119810Y-68320190D01*
X114453144Y-58320190D02*
X114453144Y-66415428D01*
X114453144Y-66415428D02*
X114929334Y-67367809D01*
X114929334Y-67367809D02*
X115405525Y-67844000D01*
X115405525Y-67844000D02*
X116357906Y-68320190D01*
X116357906Y-68320190D02*
X118262668Y-68320190D01*
X118262668Y-68320190D02*
X119215049Y-67844000D01*
X119215049Y-67844000D02*
X119691239Y-67367809D01*
X119691239Y-67367809D02*
X120167430Y-66415428D01*
X120167430Y-66415428D02*
X120167430Y-58320190D01*
X123500762Y-58320190D02*
X129215048Y-58320190D01*
X126357905Y-68320190D02*
X126357905Y-58320190D01*
X134453144Y-58320190D02*
X136357906Y-58320190D01*
X136357906Y-58320190D02*
X137310287Y-58796380D01*
X137310287Y-58796380D02*
X138262668Y-59748761D01*
X138262668Y-59748761D02*
X138738858Y-61653523D01*
X138738858Y-61653523D02*
X138738858Y-64986857D01*
X138738858Y-64986857D02*
X138262668Y-66891619D01*
X138262668Y-66891619D02*
X137310287Y-67844000D01*
X137310287Y-67844000D02*
X136357906Y-68320190D01*
X136357906Y-68320190D02*
X134453144Y-68320190D01*
X134453144Y-68320190D02*
X133500763Y-67844000D01*
X133500763Y-67844000D02*
X132548382Y-66891619D01*
X132548382Y-66891619D02*
X132072191Y-64986857D01*
X132072191Y-64986857D02*
X132072191Y-61653523D01*
X132072191Y-61653523D02*
X132548382Y-59748761D01*
X132548382Y-59748761D02*
X133500763Y-58796380D01*
X133500763Y-58796380D02*
X134453144Y-58320190D01*
X143024572Y-68320190D02*
X143024572Y-58320190D01*
X143024572Y-58320190D02*
X146357905Y-65463047D01*
X146357905Y-65463047D02*
X149691239Y-58320190D01*
X149691239Y-58320190D02*
X149691239Y-68320190D01*
X153976952Y-65463047D02*
X158738857Y-65463047D01*
X153024571Y-68320190D02*
X156357905Y-58320190D01*
X156357905Y-58320190D02*
X159691238Y-68320190D01*
X161596000Y-58320190D02*
X167310286Y-58320190D01*
X164453143Y-68320190D02*
X164453143Y-58320190D01*
X170643620Y-68320190D02*
X170643620Y-58320190D01*
X177310287Y-58320190D02*
X179215049Y-58320190D01*
X179215049Y-58320190D02*
X180167430Y-58796380D01*
X180167430Y-58796380D02*
X181119811Y-59748761D01*
X181119811Y-59748761D02*
X181596001Y-61653523D01*
X181596001Y-61653523D02*
X181596001Y-64986857D01*
X181596001Y-64986857D02*
X181119811Y-66891619D01*
X181119811Y-66891619D02*
X180167430Y-67844000D01*
X180167430Y-67844000D02*
X179215049Y-68320190D01*
X179215049Y-68320190D02*
X177310287Y-68320190D01*
X177310287Y-68320190D02*
X176357906Y-67844000D01*
X176357906Y-67844000D02*
X175405525Y-66891619D01*
X175405525Y-66891619D02*
X174929334Y-64986857D01*
X174929334Y-64986857D02*
X174929334Y-61653523D01*
X174929334Y-61653523D02*
X175405525Y-59748761D01*
X175405525Y-59748761D02*
X176357906Y-58796380D01*
X176357906Y-58796380D02*
X177310287Y-58320190D01*
X185881715Y-68320190D02*
X185881715Y-58320190D01*
X185881715Y-58320190D02*
X191596001Y-68320190D01*
X191596001Y-68320190D02*
X191596001Y-58320190D01*
X203500762Y-67844000D02*
X204929334Y-68320190D01*
X204929334Y-68320190D02*
X207310286Y-68320190D01*
X207310286Y-68320190D02*
X208262667Y-67844000D01*
X208262667Y-67844000D02*
X208738858Y-67367809D01*
X208738858Y-67367809D02*
X209215048Y-66415428D01*
X209215048Y-66415428D02*
X209215048Y-65463047D01*
X209215048Y-65463047D02*
X208738858Y-64510666D01*
X208738858Y-64510666D02*
X208262667Y-64034476D01*
X208262667Y-64034476D02*
X207310286Y-63558285D01*
X207310286Y-63558285D02*
X205405524Y-63082095D01*
X205405524Y-63082095D02*
X204453143Y-62605904D01*
X204453143Y-62605904D02*
X203976953Y-62129714D01*
X203976953Y-62129714D02*
X203500762Y-61177333D01*
X203500762Y-61177333D02*
X203500762Y-60224952D01*
X203500762Y-60224952D02*
X203976953Y-59272571D01*
X203976953Y-59272571D02*
X204453143Y-58796380D01*
X204453143Y-58796380D02*
X205405524Y-58320190D01*
X205405524Y-58320190D02*
X207786477Y-58320190D01*
X207786477Y-58320190D02*
X209215048Y-58796380D01*
X213500763Y-63082095D02*
X216834096Y-63082095D01*
X218262668Y-68320190D02*
X213500763Y-68320190D01*
X213500763Y-68320190D02*
X213500763Y-58320190D01*
X213500763Y-58320190D02*
X218262668Y-58320190D01*
X229215049Y-69272571D02*
X228262668Y-68796380D01*
X228262668Y-68796380D02*
X227310287Y-67844000D01*
X227310287Y-67844000D02*
X225881715Y-66415428D01*
X225881715Y-66415428D02*
X224929334Y-65939238D01*
X224929334Y-65939238D02*
X223976953Y-65939238D01*
X224453144Y-68320190D02*
X223500763Y-67844000D01*
X223500763Y-67844000D02*
X222548382Y-66891619D01*
X222548382Y-66891619D02*
X222072191Y-64986857D01*
X222072191Y-64986857D02*
X222072191Y-61653523D01*
X222072191Y-61653523D02*
X222548382Y-59748761D01*
X222548382Y-59748761D02*
X223500763Y-58796380D01*
X223500763Y-58796380D02*
X224453144Y-58320190D01*
X224453144Y-58320190D02*
X226357906Y-58320190D01*
X226357906Y-58320190D02*
X227310287Y-58796380D01*
X227310287Y-58796380D02*
X228262668Y-59748761D01*
X228262668Y-59748761D02*
X228738858Y-61653523D01*
X228738858Y-61653523D02*
X228738858Y-64986857D01*
X228738858Y-64986857D02*
X228262668Y-66891619D01*
X228262668Y-66891619D02*
X227310287Y-67844000D01*
X227310287Y-67844000D02*
X226357906Y-68320190D01*
X226357906Y-68320190D02*
X224453144Y-68320190D01*
X233024572Y-58320190D02*
X233024572Y-66415428D01*
X233024572Y-66415428D02*
X233500762Y-67367809D01*
X233500762Y-67367809D02*
X233976953Y-67844000D01*
X233976953Y-67844000D02*
X234929334Y-68320190D01*
X234929334Y-68320190D02*
X236834096Y-68320190D01*
X236834096Y-68320190D02*
X237786477Y-67844000D01*
X237786477Y-67844000D02*
X238262667Y-67367809D01*
X238262667Y-67367809D02*
X238738858Y-66415428D01*
X238738858Y-66415428D02*
X238738858Y-58320190D01*
X243500762Y-63082095D02*
X246834095Y-63082095D01*
X248262667Y-68320190D02*
X243500762Y-68320190D01*
X243500762Y-68320190D02*
X243500762Y-58320190D01*
X243500762Y-58320190D02*
X248262667Y-58320190D01*
X252548381Y-68320190D02*
X252548381Y-58320190D01*
X252548381Y-58320190D02*
X258262667Y-68320190D01*
X258262667Y-68320190D02*
X258262667Y-58320190D01*
X268738857Y-67367809D02*
X268262666Y-67844000D01*
X268262666Y-67844000D02*
X266834095Y-68320190D01*
X266834095Y-68320190D02*
X265881714Y-68320190D01*
X265881714Y-68320190D02*
X264453142Y-67844000D01*
X264453142Y-67844000D02*
X263500761Y-66891619D01*
X263500761Y-66891619D02*
X263024571Y-65939238D01*
X263024571Y-65939238D02*
X262548380Y-64034476D01*
X262548380Y-64034476D02*
X262548380Y-62605904D01*
X262548380Y-62605904D02*
X263024571Y-60701142D01*
X263024571Y-60701142D02*
X263500761Y-59748761D01*
X263500761Y-59748761D02*
X264453142Y-58796380D01*
X264453142Y-58796380D02*
X265881714Y-58320190D01*
X265881714Y-58320190D02*
X266834095Y-58320190D01*
X266834095Y-58320190D02*
X268262666Y-58796380D01*
X268262666Y-58796380D02*
X268738857Y-59272571D01*
X273024571Y-63082095D02*
X276357904Y-63082095D01*
X277786476Y-68320190D02*
X273024571Y-68320190D01*
X273024571Y-68320190D02*
X273024571Y-58320190D01*
X273024571Y-58320190D02*
X277786476Y-58320190D01*
X287786476Y-68320190D02*
X284453142Y-63558285D01*
X282072190Y-68320190D02*
X282072190Y-58320190D01*
X282072190Y-58320190D02*
X285881714Y-58320190D01*
X285881714Y-58320190D02*
X286834095Y-58796380D01*
X286834095Y-58796380D02*
X287310285Y-59272571D01*
X287310285Y-59272571D02*
X287786476Y-60224952D01*
X287786476Y-60224952D02*
X287786476Y-61653523D01*
X287786476Y-61653523D02*
X287310285Y-62605904D01*
X287310285Y-62605904D02*
X286834095Y-63082095D01*
X286834095Y-63082095D02*
X285881714Y-63558285D01*
X285881714Y-63558285D02*
X282072190Y-63558285D01*
D10*
X178388189Y-131600238D02*
X178769142Y-131600238D01*
X178769142Y-131600238D02*
X178959618Y-131695476D01*
X178959618Y-131695476D02*
X179150094Y-131885952D01*
X179150094Y-131885952D02*
X179245332Y-132266904D01*
X179245332Y-132266904D02*
X179245332Y-132933571D01*
X179245332Y-132933571D02*
X179150094Y-133314523D01*
X179150094Y-133314523D02*
X178959618Y-133505000D01*
X178959618Y-133505000D02*
X178769142Y-133600238D01*
X178769142Y-133600238D02*
X178388189Y-133600238D01*
X178388189Y-133600238D02*
X178197713Y-133505000D01*
X178197713Y-133505000D02*
X178007237Y-133314523D01*
X178007237Y-133314523D02*
X177911999Y-132933571D01*
X177911999Y-132933571D02*
X177911999Y-132266904D01*
X177911999Y-132266904D02*
X178007237Y-131885952D01*
X178007237Y-131885952D02*
X178197713Y-131695476D01*
X178197713Y-131695476D02*
X178388189Y-131600238D01*
X180102475Y-131600238D02*
X180102475Y-133219285D01*
X180102475Y-133219285D02*
X180197713Y-133409761D01*
X180197713Y-133409761D02*
X180292951Y-133505000D01*
X180292951Y-133505000D02*
X180483427Y-133600238D01*
X180483427Y-133600238D02*
X180864380Y-133600238D01*
X180864380Y-133600238D02*
X181054856Y-133505000D01*
X181054856Y-133505000D02*
X181150094Y-133409761D01*
X181150094Y-133409761D02*
X181245332Y-133219285D01*
X181245332Y-133219285D02*
X181245332Y-131600238D01*
X181911999Y-131600238D02*
X183054856Y-131600238D01*
X182483427Y-133600238D02*
X182483427Y-131600238D01*
X183721523Y-133600238D02*
X183721523Y-131600238D01*
X183721523Y-131600238D02*
X184483428Y-131600238D01*
X184483428Y-131600238D02*
X184673904Y-131695476D01*
X184673904Y-131695476D02*
X184769142Y-131790714D01*
X184769142Y-131790714D02*
X184864380Y-131981190D01*
X184864380Y-131981190D02*
X184864380Y-132266904D01*
X184864380Y-132266904D02*
X184769142Y-132457380D01*
X184769142Y-132457380D02*
X184673904Y-132552619D01*
X184673904Y-132552619D02*
X184483428Y-132647857D01*
X184483428Y-132647857D02*
X183721523Y-132647857D01*
X185721523Y-131600238D02*
X185721523Y-133219285D01*
X185721523Y-133219285D02*
X185816761Y-133409761D01*
X185816761Y-133409761D02*
X185911999Y-133505000D01*
X185911999Y-133505000D02*
X186102475Y-133600238D01*
X186102475Y-133600238D02*
X186483428Y-133600238D01*
X186483428Y-133600238D02*
X186673904Y-133505000D01*
X186673904Y-133505000D02*
X186769142Y-133409761D01*
X186769142Y-133409761D02*
X186864380Y-133219285D01*
X186864380Y-133219285D02*
X186864380Y-131600238D01*
X187531047Y-131600238D02*
X188673904Y-131600238D01*
X188102475Y-133600238D02*
X188102475Y-131600238D01*
X191721524Y-132266904D02*
X191721524Y-133600238D01*
X191245333Y-131505000D02*
X190769143Y-132933571D01*
X190769143Y-132933571D02*
X192007238Y-132933571D01*
X116522761Y-177605761D02*
X116427523Y-177701000D01*
X116427523Y-177701000D02*
X116141809Y-177796238D01*
X116141809Y-177796238D02*
X115951333Y-177796238D01*
X115951333Y-177796238D02*
X115665618Y-177701000D01*
X115665618Y-177701000D02*
X115475142Y-177510523D01*
X115475142Y-177510523D02*
X115379904Y-177320047D01*
X115379904Y-177320047D02*
X115284666Y-176939095D01*
X115284666Y-176939095D02*
X115284666Y-176653380D01*
X115284666Y-176653380D02*
X115379904Y-176272428D01*
X115379904Y-176272428D02*
X115475142Y-176081952D01*
X115475142Y-176081952D02*
X115665618Y-175891476D01*
X115665618Y-175891476D02*
X115951333Y-175796238D01*
X115951333Y-175796238D02*
X116141809Y-175796238D01*
X116141809Y-175796238D02*
X116427523Y-175891476D01*
X116427523Y-175891476D02*
X116522761Y-175986714D01*
X118522761Y-177605761D02*
X118427523Y-177701000D01*
X118427523Y-177701000D02*
X118141809Y-177796238D01*
X118141809Y-177796238D02*
X117951333Y-177796238D01*
X117951333Y-177796238D02*
X117665618Y-177701000D01*
X117665618Y-177701000D02*
X117475142Y-177510523D01*
X117475142Y-177510523D02*
X117379904Y-177320047D01*
X117379904Y-177320047D02*
X117284666Y-176939095D01*
X117284666Y-176939095D02*
X117284666Y-176653380D01*
X117284666Y-176653380D02*
X117379904Y-176272428D01*
X117379904Y-176272428D02*
X117475142Y-176081952D01*
X117475142Y-176081952D02*
X117665618Y-175891476D01*
X117665618Y-175891476D02*
X117951333Y-175796238D01*
X117951333Y-175796238D02*
X118141809Y-175796238D01*
X118141809Y-175796238D02*
X118427523Y-175891476D01*
X118427523Y-175891476D02*
X118522761Y-175986714D01*
X121951333Y-177796238D02*
X120808476Y-177796238D01*
X121379904Y-177796238D02*
X121379904Y-175796238D01*
X121379904Y-175796238D02*
X121189428Y-176081952D01*
X121189428Y-176081952D02*
X120998952Y-176272428D01*
X120998952Y-176272428D02*
X120808476Y-176367666D01*
X227012761Y-177605761D02*
X226917523Y-177701000D01*
X226917523Y-177701000D02*
X226631809Y-177796238D01*
X226631809Y-177796238D02*
X226441333Y-177796238D01*
X226441333Y-177796238D02*
X226155618Y-177701000D01*
X226155618Y-177701000D02*
X225965142Y-177510523D01*
X225965142Y-177510523D02*
X225869904Y-177320047D01*
X225869904Y-177320047D02*
X225774666Y-176939095D01*
X225774666Y-176939095D02*
X225774666Y-176653380D01*
X225774666Y-176653380D02*
X225869904Y-176272428D01*
X225869904Y-176272428D02*
X225965142Y-176081952D01*
X225965142Y-176081952D02*
X226155618Y-175891476D01*
X226155618Y-175891476D02*
X226441333Y-175796238D01*
X226441333Y-175796238D02*
X226631809Y-175796238D01*
X226631809Y-175796238D02*
X226917523Y-175891476D01*
X226917523Y-175891476D02*
X227012761Y-175986714D01*
X229012761Y-177605761D02*
X228917523Y-177701000D01*
X228917523Y-177701000D02*
X228631809Y-177796238D01*
X228631809Y-177796238D02*
X228441333Y-177796238D01*
X228441333Y-177796238D02*
X228155618Y-177701000D01*
X228155618Y-177701000D02*
X227965142Y-177510523D01*
X227965142Y-177510523D02*
X227869904Y-177320047D01*
X227869904Y-177320047D02*
X227774666Y-176939095D01*
X227774666Y-176939095D02*
X227774666Y-176653380D01*
X227774666Y-176653380D02*
X227869904Y-176272428D01*
X227869904Y-176272428D02*
X227965142Y-176081952D01*
X227965142Y-176081952D02*
X228155618Y-175891476D01*
X228155618Y-175891476D02*
X228441333Y-175796238D01*
X228441333Y-175796238D02*
X228631809Y-175796238D01*
X228631809Y-175796238D02*
X228917523Y-175891476D01*
X228917523Y-175891476D02*
X229012761Y-175986714D01*
X232250857Y-175796238D02*
X231869904Y-175796238D01*
X231869904Y-175796238D02*
X231679428Y-175891476D01*
X231679428Y-175891476D02*
X231584190Y-175986714D01*
X231584190Y-175986714D02*
X231393714Y-176272428D01*
X231393714Y-176272428D02*
X231298476Y-176653380D01*
X231298476Y-176653380D02*
X231298476Y-177415285D01*
X231298476Y-177415285D02*
X231393714Y-177605761D01*
X231393714Y-177605761D02*
X231488952Y-177701000D01*
X231488952Y-177701000D02*
X231679428Y-177796238D01*
X231679428Y-177796238D02*
X232060381Y-177796238D01*
X232060381Y-177796238D02*
X232250857Y-177701000D01*
X232250857Y-177701000D02*
X232346095Y-177605761D01*
X232346095Y-177605761D02*
X232441333Y-177415285D01*
X232441333Y-177415285D02*
X232441333Y-176939095D01*
X232441333Y-176939095D02*
X232346095Y-176748619D01*
X232346095Y-176748619D02*
X232250857Y-176653380D01*
X232250857Y-176653380D02*
X232060381Y-176558142D01*
X232060381Y-176558142D02*
X231679428Y-176558142D01*
X231679428Y-176558142D02*
X231488952Y-176653380D01*
X231488952Y-176653380D02*
X231393714Y-176748619D01*
X231393714Y-176748619D02*
X231298476Y-176939095D01*
X200486189Y-131600238D02*
X200867142Y-131600238D01*
X200867142Y-131600238D02*
X201057618Y-131695476D01*
X201057618Y-131695476D02*
X201248094Y-131885952D01*
X201248094Y-131885952D02*
X201343332Y-132266904D01*
X201343332Y-132266904D02*
X201343332Y-132933571D01*
X201343332Y-132933571D02*
X201248094Y-133314523D01*
X201248094Y-133314523D02*
X201057618Y-133505000D01*
X201057618Y-133505000D02*
X200867142Y-133600238D01*
X200867142Y-133600238D02*
X200486189Y-133600238D01*
X200486189Y-133600238D02*
X200295713Y-133505000D01*
X200295713Y-133505000D02*
X200105237Y-133314523D01*
X200105237Y-133314523D02*
X200009999Y-132933571D01*
X200009999Y-132933571D02*
X200009999Y-132266904D01*
X200009999Y-132266904D02*
X200105237Y-131885952D01*
X200105237Y-131885952D02*
X200295713Y-131695476D01*
X200295713Y-131695476D02*
X200486189Y-131600238D01*
X202200475Y-131600238D02*
X202200475Y-133219285D01*
X202200475Y-133219285D02*
X202295713Y-133409761D01*
X202295713Y-133409761D02*
X202390951Y-133505000D01*
X202390951Y-133505000D02*
X202581427Y-133600238D01*
X202581427Y-133600238D02*
X202962380Y-133600238D01*
X202962380Y-133600238D02*
X203152856Y-133505000D01*
X203152856Y-133505000D02*
X203248094Y-133409761D01*
X203248094Y-133409761D02*
X203343332Y-133219285D01*
X203343332Y-133219285D02*
X203343332Y-131600238D01*
X204009999Y-131600238D02*
X205152856Y-131600238D01*
X204581427Y-133600238D02*
X204581427Y-131600238D01*
X205819523Y-133600238D02*
X205819523Y-131600238D01*
X205819523Y-131600238D02*
X206581428Y-131600238D01*
X206581428Y-131600238D02*
X206771904Y-131695476D01*
X206771904Y-131695476D02*
X206867142Y-131790714D01*
X206867142Y-131790714D02*
X206962380Y-131981190D01*
X206962380Y-131981190D02*
X206962380Y-132266904D01*
X206962380Y-132266904D02*
X206867142Y-132457380D01*
X206867142Y-132457380D02*
X206771904Y-132552619D01*
X206771904Y-132552619D02*
X206581428Y-132647857D01*
X206581428Y-132647857D02*
X205819523Y-132647857D01*
X207819523Y-131600238D02*
X207819523Y-133219285D01*
X207819523Y-133219285D02*
X207914761Y-133409761D01*
X207914761Y-133409761D02*
X208009999Y-133505000D01*
X208009999Y-133505000D02*
X208200475Y-133600238D01*
X208200475Y-133600238D02*
X208581428Y-133600238D01*
X208581428Y-133600238D02*
X208771904Y-133505000D01*
X208771904Y-133505000D02*
X208867142Y-133409761D01*
X208867142Y-133409761D02*
X208962380Y-133219285D01*
X208962380Y-133219285D02*
X208962380Y-131600238D01*
X209629047Y-131600238D02*
X210771904Y-131600238D01*
X210200475Y-133600238D02*
X210200475Y-131600238D01*
X213914762Y-131600238D02*
X212962381Y-131600238D01*
X212962381Y-131600238D02*
X212867143Y-132552619D01*
X212867143Y-132552619D02*
X212962381Y-132457380D01*
X212962381Y-132457380D02*
X213152857Y-132362142D01*
X213152857Y-132362142D02*
X213629048Y-132362142D01*
X213629048Y-132362142D02*
X213819524Y-132457380D01*
X213819524Y-132457380D02*
X213914762Y-132552619D01*
X213914762Y-132552619D02*
X214010000Y-132743095D01*
X214010000Y-132743095D02*
X214010000Y-133219285D01*
X214010000Y-133219285D02*
X213914762Y-133409761D01*
X213914762Y-133409761D02*
X213819524Y-133505000D01*
X213819524Y-133505000D02*
X213629048Y-133600238D01*
X213629048Y-133600238D02*
X213152857Y-133600238D01*
X213152857Y-133600238D02*
X212962381Y-133505000D01*
X212962381Y-133505000D02*
X212867143Y-133409761D01*
X265827808Y-169192238D02*
X266208761Y-169192238D01*
X266208761Y-169192238D02*
X266399237Y-169287476D01*
X266399237Y-169287476D02*
X266589713Y-169477952D01*
X266589713Y-169477952D02*
X266684951Y-169858904D01*
X266684951Y-169858904D02*
X266684951Y-170525571D01*
X266684951Y-170525571D02*
X266589713Y-170906523D01*
X266589713Y-170906523D02*
X266399237Y-171097000D01*
X266399237Y-171097000D02*
X266208761Y-171192238D01*
X266208761Y-171192238D02*
X265827808Y-171192238D01*
X265827808Y-171192238D02*
X265637332Y-171097000D01*
X265637332Y-171097000D02*
X265446856Y-170906523D01*
X265446856Y-170906523D02*
X265351618Y-170525571D01*
X265351618Y-170525571D02*
X265351618Y-169858904D01*
X265351618Y-169858904D02*
X265446856Y-169477952D01*
X265446856Y-169477952D02*
X265637332Y-169287476D01*
X265637332Y-169287476D02*
X265827808Y-169192238D01*
X267542094Y-169192238D02*
X267542094Y-170811285D01*
X267542094Y-170811285D02*
X267637332Y-171001761D01*
X267637332Y-171001761D02*
X267732570Y-171097000D01*
X267732570Y-171097000D02*
X267923046Y-171192238D01*
X267923046Y-171192238D02*
X268303999Y-171192238D01*
X268303999Y-171192238D02*
X268494475Y-171097000D01*
X268494475Y-171097000D02*
X268589713Y-171001761D01*
X268589713Y-171001761D02*
X268684951Y-170811285D01*
X268684951Y-170811285D02*
X268684951Y-169192238D01*
X269351618Y-169192238D02*
X270494475Y-169192238D01*
X269923046Y-171192238D02*
X269923046Y-169192238D01*
X271161142Y-171192238D02*
X271161142Y-169192238D01*
X271161142Y-169192238D02*
X271923047Y-169192238D01*
X271923047Y-169192238D02*
X272113523Y-169287476D01*
X272113523Y-169287476D02*
X272208761Y-169382714D01*
X272208761Y-169382714D02*
X272303999Y-169573190D01*
X272303999Y-169573190D02*
X272303999Y-169858904D01*
X272303999Y-169858904D02*
X272208761Y-170049380D01*
X272208761Y-170049380D02*
X272113523Y-170144619D01*
X272113523Y-170144619D02*
X271923047Y-170239857D01*
X271923047Y-170239857D02*
X271161142Y-170239857D01*
X273161142Y-169192238D02*
X273161142Y-170811285D01*
X273161142Y-170811285D02*
X273256380Y-171001761D01*
X273256380Y-171001761D02*
X273351618Y-171097000D01*
X273351618Y-171097000D02*
X273542094Y-171192238D01*
X273542094Y-171192238D02*
X273923047Y-171192238D01*
X273923047Y-171192238D02*
X274113523Y-171097000D01*
X274113523Y-171097000D02*
X274208761Y-171001761D01*
X274208761Y-171001761D02*
X274303999Y-170811285D01*
X274303999Y-170811285D02*
X274303999Y-169192238D01*
X274970666Y-169192238D02*
X276113523Y-169192238D01*
X275542094Y-171192238D02*
X275542094Y-169192238D01*
X279351619Y-171192238D02*
X278208762Y-171192238D01*
X278780190Y-171192238D02*
X278780190Y-169192238D01*
X278780190Y-169192238D02*
X278589714Y-169477952D01*
X278589714Y-169477952D02*
X278399238Y-169668428D01*
X278399238Y-169668428D02*
X278208762Y-169763666D01*
X281065905Y-169192238D02*
X280684952Y-169192238D01*
X280684952Y-169192238D02*
X280494476Y-169287476D01*
X280494476Y-169287476D02*
X280399238Y-169382714D01*
X280399238Y-169382714D02*
X280208762Y-169668428D01*
X280208762Y-169668428D02*
X280113524Y-170049380D01*
X280113524Y-170049380D02*
X280113524Y-170811285D01*
X280113524Y-170811285D02*
X280208762Y-171001761D01*
X280208762Y-171001761D02*
X280304000Y-171097000D01*
X280304000Y-171097000D02*
X280494476Y-171192238D01*
X280494476Y-171192238D02*
X280875429Y-171192238D01*
X280875429Y-171192238D02*
X281065905Y-171097000D01*
X281065905Y-171097000D02*
X281161143Y-171001761D01*
X281161143Y-171001761D02*
X281256381Y-170811285D01*
X281256381Y-170811285D02*
X281256381Y-170335095D01*
X281256381Y-170335095D02*
X281161143Y-170144619D01*
X281161143Y-170144619D02*
X281065905Y-170049380D01*
X281065905Y-170049380D02*
X280875429Y-169954142D01*
X280875429Y-169954142D02*
X280494476Y-169954142D01*
X280494476Y-169954142D02*
X280304000Y-170049380D01*
X280304000Y-170049380D02*
X280208762Y-170144619D01*
X280208762Y-170144619D02*
X280113524Y-170335095D01*
X204914761Y-177605761D02*
X204819523Y-177701000D01*
X204819523Y-177701000D02*
X204533809Y-177796238D01*
X204533809Y-177796238D02*
X204343333Y-177796238D01*
X204343333Y-177796238D02*
X204057618Y-177701000D01*
X204057618Y-177701000D02*
X203867142Y-177510523D01*
X203867142Y-177510523D02*
X203771904Y-177320047D01*
X203771904Y-177320047D02*
X203676666Y-176939095D01*
X203676666Y-176939095D02*
X203676666Y-176653380D01*
X203676666Y-176653380D02*
X203771904Y-176272428D01*
X203771904Y-176272428D02*
X203867142Y-176081952D01*
X203867142Y-176081952D02*
X204057618Y-175891476D01*
X204057618Y-175891476D02*
X204343333Y-175796238D01*
X204343333Y-175796238D02*
X204533809Y-175796238D01*
X204533809Y-175796238D02*
X204819523Y-175891476D01*
X204819523Y-175891476D02*
X204914761Y-175986714D01*
X206914761Y-177605761D02*
X206819523Y-177701000D01*
X206819523Y-177701000D02*
X206533809Y-177796238D01*
X206533809Y-177796238D02*
X206343333Y-177796238D01*
X206343333Y-177796238D02*
X206057618Y-177701000D01*
X206057618Y-177701000D02*
X205867142Y-177510523D01*
X205867142Y-177510523D02*
X205771904Y-177320047D01*
X205771904Y-177320047D02*
X205676666Y-176939095D01*
X205676666Y-176939095D02*
X205676666Y-176653380D01*
X205676666Y-176653380D02*
X205771904Y-176272428D01*
X205771904Y-176272428D02*
X205867142Y-176081952D01*
X205867142Y-176081952D02*
X206057618Y-175891476D01*
X206057618Y-175891476D02*
X206343333Y-175796238D01*
X206343333Y-175796238D02*
X206533809Y-175796238D01*
X206533809Y-175796238D02*
X206819523Y-175891476D01*
X206819523Y-175891476D02*
X206914761Y-175986714D01*
X210248095Y-175796238D02*
X209295714Y-175796238D01*
X209295714Y-175796238D02*
X209200476Y-176748619D01*
X209200476Y-176748619D02*
X209295714Y-176653380D01*
X209295714Y-176653380D02*
X209486190Y-176558142D01*
X209486190Y-176558142D02*
X209962381Y-176558142D01*
X209962381Y-176558142D02*
X210152857Y-176653380D01*
X210152857Y-176653380D02*
X210248095Y-176748619D01*
X210248095Y-176748619D02*
X210343333Y-176939095D01*
X210343333Y-176939095D02*
X210343333Y-177415285D01*
X210343333Y-177415285D02*
X210248095Y-177605761D01*
X210248095Y-177605761D02*
X210152857Y-177701000D01*
X210152857Y-177701000D02*
X209962381Y-177796238D01*
X209962381Y-177796238D02*
X209486190Y-177796238D01*
X209486190Y-177796238D02*
X209295714Y-177701000D01*
X209295714Y-177701000D02*
X209200476Y-177605761D01*
X249110761Y-177605761D02*
X249015523Y-177701000D01*
X249015523Y-177701000D02*
X248729809Y-177796238D01*
X248729809Y-177796238D02*
X248539333Y-177796238D01*
X248539333Y-177796238D02*
X248253618Y-177701000D01*
X248253618Y-177701000D02*
X248063142Y-177510523D01*
X248063142Y-177510523D02*
X247967904Y-177320047D01*
X247967904Y-177320047D02*
X247872666Y-176939095D01*
X247872666Y-176939095D02*
X247872666Y-176653380D01*
X247872666Y-176653380D02*
X247967904Y-176272428D01*
X247967904Y-176272428D02*
X248063142Y-176081952D01*
X248063142Y-176081952D02*
X248253618Y-175891476D01*
X248253618Y-175891476D02*
X248539333Y-175796238D01*
X248539333Y-175796238D02*
X248729809Y-175796238D01*
X248729809Y-175796238D02*
X249015523Y-175891476D01*
X249015523Y-175891476D02*
X249110761Y-175986714D01*
X251110761Y-177605761D02*
X251015523Y-177701000D01*
X251015523Y-177701000D02*
X250729809Y-177796238D01*
X250729809Y-177796238D02*
X250539333Y-177796238D01*
X250539333Y-177796238D02*
X250253618Y-177701000D01*
X250253618Y-177701000D02*
X250063142Y-177510523D01*
X250063142Y-177510523D02*
X249967904Y-177320047D01*
X249967904Y-177320047D02*
X249872666Y-176939095D01*
X249872666Y-176939095D02*
X249872666Y-176653380D01*
X249872666Y-176653380D02*
X249967904Y-176272428D01*
X249967904Y-176272428D02*
X250063142Y-176081952D01*
X250063142Y-176081952D02*
X250253618Y-175891476D01*
X250253618Y-175891476D02*
X250539333Y-175796238D01*
X250539333Y-175796238D02*
X250729809Y-175796238D01*
X250729809Y-175796238D02*
X251015523Y-175891476D01*
X251015523Y-175891476D02*
X251110761Y-175986714D01*
X253301238Y-175796238D02*
X254634571Y-175796238D01*
X254634571Y-175796238D02*
X253777428Y-177796238D01*
X222584189Y-131600238D02*
X222965142Y-131600238D01*
X222965142Y-131600238D02*
X223155618Y-131695476D01*
X223155618Y-131695476D02*
X223346094Y-131885952D01*
X223346094Y-131885952D02*
X223441332Y-132266904D01*
X223441332Y-132266904D02*
X223441332Y-132933571D01*
X223441332Y-132933571D02*
X223346094Y-133314523D01*
X223346094Y-133314523D02*
X223155618Y-133505000D01*
X223155618Y-133505000D02*
X222965142Y-133600238D01*
X222965142Y-133600238D02*
X222584189Y-133600238D01*
X222584189Y-133600238D02*
X222393713Y-133505000D01*
X222393713Y-133505000D02*
X222203237Y-133314523D01*
X222203237Y-133314523D02*
X222107999Y-132933571D01*
X222107999Y-132933571D02*
X222107999Y-132266904D01*
X222107999Y-132266904D02*
X222203237Y-131885952D01*
X222203237Y-131885952D02*
X222393713Y-131695476D01*
X222393713Y-131695476D02*
X222584189Y-131600238D01*
X224298475Y-131600238D02*
X224298475Y-133219285D01*
X224298475Y-133219285D02*
X224393713Y-133409761D01*
X224393713Y-133409761D02*
X224488951Y-133505000D01*
X224488951Y-133505000D02*
X224679427Y-133600238D01*
X224679427Y-133600238D02*
X225060380Y-133600238D01*
X225060380Y-133600238D02*
X225250856Y-133505000D01*
X225250856Y-133505000D02*
X225346094Y-133409761D01*
X225346094Y-133409761D02*
X225441332Y-133219285D01*
X225441332Y-133219285D02*
X225441332Y-131600238D01*
X226107999Y-131600238D02*
X227250856Y-131600238D01*
X226679427Y-133600238D02*
X226679427Y-131600238D01*
X227917523Y-133600238D02*
X227917523Y-131600238D01*
X227917523Y-131600238D02*
X228679428Y-131600238D01*
X228679428Y-131600238D02*
X228869904Y-131695476D01*
X228869904Y-131695476D02*
X228965142Y-131790714D01*
X228965142Y-131790714D02*
X229060380Y-131981190D01*
X229060380Y-131981190D02*
X229060380Y-132266904D01*
X229060380Y-132266904D02*
X228965142Y-132457380D01*
X228965142Y-132457380D02*
X228869904Y-132552619D01*
X228869904Y-132552619D02*
X228679428Y-132647857D01*
X228679428Y-132647857D02*
X227917523Y-132647857D01*
X229917523Y-131600238D02*
X229917523Y-133219285D01*
X229917523Y-133219285D02*
X230012761Y-133409761D01*
X230012761Y-133409761D02*
X230107999Y-133505000D01*
X230107999Y-133505000D02*
X230298475Y-133600238D01*
X230298475Y-133600238D02*
X230679428Y-133600238D01*
X230679428Y-133600238D02*
X230869904Y-133505000D01*
X230869904Y-133505000D02*
X230965142Y-133409761D01*
X230965142Y-133409761D02*
X231060380Y-133219285D01*
X231060380Y-133219285D02*
X231060380Y-131600238D01*
X231727047Y-131600238D02*
X232869904Y-131600238D01*
X232298475Y-133600238D02*
X232298475Y-131600238D01*
X235917524Y-131600238D02*
X235536571Y-131600238D01*
X235536571Y-131600238D02*
X235346095Y-131695476D01*
X235346095Y-131695476D02*
X235250857Y-131790714D01*
X235250857Y-131790714D02*
X235060381Y-132076428D01*
X235060381Y-132076428D02*
X234965143Y-132457380D01*
X234965143Y-132457380D02*
X234965143Y-133219285D01*
X234965143Y-133219285D02*
X235060381Y-133409761D01*
X235060381Y-133409761D02*
X235155619Y-133505000D01*
X235155619Y-133505000D02*
X235346095Y-133600238D01*
X235346095Y-133600238D02*
X235727048Y-133600238D01*
X235727048Y-133600238D02*
X235917524Y-133505000D01*
X235917524Y-133505000D02*
X236012762Y-133409761D01*
X236012762Y-133409761D02*
X236108000Y-133219285D01*
X236108000Y-133219285D02*
X236108000Y-132743095D01*
X236108000Y-132743095D02*
X236012762Y-132552619D01*
X236012762Y-132552619D02*
X235917524Y-132457380D01*
X235917524Y-132457380D02*
X235727048Y-132362142D01*
X235727048Y-132362142D02*
X235346095Y-132362142D01*
X235346095Y-132362142D02*
X235155619Y-132457380D01*
X235155619Y-132457380D02*
X235060381Y-132552619D01*
X235060381Y-132552619D02*
X234965143Y-132743095D01*
X160718761Y-177605761D02*
X160623523Y-177701000D01*
X160623523Y-177701000D02*
X160337809Y-177796238D01*
X160337809Y-177796238D02*
X160147333Y-177796238D01*
X160147333Y-177796238D02*
X159861618Y-177701000D01*
X159861618Y-177701000D02*
X159671142Y-177510523D01*
X159671142Y-177510523D02*
X159575904Y-177320047D01*
X159575904Y-177320047D02*
X159480666Y-176939095D01*
X159480666Y-176939095D02*
X159480666Y-176653380D01*
X159480666Y-176653380D02*
X159575904Y-176272428D01*
X159575904Y-176272428D02*
X159671142Y-176081952D01*
X159671142Y-176081952D02*
X159861618Y-175891476D01*
X159861618Y-175891476D02*
X160147333Y-175796238D01*
X160147333Y-175796238D02*
X160337809Y-175796238D01*
X160337809Y-175796238D02*
X160623523Y-175891476D01*
X160623523Y-175891476D02*
X160718761Y-175986714D01*
X162718761Y-177605761D02*
X162623523Y-177701000D01*
X162623523Y-177701000D02*
X162337809Y-177796238D01*
X162337809Y-177796238D02*
X162147333Y-177796238D01*
X162147333Y-177796238D02*
X161861618Y-177701000D01*
X161861618Y-177701000D02*
X161671142Y-177510523D01*
X161671142Y-177510523D02*
X161575904Y-177320047D01*
X161575904Y-177320047D02*
X161480666Y-176939095D01*
X161480666Y-176939095D02*
X161480666Y-176653380D01*
X161480666Y-176653380D02*
X161575904Y-176272428D01*
X161575904Y-176272428D02*
X161671142Y-176081952D01*
X161671142Y-176081952D02*
X161861618Y-175891476D01*
X161861618Y-175891476D02*
X162147333Y-175796238D01*
X162147333Y-175796238D02*
X162337809Y-175796238D01*
X162337809Y-175796238D02*
X162623523Y-175891476D01*
X162623523Y-175891476D02*
X162718761Y-175986714D01*
X164909238Y-175796238D02*
X166147333Y-175796238D01*
X166147333Y-175796238D02*
X165480666Y-176558142D01*
X165480666Y-176558142D02*
X165766381Y-176558142D01*
X165766381Y-176558142D02*
X165956857Y-176653380D01*
X165956857Y-176653380D02*
X166052095Y-176748619D01*
X166052095Y-176748619D02*
X166147333Y-176939095D01*
X166147333Y-176939095D02*
X166147333Y-177415285D01*
X166147333Y-177415285D02*
X166052095Y-177605761D01*
X166052095Y-177605761D02*
X165956857Y-177701000D01*
X165956857Y-177701000D02*
X165766381Y-177796238D01*
X165766381Y-177796238D02*
X165194952Y-177796238D01*
X165194952Y-177796238D02*
X165004476Y-177701000D01*
X165004476Y-177701000D02*
X164909238Y-177605761D01*
X134192189Y-131600238D02*
X134573142Y-131600238D01*
X134573142Y-131600238D02*
X134763618Y-131695476D01*
X134763618Y-131695476D02*
X134954094Y-131885952D01*
X134954094Y-131885952D02*
X135049332Y-132266904D01*
X135049332Y-132266904D02*
X135049332Y-132933571D01*
X135049332Y-132933571D02*
X134954094Y-133314523D01*
X134954094Y-133314523D02*
X134763618Y-133505000D01*
X134763618Y-133505000D02*
X134573142Y-133600238D01*
X134573142Y-133600238D02*
X134192189Y-133600238D01*
X134192189Y-133600238D02*
X134001713Y-133505000D01*
X134001713Y-133505000D02*
X133811237Y-133314523D01*
X133811237Y-133314523D02*
X133715999Y-132933571D01*
X133715999Y-132933571D02*
X133715999Y-132266904D01*
X133715999Y-132266904D02*
X133811237Y-131885952D01*
X133811237Y-131885952D02*
X134001713Y-131695476D01*
X134001713Y-131695476D02*
X134192189Y-131600238D01*
X135906475Y-131600238D02*
X135906475Y-133219285D01*
X135906475Y-133219285D02*
X136001713Y-133409761D01*
X136001713Y-133409761D02*
X136096951Y-133505000D01*
X136096951Y-133505000D02*
X136287427Y-133600238D01*
X136287427Y-133600238D02*
X136668380Y-133600238D01*
X136668380Y-133600238D02*
X136858856Y-133505000D01*
X136858856Y-133505000D02*
X136954094Y-133409761D01*
X136954094Y-133409761D02*
X137049332Y-133219285D01*
X137049332Y-133219285D02*
X137049332Y-131600238D01*
X137715999Y-131600238D02*
X138858856Y-131600238D01*
X138287427Y-133600238D02*
X138287427Y-131600238D01*
X139525523Y-133600238D02*
X139525523Y-131600238D01*
X139525523Y-131600238D02*
X140287428Y-131600238D01*
X140287428Y-131600238D02*
X140477904Y-131695476D01*
X140477904Y-131695476D02*
X140573142Y-131790714D01*
X140573142Y-131790714D02*
X140668380Y-131981190D01*
X140668380Y-131981190D02*
X140668380Y-132266904D01*
X140668380Y-132266904D02*
X140573142Y-132457380D01*
X140573142Y-132457380D02*
X140477904Y-132552619D01*
X140477904Y-132552619D02*
X140287428Y-132647857D01*
X140287428Y-132647857D02*
X139525523Y-132647857D01*
X141525523Y-131600238D02*
X141525523Y-133219285D01*
X141525523Y-133219285D02*
X141620761Y-133409761D01*
X141620761Y-133409761D02*
X141715999Y-133505000D01*
X141715999Y-133505000D02*
X141906475Y-133600238D01*
X141906475Y-133600238D02*
X142287428Y-133600238D01*
X142287428Y-133600238D02*
X142477904Y-133505000D01*
X142477904Y-133505000D02*
X142573142Y-133409761D01*
X142573142Y-133409761D02*
X142668380Y-133219285D01*
X142668380Y-133219285D02*
X142668380Y-131600238D01*
X143335047Y-131600238D02*
X144477904Y-131600238D01*
X143906475Y-133600238D02*
X143906475Y-131600238D01*
X146573143Y-131790714D02*
X146668381Y-131695476D01*
X146668381Y-131695476D02*
X146858857Y-131600238D01*
X146858857Y-131600238D02*
X147335048Y-131600238D01*
X147335048Y-131600238D02*
X147525524Y-131695476D01*
X147525524Y-131695476D02*
X147620762Y-131790714D01*
X147620762Y-131790714D02*
X147716000Y-131981190D01*
X147716000Y-131981190D02*
X147716000Y-132171666D01*
X147716000Y-132171666D02*
X147620762Y-132457380D01*
X147620762Y-132457380D02*
X146477905Y-133600238D01*
X146477905Y-133600238D02*
X147716000Y-133600238D01*
X191691238Y-225548238D02*
X191691238Y-223548238D01*
X191691238Y-223548238D02*
X192357905Y-224976809D01*
X192357905Y-224976809D02*
X193024571Y-223548238D01*
X193024571Y-223548238D02*
X193024571Y-225548238D01*
X193976952Y-225548238D02*
X193976952Y-223548238D01*
X194929333Y-225548238D02*
X194929333Y-223548238D01*
X194929333Y-223548238D02*
X195405523Y-223548238D01*
X195405523Y-223548238D02*
X195691238Y-223643476D01*
X195691238Y-223643476D02*
X195881714Y-223833952D01*
X195881714Y-223833952D02*
X195976952Y-224024428D01*
X195976952Y-224024428D02*
X196072190Y-224405380D01*
X196072190Y-224405380D02*
X196072190Y-224691095D01*
X196072190Y-224691095D02*
X195976952Y-225072047D01*
X195976952Y-225072047D02*
X195881714Y-225262523D01*
X195881714Y-225262523D02*
X195691238Y-225453000D01*
X195691238Y-225453000D02*
X195405523Y-225548238D01*
X195405523Y-225548238D02*
X194929333Y-225548238D01*
X196929333Y-225548238D02*
X196929333Y-223548238D01*
X199405524Y-225548238D02*
X199405524Y-223548238D01*
X200357905Y-225548238D02*
X200357905Y-223548238D01*
X200357905Y-223548238D02*
X201500762Y-225548238D01*
X201500762Y-225548238D02*
X201500762Y-223548238D01*
M02*
