%TF.GenerationSoftware,KiCad,Pcbnew,7.0.7*%
%TF.CreationDate,2024-07-17T17:06:10+10:00*%
%TF.ProjectId,MIDIAutomationSequencerPROC,4d494449-4175-4746-9f6d-6174696f6e53,rev?*%
%TF.SameCoordinates,Original*%
%TF.FileFunction,Soldermask,Top*%
%TF.FilePolarity,Negative*%
%FSLAX46Y46*%
G04 Gerber Fmt 4.6, Leading zero omitted, Abs format (unit mm)*
G04 Created by KiCad (PCBNEW 7.0.7) date 2024-07-17 17:06:10*
%MOMM*%
%LPD*%
G01*
G04 APERTURE LIST*
%ADD10R,1.700000X1.700000*%
%ADD11O,1.700000X1.700000*%
%ADD12C,1.600000*%
%ADD13O,1.600000X1.600000*%
%ADD14C,3.200000*%
%ADD15O,1.727200X1.727200*%
%ADD16R,1.727200X1.727200*%
%ADD17R,1.600000X1.600000*%
%ADD18R,2.200000X2.200000*%
%ADD19O,2.200000X2.200000*%
G04 APERTURE END LIST*
D10*
%TO.C,J2*%
X141986000Y-119126000D03*
D11*
X139446000Y-119126000D03*
X136906000Y-119126000D03*
X134366000Y-119126000D03*
X131826000Y-119126000D03*
X129286000Y-119126000D03*
X126746000Y-119126000D03*
X124206000Y-119126000D03*
X121666000Y-119126000D03*
X119126000Y-119126000D03*
X116586000Y-119126000D03*
X114046000Y-119126000D03*
X111506000Y-119126000D03*
X108966000Y-119126000D03*
X106426000Y-119126000D03*
%TD*%
D10*
%TO.C,J5*%
X108966000Y-243840000D03*
D11*
X111506000Y-243840000D03*
X114046000Y-243840000D03*
X116586000Y-243840000D03*
X119126000Y-243840000D03*
X121666000Y-243840000D03*
X124206000Y-243840000D03*
X126746000Y-243840000D03*
X129286000Y-243840000D03*
X131826000Y-243840000D03*
X134366000Y-243840000D03*
X136906000Y-243840000D03*
X139446000Y-243840000D03*
X141986000Y-243840000D03*
%TD*%
D10*
%TO.C,J6*%
X171196000Y-119126000D03*
D11*
X173736000Y-119126000D03*
X176276000Y-119126000D03*
X178816000Y-119126000D03*
X181356000Y-119126000D03*
X183896000Y-119126000D03*
X186436000Y-119126000D03*
X188976000Y-119126000D03*
%TD*%
D10*
%TO.C,J3*%
X35560000Y-164846000D03*
D11*
X35560000Y-167386000D03*
X35560000Y-169926000D03*
X35560000Y-172466000D03*
X35560000Y-175006000D03*
X35560000Y-177546000D03*
X35560000Y-180086000D03*
X35560000Y-182626000D03*
X35560000Y-185166000D03*
X35560000Y-187706000D03*
X35560000Y-190246000D03*
X35560000Y-192786000D03*
X35560000Y-195326000D03*
X35560000Y-197866000D03*
%TD*%
D10*
%TO.C,J4*%
X215392000Y-164846000D03*
D11*
X215392000Y-167386000D03*
X215392000Y-169926000D03*
X215392000Y-172466000D03*
X215392000Y-175006000D03*
X215392000Y-177546000D03*
X215392000Y-180086000D03*
X215392000Y-182626000D03*
X215392000Y-185166000D03*
X215392000Y-187706000D03*
X215392000Y-190246000D03*
X215392000Y-192786000D03*
X215392000Y-195326000D03*
X215392000Y-197866000D03*
%TD*%
D12*
%TO.C,R45*%
X202692000Y-206756000D03*
D13*
X200152000Y-206756000D03*
%TD*%
D12*
%TO.C,R60*%
X202721000Y-220472000D03*
D13*
X200181000Y-220472000D03*
%TD*%
D12*
%TO.C,R62*%
X189992000Y-157988000D03*
D13*
X189992000Y-155448000D03*
%TD*%
D12*
%TO.C,R73*%
X155956000Y-230124000D03*
D13*
X155956000Y-227584000D03*
%TD*%
D12*
%TO.C,R55*%
X208280000Y-217344000D03*
D13*
X205740000Y-217344000D03*
%TD*%
D12*
%TO.C,R23*%
X60706000Y-203454000D03*
D13*
X60706000Y-205994000D03*
%TD*%
D12*
%TO.C,R52*%
X181864000Y-149352000D03*
D13*
X184404000Y-149352000D03*
%TD*%
D14*
%TO.C,A1*%
X111709200Y-192278000D03*
X149733000Y-185420000D03*
D15*
X107696000Y-166370000D03*
X107696000Y-163830000D03*
X105156000Y-166370000D03*
X150876000Y-181610000D03*
X105156000Y-163830000D03*
X112776000Y-199390000D03*
X112776000Y-196850000D03*
X115316000Y-199390000D03*
X115316000Y-196850000D03*
X117856000Y-199390000D03*
X117856000Y-196850000D03*
X120396000Y-199390000D03*
X120396000Y-196850000D03*
X122936000Y-199390000D03*
X122936000Y-196850000D03*
X125476000Y-199390000D03*
X125476000Y-196850000D03*
X128016000Y-199390000D03*
X128016000Y-196850000D03*
X130556000Y-199390000D03*
X130556000Y-196850000D03*
X110236000Y-166370000D03*
X112776000Y-166370000D03*
X112776000Y-163830000D03*
X115316000Y-166370000D03*
X115316000Y-163830000D03*
X117856000Y-166370000D03*
X117856000Y-163830000D03*
X120396000Y-166370000D03*
X120396000Y-163830000D03*
X122936000Y-166370000D03*
X122936000Y-163830000D03*
X125476000Y-166370000D03*
X125476000Y-163830000D03*
X128016000Y-166370000D03*
X128016000Y-163830000D03*
X130556000Y-166370000D03*
X130556000Y-163830000D03*
X133096000Y-166370000D03*
X133096000Y-163830000D03*
X135636000Y-166370000D03*
X135636000Y-163830000D03*
X138176000Y-166370000D03*
X138176000Y-163830000D03*
X140716000Y-166370000D03*
X140716000Y-163830000D03*
X143256000Y-166370000D03*
X143256000Y-163830000D03*
X145796000Y-166370000D03*
X145796000Y-163830000D03*
X148336000Y-166370000D03*
X148336000Y-163830000D03*
X150876000Y-166370000D03*
X150876000Y-163830000D03*
X133096000Y-199390000D03*
X133096000Y-196850000D03*
X135636000Y-199390000D03*
X135636000Y-196850000D03*
X138176000Y-199390000D03*
X138176000Y-196850000D03*
X140716000Y-199390000D03*
X140716000Y-196850000D03*
X143256000Y-199390000D03*
X143256000Y-196850000D03*
X145796000Y-199390000D03*
X145796000Y-196850000D03*
X148336000Y-199390000D03*
X148336000Y-196850000D03*
X150876000Y-199390000D03*
X150876000Y-196850000D03*
X150876000Y-194310000D03*
X148336000Y-194310000D03*
X150876000Y-191770000D03*
X148336000Y-191770000D03*
X150876000Y-189230000D03*
X148336000Y-189230000D03*
D16*
X102616000Y-166370000D03*
X102616000Y-163830000D03*
X150876000Y-176530000D03*
D15*
X148336000Y-181610000D03*
X150876000Y-179070000D03*
X110236000Y-163830000D03*
X148336000Y-176530000D03*
X148336000Y-179070000D03*
X100076000Y-166370000D03*
X100076000Y-163830000D03*
%TD*%
D12*
%TO.C,R35*%
X189992000Y-201168000D03*
D13*
X189992000Y-203708000D03*
%TD*%
D17*
%TO.C,U1*%
X95758000Y-243840000D03*
D13*
X95758000Y-246380000D03*
X95758000Y-248920000D03*
X95758000Y-251460000D03*
X88138000Y-251460000D03*
X88138000Y-248920000D03*
X88138000Y-246380000D03*
X88138000Y-243840000D03*
%TD*%
D12*
%TO.C,R6*%
X134366000Y-142748000D03*
D13*
X136906000Y-142748000D03*
%TD*%
D17*
%TO.C,C9*%
X193548000Y-110808887D03*
D12*
X193548000Y-113308887D03*
%TD*%
%TO.C,R29*%
X71120000Y-159004000D03*
D13*
X71120000Y-156464000D03*
%TD*%
D12*
%TO.C,C2*%
X195072000Y-206930000D03*
X195072000Y-201930000D03*
%TD*%
D17*
%TO.C,U5*%
X139954000Y-135128000D03*
D13*
X142494000Y-135128000D03*
X145034000Y-135128000D03*
X147574000Y-135128000D03*
X150114000Y-135128000D03*
X152654000Y-135128000D03*
X155194000Y-135128000D03*
X155194000Y-142748000D03*
X152654000Y-142748000D03*
X150114000Y-142748000D03*
X147574000Y-142748000D03*
X145034000Y-142748000D03*
X142494000Y-142748000D03*
X139954000Y-142748000D03*
%TD*%
D12*
%TO.C,R72*%
X159004000Y-235712000D03*
D13*
X159004000Y-233172000D03*
%TD*%
D12*
%TO.C,R68*%
X172974000Y-219964000D03*
D13*
X172974000Y-217424000D03*
%TD*%
D12*
%TO.C,R76*%
X169672000Y-230124000D03*
D13*
X169672000Y-227584000D03*
%TD*%
D12*
%TO.C,R57*%
X187452000Y-152400000D03*
D13*
X189992000Y-152400000D03*
%TD*%
D17*
%TO.C,D2*%
X156200000Y-249428000D03*
D13*
X156200000Y-246888000D03*
%TD*%
D10*
%TO.C,DAC2*%
X119634000Y-205740000D03*
D11*
X119634000Y-208280000D03*
X119634000Y-210820000D03*
X119634000Y-213360000D03*
X119634000Y-215900000D03*
X119634000Y-218440000D03*
X119634000Y-220980000D03*
X119634000Y-223520000D03*
X119634000Y-226060000D03*
X119634000Y-228600000D03*
%TD*%
D12*
%TO.C,R40*%
X208280000Y-209804000D03*
D13*
X205740000Y-209804000D03*
%TD*%
D12*
%TO.C,R67*%
X169672000Y-214884000D03*
D13*
X169672000Y-217424000D03*
%TD*%
D12*
%TO.C,R5*%
X104648000Y-246380000D03*
D13*
X102108000Y-246380000D03*
%TD*%
D12*
%TO.C,R34*%
X76708000Y-156464000D03*
D13*
X74168000Y-156464000D03*
%TD*%
D12*
%TO.C,R3*%
X152898000Y-249428000D03*
D13*
X150358000Y-249428000D03*
%TD*%
D17*
%TO.C,U2*%
X159004000Y-251968000D03*
D13*
X159004000Y-249428000D03*
X159004000Y-246888000D03*
X159004000Y-244348000D03*
X166624000Y-244348000D03*
X166624000Y-246888000D03*
X166624000Y-249428000D03*
X166624000Y-251968000D03*
%TD*%
D12*
%TO.C,R71*%
X150368000Y-217424000D03*
D13*
X152908000Y-217424000D03*
%TD*%
D12*
%TO.C,R27*%
X202692000Y-138684000D03*
D13*
X200152000Y-138684000D03*
%TD*%
D12*
%TO.C,R46*%
X142494000Y-126746000D03*
D13*
X142494000Y-129286000D03*
%TD*%
D12*
%TO.C,R22*%
X208280000Y-141732000D03*
D13*
X205740000Y-141732000D03*
%TD*%
D12*
%TO.C,R11*%
X139954000Y-145796000D03*
D13*
X142494000Y-145796000D03*
%TD*%
D12*
%TO.C,R69*%
X159004000Y-209296000D03*
D13*
X159004000Y-211836000D03*
%TD*%
D12*
%TO.C,R53*%
X68326000Y-229616000D03*
D13*
X68326000Y-227076000D03*
%TD*%
D12*
%TO.C,C8*%
X188976000Y-110744000D03*
X188976000Y-115744000D03*
%TD*%
%TO.C,R37*%
X208280000Y-149352000D03*
D13*
X205740000Y-149352000D03*
%TD*%
D12*
%TO.C,R18*%
X52070000Y-221488000D03*
D13*
X54610000Y-221488000D03*
%TD*%
D12*
%TO.C,C6*%
X195072000Y-138684000D03*
X195072000Y-133684000D03*
%TD*%
%TO.C,R21*%
X160782000Y-142748000D03*
D13*
X158242000Y-142748000D03*
%TD*%
D12*
%TO.C,R28*%
X57658000Y-208788000D03*
D13*
X57658000Y-211328000D03*
%TD*%
D12*
%TO.C,R65*%
X200152000Y-226060000D03*
D13*
X200152000Y-223520000D03*
%TD*%
D12*
%TO.C,R75*%
X166624000Y-235712000D03*
D13*
X166624000Y-233172000D03*
%TD*%
D12*
%TO.C,R49*%
X51816000Y-156464000D03*
D13*
X54356000Y-156464000D03*
%TD*%
D12*
%TO.C,R20*%
X189992000Y-226060000D03*
D13*
X189992000Y-223520000D03*
%TD*%
D12*
%TO.C,R54*%
X60452000Y-138176000D03*
D13*
X60452000Y-140716000D03*
%TD*%
D12*
%TO.C,R51*%
X160782000Y-135128000D03*
D13*
X158242000Y-135128000D03*
%TD*%
D17*
%TO.C,U3*%
X159004000Y-230124000D03*
D13*
X159004000Y-227584000D03*
X159004000Y-225044000D03*
X159004000Y-222504000D03*
X159004000Y-219964000D03*
X159004000Y-217424000D03*
X159004000Y-214884000D03*
X166624000Y-214884000D03*
X166624000Y-217424000D03*
X166624000Y-219964000D03*
X166624000Y-222504000D03*
X166624000Y-225044000D03*
X166624000Y-227584000D03*
X166624000Y-230124000D03*
%TD*%
D12*
%TO.C,R25*%
X181864000Y-209804000D03*
D13*
X184404000Y-209804000D03*
%TD*%
D12*
%TO.C,R59*%
X57404000Y-143764000D03*
D13*
X57404000Y-146304000D03*
%TD*%
D12*
%TO.C,R13*%
X57658000Y-224028000D03*
D13*
X57658000Y-221488000D03*
%TD*%
D12*
%TO.C,R63*%
X76962000Y-221488000D03*
D13*
X74422000Y-221488000D03*
%TD*%
D12*
%TO.C,R8*%
X60706000Y-229616000D03*
D13*
X60706000Y-227076000D03*
%TD*%
D12*
%TO.C,R9*%
X68072000Y-138176000D03*
D13*
X68072000Y-140716000D03*
%TD*%
D12*
%TO.C,R17*%
X189992000Y-133096000D03*
D13*
X189992000Y-135636000D03*
%TD*%
D12*
%TO.C,R26*%
X155223000Y-145796000D03*
D13*
X152683000Y-145796000D03*
%TD*%
D18*
%TO.C,D1*%
X198374000Y-110744000D03*
D19*
X208534000Y-110744000D03*
%TD*%
D12*
%TO.C,C4*%
X71374000Y-216408000D03*
X76374000Y-216408000D03*
%TD*%
%TO.C,R66*%
X166624000Y-209296000D03*
D13*
X166624000Y-211836000D03*
%TD*%
D12*
%TO.C,R77*%
X175260000Y-227584000D03*
D13*
X172720000Y-227584000D03*
%TD*%
D12*
%TO.C,R56*%
X155223000Y-132080000D03*
D13*
X152683000Y-132080000D03*
%TD*%
D12*
%TO.C,R41*%
X139954000Y-132334000D03*
D13*
X142494000Y-132334000D03*
%TD*%
D12*
%TO.C,R64*%
X51816000Y-146304000D03*
D13*
X54356000Y-146304000D03*
%TD*%
D12*
%TO.C,R12*%
X187452000Y-138684000D03*
D13*
X189992000Y-138684000D03*
%TD*%
D12*
%TO.C,R33*%
X52070000Y-211328000D03*
D13*
X54610000Y-211328000D03*
%TD*%
D12*
%TO.C,R16*%
X142494000Y-151384000D03*
D13*
X142494000Y-148844000D03*
%TD*%
D12*
%TO.C,R39*%
X60452000Y-164592000D03*
D13*
X60452000Y-162052000D03*
%TD*%
D17*
%TO.C,U7*%
X187452000Y-141732000D03*
D13*
X189992000Y-141732000D03*
X192532000Y-141732000D03*
X195072000Y-141732000D03*
X197612000Y-141732000D03*
X200152000Y-141732000D03*
X202692000Y-141732000D03*
X202692000Y-149352000D03*
X200152000Y-149352000D03*
X197612000Y-149352000D03*
X195072000Y-149352000D03*
X192532000Y-149352000D03*
X189992000Y-149352000D03*
X187452000Y-149352000D03*
%TD*%
D12*
%TO.C,R4*%
X99060000Y-243840000D03*
D13*
X99060000Y-246380000D03*
%TD*%
D12*
%TO.C,R44*%
X57404000Y-159004000D03*
D13*
X57404000Y-156464000D03*
%TD*%
D12*
%TO.C,R19*%
X76708000Y-146304000D03*
D13*
X74168000Y-146304000D03*
%TD*%
D12*
%TO.C,C1*%
X155956000Y-222504000D03*
X150956000Y-222504000D03*
%TD*%
%TO.C,R24*%
X68072000Y-164592000D03*
D13*
X68072000Y-162052000D03*
%TD*%
D12*
%TO.C,R38*%
X68326000Y-203454000D03*
D13*
X68326000Y-205994000D03*
%TD*%
D17*
%TO.C,U4*%
X187447000Y-209734000D03*
D13*
X189987000Y-209734000D03*
X192527000Y-209734000D03*
X195067000Y-209734000D03*
X197607000Y-209734000D03*
X200147000Y-209734000D03*
X202687000Y-209734000D03*
X202687000Y-217354000D03*
X200147000Y-217354000D03*
X197607000Y-217354000D03*
X195067000Y-217354000D03*
X192527000Y-217354000D03*
X189987000Y-217354000D03*
X187447000Y-217354000D03*
%TD*%
D12*
%TO.C,R36*%
X134366000Y-135128000D03*
D13*
X136906000Y-135128000D03*
%TD*%
D12*
%TO.C,R74*%
X150368000Y-227584000D03*
D13*
X152908000Y-227584000D03*
%TD*%
D12*
%TO.C,R7*%
X181864000Y-141732000D03*
D13*
X184404000Y-141732000D03*
%TD*%
D12*
%TO.C,C3*%
X147574000Y-131826000D03*
X147574000Y-126826000D03*
%TD*%
%TO.C,R30*%
X187452000Y-206756000D03*
D13*
X189992000Y-206756000D03*
%TD*%
D12*
%TO.C,R14*%
X71120000Y-143764000D03*
D13*
X71120000Y-146304000D03*
%TD*%
D10*
%TO.C,DAC1*%
X86614000Y-198628000D03*
D11*
X86614000Y-201168000D03*
X86614000Y-203708000D03*
X86614000Y-206248000D03*
X86614000Y-208788000D03*
X86614000Y-211328000D03*
X86614000Y-213868000D03*
X86614000Y-216408000D03*
X86614000Y-218948000D03*
X86614000Y-221488000D03*
%TD*%
D17*
%TO.C,U8*%
X68072000Y-143764000D03*
D13*
X68072000Y-146304000D03*
X68072000Y-148844000D03*
X68072000Y-151384000D03*
X68072000Y-153924000D03*
X68072000Y-156464000D03*
X68072000Y-159004000D03*
X60452000Y-159004000D03*
X60452000Y-156464000D03*
X60452000Y-153924000D03*
X60452000Y-151384000D03*
X60452000Y-148844000D03*
X60452000Y-146304000D03*
X60452000Y-143764000D03*
%TD*%
D12*
%TO.C,R15*%
X187452000Y-220472000D03*
D13*
X189992000Y-220472000D03*
%TD*%
D12*
%TO.C,R58*%
X71374000Y-224028000D03*
D13*
X71374000Y-221488000D03*
%TD*%
D12*
%TO.C,R32*%
X200152000Y-133096000D03*
D13*
X200152000Y-135636000D03*
%TD*%
D12*
%TO.C,R42*%
X202692000Y-152400000D03*
D13*
X200152000Y-152400000D03*
%TD*%
D17*
%TO.C,U6*%
X68326000Y-208788000D03*
D13*
X68326000Y-211328000D03*
X68326000Y-213868000D03*
X68326000Y-216408000D03*
X68326000Y-218948000D03*
X68326000Y-221488000D03*
X68326000Y-224028000D03*
X60706000Y-224028000D03*
X60706000Y-221488000D03*
X60706000Y-218948000D03*
X60706000Y-216408000D03*
X60706000Y-213868000D03*
X60706000Y-211328000D03*
X60706000Y-208788000D03*
%TD*%
D12*
%TO.C,R50*%
X200152000Y-201168000D03*
D13*
X200152000Y-203708000D03*
%TD*%
D12*
%TO.C,R47*%
X200152000Y-157988000D03*
D13*
X200152000Y-155448000D03*
%TD*%
D12*
%TO.C,R1*%
X95758000Y-238252000D03*
D13*
X95758000Y-240792000D03*
%TD*%
D12*
%TO.C,R10*%
X181864000Y-217424000D03*
D13*
X184404000Y-217424000D03*
%TD*%
D12*
%TO.C,C7*%
X71120000Y-151384000D03*
X76120000Y-151384000D03*
%TD*%
%TO.C,R70*%
X155956000Y-214884000D03*
D13*
X155956000Y-217424000D03*
%TD*%
D12*
%TO.C,R61*%
X152654000Y-126492000D03*
D13*
X152654000Y-129032000D03*
%TD*%
D12*
%TO.C,R31*%
X152654000Y-151384000D03*
D13*
X152654000Y-148844000D03*
%TD*%
D12*
%TO.C,C5*%
X85344000Y-243840000D03*
X80344000Y-243840000D03*
%TD*%
%TO.C,R43*%
X71374000Y-208788000D03*
D13*
X71374000Y-211328000D03*
%TD*%
D12*
%TO.C,R48*%
X76962000Y-211328000D03*
D13*
X74422000Y-211328000D03*
%TD*%
D10*
%TO.C,J1*%
X214884000Y-110744000D03*
D11*
X212344000Y-110744000D03*
X214884000Y-113284000D03*
X212344000Y-113284000D03*
X214884000Y-115824000D03*
X212344000Y-115824000D03*
X214884000Y-118364000D03*
X212344000Y-118364000D03*
X214884000Y-120904000D03*
X212344000Y-120904000D03*
%TD*%
D12*
%TO.C,R2*%
X169662000Y-249438000D03*
D13*
X169662000Y-246898000D03*
%TD*%
M02*
