M48
; DRILL file {KiCad 7.0.7} date Wed Jul 17 17:06:06 2024
; FORMAT={-:-/ absolute / metric / decimal}
; #@! TF.CreationDate,2024-07-17T17:06:06+10:00
; #@! TF.GenerationSoftware,Kicad,Pcbnew,7.0.7
; #@! TF.FileFunction,MixedPlating,1,2
FMAT,2
METRIC
; #@! TA.AperFunction,Plated,PTH,ViaDrill
T1C0.400
; #@! TA.AperFunction,Plated,PTH,ComponentDrill
T2C0.800
; #@! TA.AperFunction,Plated,PTH,ComponentDrill
T3C1.000
; #@! TA.AperFunction,Plated,PTH,ComponentDrill
T4C1.016
; #@! TA.AperFunction,Plated,PTH,ComponentDrill
T5C1.100
; #@! TA.AperFunction,NonPlated,NPTH,ComponentDrill
T6C3.200
%
G90
G05
T1
X82.55Y-153.924
X82.55Y-155.956
X159.258Y-137.922
X165.608Y-137.922
T2
X51.816Y-146.304
X51.816Y-156.464
X52.07Y-211.328
X52.07Y-221.488
X54.356Y-146.304
X54.356Y-156.464
X54.61Y-211.328
X54.61Y-221.488
X57.404Y-143.764
X57.404Y-146.304
X57.404Y-156.464
X57.404Y-159.004
X57.658Y-208.788
X57.658Y-211.328
X57.658Y-221.488
X57.658Y-224.028
X60.452Y-138.176
X60.452Y-140.716
X60.452Y-143.764
X60.452Y-146.304
X60.452Y-148.844
X60.452Y-151.384
X60.452Y-153.924
X60.452Y-156.464
X60.452Y-159.004
X60.452Y-162.052
X60.452Y-164.592
X60.706Y-203.454
X60.706Y-205.994
X60.706Y-208.788
X60.706Y-211.328
X60.706Y-213.868
X60.706Y-216.408
X60.706Y-218.948
X60.706Y-221.488
X60.706Y-224.028
X60.706Y-227.076
X60.706Y-229.616
X68.072Y-138.176
X68.072Y-140.716
X68.072Y-143.764
X68.072Y-146.304
X68.072Y-148.844
X68.072Y-151.384
X68.072Y-153.924
X68.072Y-156.464
X68.072Y-159.004
X68.072Y-162.052
X68.072Y-164.592
X68.326Y-203.454
X68.326Y-205.994
X68.326Y-208.788
X68.326Y-211.328
X68.326Y-213.868
X68.326Y-216.408
X68.326Y-218.948
X68.326Y-221.488
X68.326Y-224.028
X68.326Y-227.076
X68.326Y-229.616
X71.12Y-143.764
X71.12Y-146.304
X71.12Y-151.384
X71.12Y-156.464
X71.12Y-159.004
X71.374Y-208.788
X71.374Y-211.328
X71.374Y-216.408
X71.374Y-221.488
X71.374Y-224.028
X74.168Y-146.304
X74.168Y-156.464
X74.422Y-211.328
X74.422Y-221.488
X76.12Y-151.384
X76.374Y-216.408
X76.708Y-146.304
X76.708Y-156.464
X76.962Y-211.328
X76.962Y-221.488
X80.344Y-243.84
X85.344Y-243.84
X88.138Y-243.84
X88.138Y-246.38
X88.138Y-248.92
X88.138Y-251.46
X95.758Y-238.252
X95.758Y-240.792
X95.758Y-243.84
X95.758Y-246.38
X95.758Y-248.92
X95.758Y-251.46
X99.06Y-243.84
X99.06Y-246.38
X102.108Y-246.38
X104.648Y-246.38
X134.366Y-135.128
X134.366Y-142.748
X136.906Y-135.128
X136.906Y-142.748
X139.954Y-132.334
X139.954Y-135.128
X139.954Y-142.748
X139.954Y-145.796
X142.494Y-126.746
X142.494Y-129.286
X142.494Y-132.334
X142.494Y-135.128
X142.494Y-142.748
X142.494Y-145.796
X142.494Y-148.844
X142.494Y-151.384
X145.034Y-135.128
X145.034Y-142.748
X147.574Y-126.826
X147.574Y-131.826
X147.574Y-135.128
X147.574Y-142.748
X150.114Y-135.128
X150.114Y-142.748
X150.358Y-249.428
X150.368Y-217.424
X150.368Y-227.584
X150.956Y-222.504
X152.654Y-126.492
X152.654Y-129.032
X152.654Y-135.128
X152.654Y-142.748
X152.654Y-148.844
X152.654Y-151.384
X152.683Y-132.08
X152.683Y-145.796
X152.898Y-249.428
X152.908Y-217.424
X152.908Y-227.584
X155.194Y-135.128
X155.194Y-142.748
X155.223Y-132.08
X155.223Y-145.796
X155.956Y-214.884
X155.956Y-217.424
X155.956Y-222.504
X155.956Y-227.584
X155.956Y-230.124
X156.2Y-246.888
X156.2Y-249.428
X158.242Y-135.128
X158.242Y-142.748
X159.004Y-209.296
X159.004Y-211.836
X159.004Y-214.884
X159.004Y-217.424
X159.004Y-219.964
X159.004Y-222.504
X159.004Y-225.044
X159.004Y-227.584
X159.004Y-230.124
X159.004Y-233.172
X159.004Y-235.712
X159.004Y-244.348
X159.004Y-246.888
X159.004Y-249.428
X159.004Y-251.968
X160.782Y-135.128
X160.782Y-142.748
X166.624Y-209.296
X166.624Y-211.836
X166.624Y-214.884
X166.624Y-217.424
X166.624Y-219.964
X166.624Y-222.504
X166.624Y-225.044
X166.624Y-227.584
X166.624Y-230.124
X166.624Y-233.172
X166.624Y-235.712
X166.624Y-244.348
X166.624Y-246.888
X166.624Y-249.428
X166.624Y-251.968
X169.662Y-246.898
X169.662Y-249.438
X169.672Y-214.884
X169.672Y-217.424
X169.672Y-227.584
X169.672Y-230.124
X172.72Y-227.584
X172.974Y-217.424
X172.974Y-219.964
X175.26Y-227.584
X181.864Y-141.732
X181.864Y-149.352
X181.864Y-209.804
X181.864Y-217.424
X184.404Y-141.732
X184.404Y-149.352
X184.404Y-209.804
X184.404Y-217.424
X187.447Y-209.734
X187.447Y-217.354
X187.452Y-138.684
X187.452Y-141.732
X187.452Y-149.352
X187.452Y-152.4
X187.452Y-206.756
X187.452Y-220.472
X188.976Y-110.744
X188.976Y-115.744
X189.987Y-209.734
X189.987Y-217.354
X189.992Y-133.096
X189.992Y-135.636
X189.992Y-138.684
X189.992Y-141.732
X189.992Y-149.352
X189.992Y-152.4
X189.992Y-155.448
X189.992Y-157.988
X189.992Y-201.168
X189.992Y-203.708
X189.992Y-206.756
X189.992Y-220.472
X189.992Y-223.52
X189.992Y-226.06
X192.527Y-209.734
X192.527Y-217.354
X192.532Y-141.732
X192.532Y-149.352
X193.548Y-110.809
X193.548Y-113.309
X195.067Y-209.734
X195.067Y-217.354
X195.072Y-133.684
X195.072Y-138.684
X195.072Y-141.732
X195.072Y-149.352
X195.072Y-201.93
X195.072Y-206.93
X197.607Y-209.734
X197.607Y-217.354
X197.612Y-141.732
X197.612Y-149.352
X200.147Y-209.734
X200.147Y-217.354
X200.152Y-133.096
X200.152Y-135.636
X200.152Y-138.684
X200.152Y-141.732
X200.152Y-149.352
X200.152Y-152.4
X200.152Y-155.448
X200.152Y-157.988
X200.152Y-201.168
X200.152Y-203.708
X200.152Y-206.756
X200.152Y-223.52
X200.152Y-226.06
X200.181Y-220.472
X202.687Y-209.734
X202.687Y-217.354
X202.692Y-138.684
X202.692Y-141.732
X202.692Y-149.352
X202.692Y-152.4
X202.692Y-206.756
X202.721Y-220.472
X205.74Y-141.732
X205.74Y-149.352
X205.74Y-209.804
X205.74Y-217.344
X208.28Y-141.732
X208.28Y-149.352
X208.28Y-209.804
X208.28Y-217.344
T3
X35.56Y-164.846
X35.56Y-167.386
X35.56Y-169.926
X35.56Y-172.466
X35.56Y-175.006
X35.56Y-177.546
X35.56Y-180.086
X35.56Y-182.626
X35.56Y-185.166
X35.56Y-187.706
X35.56Y-190.246
X35.56Y-192.786
X35.56Y-195.326
X35.56Y-197.866
X86.614Y-198.628
X86.614Y-201.168
X86.614Y-203.708
X86.614Y-206.248
X86.614Y-208.788
X86.614Y-211.328
X86.614Y-213.868
X86.614Y-216.408
X86.614Y-218.948
X86.614Y-221.488
X106.426Y-119.126
X108.966Y-119.126
X108.966Y-243.84
X111.506Y-119.126
X111.506Y-243.84
X114.046Y-119.126
X114.046Y-243.84
X116.586Y-119.126
X116.586Y-243.84
X119.126Y-119.126
X119.126Y-243.84
X119.634Y-205.74
X119.634Y-208.28
X119.634Y-210.82
X119.634Y-213.36
X119.634Y-215.9
X119.634Y-218.44
X119.634Y-220.98
X119.634Y-223.52
X119.634Y-226.06
X119.634Y-228.6
X121.666Y-119.126
X121.666Y-243.84
X124.206Y-119.126
X124.206Y-243.84
X126.746Y-119.126
X126.746Y-243.84
X129.286Y-119.126
X129.286Y-243.84
X131.826Y-119.126
X131.826Y-243.84
X134.366Y-119.126
X134.366Y-243.84
X136.906Y-119.126
X136.906Y-243.84
X139.446Y-119.126
X139.446Y-243.84
X141.986Y-119.126
X141.986Y-243.84
X171.196Y-119.126
X173.736Y-119.126
X176.276Y-119.126
X178.816Y-119.126
X181.356Y-119.126
X183.896Y-119.126
X186.436Y-119.126
X188.976Y-119.126
X212.344Y-110.744
X212.344Y-113.284
X212.344Y-115.824
X212.344Y-118.364
X212.344Y-120.904
X214.884Y-110.744
X214.884Y-113.284
X214.884Y-115.824
X214.884Y-118.364
X214.884Y-120.904
X215.392Y-164.846
X215.392Y-167.386
X215.392Y-169.926
X215.392Y-172.466
X215.392Y-175.006
X215.392Y-177.546
X215.392Y-180.086
X215.392Y-182.626
X215.392Y-185.166
X215.392Y-187.706
X215.392Y-190.246
X215.392Y-192.786
X215.392Y-195.326
X215.392Y-197.866
T4
X100.076Y-163.83
X100.076Y-166.37
X102.616Y-163.83
X102.616Y-166.37
X105.156Y-163.83
X105.156Y-166.37
X107.696Y-163.83
X107.696Y-166.37
X110.236Y-163.83
X110.236Y-166.37
X112.776Y-163.83
X112.776Y-166.37
X112.776Y-196.85
X112.776Y-199.39
X115.316Y-163.83
X115.316Y-166.37
X115.316Y-196.85
X115.316Y-199.39
X117.856Y-163.83
X117.856Y-166.37
X117.856Y-196.85
X117.856Y-199.39
X120.396Y-163.83
X120.396Y-166.37
X120.396Y-196.85
X120.396Y-199.39
X122.936Y-163.83
X122.936Y-166.37
X122.936Y-196.85
X122.936Y-199.39
X125.476Y-163.83
X125.476Y-166.37
X125.476Y-196.85
X125.476Y-199.39
X128.016Y-163.83
X128.016Y-166.37
X128.016Y-196.85
X128.016Y-199.39
X130.556Y-163.83
X130.556Y-166.37
X130.556Y-196.85
X130.556Y-199.39
X133.096Y-163.83
X133.096Y-166.37
X133.096Y-196.85
X133.096Y-199.39
X135.636Y-163.83
X135.636Y-166.37
X135.636Y-196.85
X135.636Y-199.39
X138.176Y-163.83
X138.176Y-166.37
X138.176Y-196.85
X138.176Y-199.39
X140.716Y-163.83
X140.716Y-166.37
X140.716Y-196.85
X140.716Y-199.39
X143.256Y-163.83
X143.256Y-166.37
X143.256Y-196.85
X143.256Y-199.39
X145.796Y-163.83
X145.796Y-166.37
X145.796Y-196.85
X145.796Y-199.39
X148.336Y-163.83
X148.336Y-166.37
X148.336Y-176.53
X148.336Y-179.07
X148.336Y-181.61
X148.336Y-189.23
X148.336Y-191.77
X148.336Y-194.31
X148.336Y-196.85
X148.336Y-199.39
X150.876Y-163.83
X150.876Y-166.37
X150.876Y-176.53
X150.876Y-179.07
X150.876Y-181.61
X150.876Y-189.23
X150.876Y-191.77
X150.876Y-194.31
X150.876Y-196.85
X150.876Y-199.39
T5
X198.374Y-110.744
X208.534Y-110.744
T6
X111.709Y-192.278
X149.733Y-185.42
T0
M30
